<?xml version="1.0" standalone="no"?>
<!DOCTYPE svg PUBLIC "-//W3C//DTD SVG 1.1//EN" "http://www.w3.org/Graphics/SVG/1.1/DTD/svg11.dtd" >
<svg>
<metadata>
Created by FontForge 20090914 at Mon Aug 31 23:54:55 2015
 By www-data
Copyright 2010, 2012 Adobe Systems Incorporated. All Rights Reserved.
</metadata>
<defs>
<font id="SourceSansPro-LightIt" horiz-adv-x="462" >
  <font-face 
    font-family="Source Sans Pro Light"
    font-weight="300"
    font-style="italic"
    font-stretch="normal"
    units-per-em="1000"
    panose-1="2 11 4 3 3 4 3 9 2 4"
    ascent="750"
    descent="-250"
    x-height="479.999"
    cap-height="659"
    bbox="-209 -276 1069 936"
    underline-thickness="50"
    underline-position="-50"
    slope="-11"
    unicode-range="U+000D-U+FB02"
  />
<missing-glyph horiz-adv-x="608" 
d="M170 660h427l-130 -660h-427zM205 601l-102 -520l190 259zM438 81l107 520l-194 -261zM111 39h299l-56 165l-37 103h-4l-79 -103zM400 462l116 159h-275l51 -159l33 -93h4z" />
    <glyph glyph-name="f_f" unicode="ff" horiz-adv-x="508" 
d="M418 590c10 48 26.5049 83.498 49.5049 106.498s50.5 34.5 82.5 34.5c16.667 0 30.5 -2 41.5 -6s21.833 -8.66699 32.5 -14l-17 -33c-8 4.66699 -16.333 8.66699 -25 12s-19.334 5 -32.001 5c-24.667 0 -44.5 -10.167 -59.5 -30.5s-25.5 -45.166 -31.5 -74.499l-22 -110
h105l-8 -36h-104l-90 -444h-41l90 444h-212l-89 -444h-41l89 444h-63l6 32l64 4l20 100c11.333 48 29.166 83.5 53.499 106.5s53.5 34.5 87.5 34.5c19.333 0 35.166 -2 47.499 -6s24.5 -8.66699 36.5 -14l-18 -33c-9.33301 4.66699 -18.833 8.66699 -28.5 12
s-22.167 5 -37.5 5c-26.667 0 -48.334 -10.167 -65.001 -30.5s-28.334 -45.166 -35.001 -74.499l-20 -100h212z" />
    <glyph glyph-name="f_t" unicode="ft" horiz-adv-x="509" 
d="M328 129c-1.33301 -6 -2.33496 -12.0029 -3.00195 -18.0029s-1 -12.667 -1 -20c0 -22 4.83301 -38.667 14.5 -50s27.5 -17 53.5 -17c11.333 0 21.833 1.83301 31.5 5.5s18.5 7.5 26.5 11.5l11 -31c-9.33301 -5.33301 -20.666 -10.333 -33.999 -15s-27.666 -7 -42.999 -7
c-18.667 0 -34.5 2.5 -47.5 7.5s-23.5 11.833 -31.5 20.5s-13.667 18.834 -17 30.501s-5 23.834 -5 36.501c0 16.667 1.33301 32.667 4 48l65 313h-175l-89 -444h-41l89 444h-63l6 32l64 4l22 110c10 48 26.5 83.5 49.5 106.5s50.5 34.5 82.5 34.5c16.667 0 30.5 -2 41.5 -6
s22.167 -8.66699 33.5 -14l-18 -33c-7.33301 4.66699 -15.5 8.66699 -24.5 12s-19.833 5 -32.5 5c-24 0 -43.667 -10.167 -59 -30.5s-26 -45.166 -32 -74.499l-22 -110h177l33 137h35l-28 -137h130l-8 -36h-130z" />
    <glyph glyph-name=".notdef" horiz-adv-x="608" 
d="M170 660h427l-130 -660h-427zM205 601l-102 -520l190 259zM438 81l107 520l-194 -261zM111 39h299l-56 165l-37 103h-4l-79 -103zM400 462l116 159h-275l51 -159l33 -93h4z" />
    <glyph glyph-name="NULL" horiz-adv-x="0" 
 />
    <glyph glyph-name="NULL" horiz-adv-x="0" 
 />
    <glyph glyph-name="CR" unicode="&#xd;" horiz-adv-x="189" 
 />
    <glyph glyph-name="space" unicode=" " horiz-adv-x="189" 
 />
    <glyph glyph-name="exclam" unicode="!" horiz-adv-x="253" 
d="M174 600l13 72h41l-14 -72l-87 -421h-32zM76 -12c-10.667 0 -19 3.49902 -25 10.499s-9 15.167 -9 24.5c0 13.333 4.83301 25.5 14.5 36.5s21.167 16.5 34.5 16.5c10.667 0 18.667 -3.5 24 -10.5s8 -15.833 8 -26.5c0 -13.333 -4.5 -25.166 -13.5 -35.499
s-20.167 -15.5 -33.5 -15.5z" />
    <glyph glyph-name="quotedbl" unicode="&#x22;" horiz-adv-x="347" 
d="M156 600l13 72h41l-14 -72l-33 -136h-31zM290 600l13 72h41l-14 -72l-33 -136h-31z" />
    <glyph glyph-name="numbersign" unicode="#" horiz-adv-x="464" 
d="M108 214h-81l9 36h82l52 170h-83l10 36h85l61 194h35l-61 -194h140l61 194h35l-61 -194h81l-10 -36h-82l-52 -170h83l-9 -36h-86l-67 -214h-34l67 214h-141l-67 -214h-34zM295 250l52 170h-142l-52 -170h142z" />
    <glyph glyph-name="dollar" unicode="$" 
d="M329 649c24 -5.33301 46.1689 -15.4941 66.502 -30.4941s36.833 -32.167 49.5 -51.5l-30 -25c-13.333 20.667 -30.166 38.167 -50.499 52.5s-43.166 21.5 -68.499 21.5c-18.667 0 -35.834 -3 -51.501 -9s-29.334 -14.167 -41.001 -24.5s-20.834 -23 -27.501 -38
s-10 -31.5 -10 -49.5c0 -23.333 5.33301 -43.166 16 -59.499s24.167 -31.5 40.5 -45.5s34 -27.5 53 -40.5s36.667 -27.667 53 -44s29.833 -35 40.5 -56s16 -46.5 16 -76.5c0 -25.333 -4.5 -49.166 -13.5 -71.499s-21.5 -41.833 -37.5 -58.5s-35.333 -29.834 -58 -39.501
s-47.667 -14.834 -75 -15.501l-19 -98h-36l20 100c-30.667 5.33301 -58.334 16.666 -83.001 33.999s-44.667 35.666 -60 54.999l28 28c15.333 -21.333 35.333 -40.5 60 -57.5s53.334 -25.5 86.001 -25.5c20.667 0 40 3.5 58 10.5s33.667 16.667 47 29
s23.666 27.166 30.999 44.499s11 36.333 11 57c0 27.333 -5.33301 50.833 -16 70.5s-24.167 37.167 -40.5 52.5s-34 29.666 -53 42.999s-36.667 27.333 -53 42s-29.833 31.167 -40.5 49.5s-16 40.166 -16 65.499c0 23.333 4.16699 45 12.5 65s20 37.167 35 51.5
s32.833 25.666 53.5 33.999s43 12.833 67 13.5l21 98h36z" />
    <glyph glyph-name="percent" unicode="%" horiz-adv-x="768" 
d="M180 258c-19.333 0 -36.166 3.83301 -50.499 11.5s-26.166 18.167 -35.499 31.5s-16.333 29 -21 47s-7 37.333 -7 58c0 28.667 3.66699 58.667 11 90s18.5 60 33.5 86s33.333 47.5 55 64.5s47.167 25.5 76.5 25.5c19.333 0 36.166 -3.83301 50.499 -11.5
s26.166 -18.167 35.499 -31.5s16.333 -28.833 21 -46.5s7 -36.834 7 -57.501c0 -29.333 -3.66699 -59.666 -11 -90.999s-18.5 -60 -33.5 -86s-33.5 -47.5 -55.5 -64.5s-47.333 -25.5 -76 -25.5zM240 641c-22.667 0 -42.5 -7.5 -59.5 -22.5s-31.333 -34 -43 -57
s-20.334 -47.833 -26.001 -74.5s-8.5 -52 -8.5 -76c0 -34 6 -62.833 18 -86.5s32.333 -35.5 61 -35.5c22.667 0 42.5 7.5 59.5 22.5s31.333 34 43 57s20.334 48 26.001 75s8.5 52.167 8.5 75.5c0 34 -6 62.833 -18 86.5s-32.333 35.5 -61 35.5zM131 -12l490 684h36
l-490 -684h-36zM551 -12c-19.333 0 -36.166 3.83301 -50.499 11.5s-26.166 18.167 -35.499 31.5s-16.333 29 -21 47s-7 37.333 -7 58c0 28.667 3.66699 58.667 11 90s18.5 60 33.5 86s33.333 47.5 55 64.5s47.167 25.5 76.5 25.5c19.333 0 36.166 -3.83301 50.499 -11.5
s26.166 -18.167 35.499 -31.5s16.333 -28.833 21 -46.5s7 -36.834 7 -57.501c0 -29.333 -3.66699 -59.666 -11 -90.999s-18.5 -60 -33.5 -86s-33.5 -47.5 -55.5 -64.5s-47.333 -25.5 -76 -25.5zM611 371c-22.667 0 -42.5 -7.5 -59.5 -22.5s-31.333 -34 -43 -57
s-20.334 -47.833 -26.001 -74.5s-8.5 -52 -8.5 -76c0 -34 6 -62.833 18 -86.5s32.333 -35.5 61 -35.5c22.667 0 42.5 7.5 59.5 22.5s31.333 34 43 57s20.334 48 26.001 75s8.5 52.167 8.5 75.5c0 34 -6 62.833 -18 86.5s-32.333 35.5 -61 35.5z" />
    <glyph glyph-name="ampersand" unicode="&#x26;" horiz-adv-x="553" 
d="M58 143c0 -36 11.168 -64.999 33.501 -86.999s50.833 -33 85.5 -33c27.333 0 54.5 6.66699 81.5 20s52.5 30.666 76.5 51.999c-28 32 -53.833 68.333 -77.5 109s-42.834 82.667 -57.501 126c-19.333 -12.667 -37.5 -25.667 -54.5 -39s-32 -27.5 -45 -42.5
s-23.333 -31.167 -31 -48.5s-11.5 -36.333 -11.5 -57zM211.001 484.001c0 -15.333 1.16699 -31.165 3.5 -47.498s5.5 -32.833 9.5 -49.5c20.667 12.667 40.667 25.667 60 39s36.333 27.333 51 42s26.5 30.5 35.5 47.5s13.5 35.833 13.5 56.5
c0 16.667 -4.33301 31.667 -13 45s-23.334 20 -44.001 20c-16.667 0 -32.167 -3.83301 -46.5 -11.5s-26.666 -18.334 -36.999 -32.001s-18.333 -29.834 -24 -48.501s-8.5 -39 -8.5 -61zM547.001 344.002c-21.333 -46 -45.1699 -90.001 -71.5029 -132.001
s-55.5 -80 -87.5 -114c18 -17.333 35.5 -32.666 52.5 -45.999s33.833 -23.333 50.5 -30l-19 -34c-34.667 14 -72.667 41 -114 81c-28 -25.333 -57.833 -45.166 -89.5 -59.499s-65.167 -21.5 -100.5 -21.5c-22 0 -42.333 3.5 -61 10.5s-34.667 16.833 -48 29.5
s-23.833 28.167 -31.5 46.5s-11.5 38.833 -11.5 61.5c0 26.667 4.83301 51 14.5 73s22.667 42.167 39 60.5s34.833 35.333 55.5 51s42 30.5 64 44.5c-11.333 40 -17 78.333 -17 115c0 28.667 4.33301 54.667 13 78s20.334 43.333 35.001 60s31.5 29.667 50.5 39
s38.833 14 59.5 14c16 0 29.667 -2.5 41 -7.5s20.833 -11.833 28.5 -20.5s13.334 -18.5 17.001 -29.5s5.5 -22.833 5.5 -35.5c0 -26 -5.5 -49.5 -16.5 -70.5s-25.333 -40.5 -43 -58.5s-37.667 -34.833 -60 -50.5s-45.166 -30.834 -68.499 -45.501
c13.333 -42 31.333 -83 54 -123s48 -75.667 76 -107c30 30.667 56.333 64.5 79 101.5s44 76.833 64 119.5h40z" />
    <glyph glyph-name="quotesingle" unicode="'" horiz-adv-x="213" 
d="M156 600l13 72h41l-14 -72l-33 -136h-31z" />
    <glyph glyph-name="parenleft" unicode="(" horiz-adv-x="268" 
d="M126 -175c-16.667 43.333 -30.167 91.833 -40.5 145.5s-15.5 108.167 -15.5 163.5c0 58 5.33301 113 16 165s26 102.333 46 151s44.333 96 73 142s61 92 97 138l26 -17c-71.333 -87.333 -125.833 -179.333 -163.5 -276s-56.5 -200 -56.5 -310c0 -24.667 1 -50 3 -76
s4.83301 -51.667 8.5 -77s8.5 -49.833 14.5 -73.5s13 -45.5 21 -65.5l-29 -10v0z" />
    <glyph glyph-name="parenright" unicode=")" horiz-adv-x="270" 
d="M150 730c17.333 -42.667 31 -90.833 41 -144.5s15 -108.167 15 -163.5c0 -58.667 -5.33301 -114 -16 -166s-26 -102.333 -46 -151s-44.333 -96 -73 -142s-61 -92 -97 -138l-25 18c70.667 87.333 124.834 179.333 162.501 276s56.5 200 56.5 310c0 24.667 -1 50 -3 76
s-4.83301 51.667 -8.5 77s-8.33398 49.833 -14.001 73.5s-12.5 45.5 -20.5 65.5l28 9v0z" />
    <glyph glyph-name="asterisk" unicode="*" horiz-adv-x="382" 
d="M157 491l65 83l-83 45l11 25l93 -32l22 100l28 -2l-8 -101l96 14l5 -27l-98 -28l38 -92l-25 -15l-48 85l-76 -73z" />
    <glyph glyph-name="plus" unicode="+" 
d="M226 314h-178v34h179v200h36v-200h179v-34h-179v-206h-37v206z" />
    <glyph glyph-name="comma" unicode="," horiz-adv-x="213" 
d="M-33 -121c27.333 12 49.832 27.833 67.499 47.5s28.5 41.834 32.5 66.501h-5c-10.667 0 -19.334 3.16699 -26.001 9.5s-10 14.833 -10 25.5c0 11.333 4.16699 22.166 12.5 32.499s19.5 15.5 33.5 15.5c12.667 0 22.334 -4.5 29.001 -13.5s10 -20.833 10 -35.5
c0 -20 -3.5 -39.167 -10.5 -57.5s-16.5 -35.333 -28.5 -51s-26.167 -29.5 -42.5 -41.5s-34.166 -21.333 -53.499 -28z" />
    <glyph glyph-name="hyphen" unicode="-" horiz-adv-x="287" 
d="M43 269h210l-8 -37h-209z" />
    <glyph glyph-name="period" unicode="." horiz-adv-x="213" 
d="M55 -12c-10.667 0 -18.833 3.49902 -24.5 10.499s-8.5 15.167 -8.5 24.5c0 13.333 4.83301 25.5 14.5 36.5s21.167 16.5 34.5 16.5c10.667 0 18.5 -3.5 23.5 -10.5s7.5 -15.833 7.5 -26.5c0 -13.333 -4.5 -25.166 -13.5 -35.499s-20.167 -15.5 -33.5 -15.5z" />
    <glyph glyph-name="slash" unicode="/" horiz-adv-x="347" 
d="M397 710h36l-471 -870h-35z" />
    <glyph glyph-name="zero" unicode="0" 
d="M190 -12c-25.333 0 -47.165 5.83691 -65.498 17.5039s-33.333 27.167 -45 46.5s-20.334 41.666 -26.001 66.999s-8.5 51.666 -8.5 78.999c0 53.333 6.5 107 19.5 161s30.833 102.667 53.5 146s49.5 78.5 80.5 105.5s64.5 40.5 100.5 40.5c24.667 0 46 -6 64 -18
s33 -27.833 45 -47.5s20.833 -42.334 26.5 -68.001s8.5 -51.834 8.5 -78.501c0 -53.333 -6.33301 -106.833 -19 -160.5s-30.334 -102 -53.001 -145s-49.5 -78 -80.5 -105s-64.5 -40.5 -100.5 -40.5zM296.001 616.004c-30 0 -57.998 -13.3301 -83.998 -39.9971
s-48.333 -60.334 -67 -101.001s-33.334 -85.334 -44.001 -134.001s-16 -95 -16 -139c0 -23.333 2 -45.833 6 -67.5s10.333 -40.667 19 -57s19.667 -29.333 33 -39s29.333 -14.5 48 -14.5c20 0 39.167 6 57.5 18s35.333 28.333 51 49s29.834 44.667 42.501 72
s23.5 56.166 32.5 86.499s16 61.5 21 93.5s7.5 62.667 7.5 92c0 24 -2 47 -6 69s-10.333 41.167 -19 57.5s-19.834 29.5 -33.501 39.5s-29.834 15 -48.501 15z" />
    <glyph glyph-name="one" unicode="1" 
d="M38 36h143l108 535h-113l6 28c25.333 3.33301 49 8.5 71 15.5s41 15.167 57 24.5h34l-122 -603h137l-6 -36h-323z" />
    <glyph glyph-name="two" unicode="2" 
d="M-5 27l182.001 157.499c50.667 44.333 92.167 84 124.5 119s56 67.5 71 97.5s22.5 61.333 22.5 94c0 16.667 -2.33301 32.167 -7 46.5s-12 27 -22 38s-22.5 19.667 -37.5 26s-32.833 9.5 -53.5 9.5c-23.333 0 -47.5 -5.83301 -72.5 -17.5s-49.5 -29.5 -73.5 -53.5l-24 29
c28.667 24.667 56.834 43.834 84.501 57.501s57.5 20.5 89.5 20.5c51.333 0 90.333 -14.167 117 -42.5s40 -63.833 40 -106.5c0 -36.667 -7.33301 -71.167 -22 -103.5s-37.334 -66 -68.001 -101s-69.334 -73.333 -116.001 -115l-166 -145.5h310l-6 -37h-377z" />
    <glyph glyph-name="three" unicode="3" 
d="M24 118c8 -11.333 17.002 -22.498 27.002 -33.498s21.333 -21 34 -30s27 -16.333 43 -22s33.667 -8.5 53 -8.5c26 0 50 4 72 12s41 19.167 57 33.5s28.5 31.166 37.5 50.499s13.5 40.333 13.5 63c0 18.667 -3.83301 36.167 -11.5 52.5s-19.5 30.5 -35.5 42.5
s-36.833 21.333 -62.5 28s-56.5 10 -92.5 10l8 35c43.333 0 79.833 4.83301 109.5 14.5s53.5 21.834 71.5 36.501s31 31 39 49s12 35 12 51c0 33.333 -9.16699 60.5 -27.5 81.5s-47.5 31.5 -87.5 31.5c-22 0 -46.167 -5.16699 -72.5 -15.5s-48.5 -24.166 -66.5 -41.499
l-24 30c24 19.333 50.5 34.666 79.5 45.999s58.5 17 88.5 17c50.667 0 88.5 -12.833 113.5 -38.5s37.5 -59.834 37.5 -102.501c0 -41.333 -13.5 -78 -40.5 -110s-65.167 -54.333 -114.5 -67v-4c35.333 -10.667 63.666 -28 84.999 -52s32 -53.667 32 -89
c0 -30 -5.5 -57.167 -16.5 -81.5s-26.5 -45.333 -46.5 -63s-43.833 -31.334 -71.5 -41.001s-57.834 -14.5 -90.501 -14.5c-22.667 0 -43.334 3.33301 -62.001 10s-35.667 15.167 -51 25.5s-28.666 21.833 -39.999 34.5s-21 25 -29 37z" />
    <glyph glyph-name="four" unicode="4" 
d="M247 0l38 189h-277l4 26l365 424h38l-83 -414h89l-7 -36h-89l-38 -189h-40zM292 225l47 232.999c3.33301 16.667 7.5 35.334 12.5 56.001l15.5 63h-4c-13.333 -18 -26.833 -35.167 -40.5 -51.5l-38.5 -46.5l-217 -254h225z" />
    <glyph glyph-name="five" unicode="5" 
d="M27 116c6.66699 -10.667 14.332 -21.502 22.999 -32.502s18.834 -20.833 30.501 -29.5s25.5 -15.834 41.5 -21.501s35 -8.5 57 -8.5c24 0 47.167 4.83301 69.5 14.5s42 23.334 59 41.001s30.667 38.834 41 63.501s15.5 52 15.5 82c0 48 -12 83.5 -36 106.5
s-56 34.5 -96 34.5c-23.333 0 -43.333 -3 -60 -9s-35 -14.667 -55 -26l-22 17l80 291h275l-8 -36h-238l-62 -226c12.667 6.66699 27 12.334 43 17.001s34 7 54 7c48 0 87.667 -14 119 -42s47 -70 47 -126c0 -37.333 -6.33301 -71 -19 -101s-29.5 -55.667 -50.5 -77
s-45.5 -37.833 -73.5 -49.5s-57.333 -17.5 -88 -17.5c-23.333 0 -44.166 3.16699 -62.499 9.5s-34.833 14.5 -49.5 24.5s-27.334 21.167 -38.001 33.5s-19.667 24.833 -27 37.5z" />
    <glyph glyph-name="six" unicode="6" 
d="M252 344c-8.66699 0 -19 -1.33301 -31 -4s-25 -7.33398 -39 -14.001s-28.667 -15.834 -44 -27.501s-30 -26.5 -44 -44.5c-0.666992 -8.66699 -1.16699 -17.167 -1.5 -25.5s-0.5 -17.166 -0.5 -26.499c0 -26 2.83301 -50 8.5 -72s14 -40.833 25 -56.5s24.333 -28 40 -37
s33.5 -13.5 53.5 -13.5s39.333 5 58 15s35 23.333 49 40s25.167 35.834 33.5 57.501s12.5 44.5 12.5 68.5c0 42.667 -10 76.667 -30 102s-50 38 -90 38zM435 551c-12 21.333 -25.9951 37.3301 -41.9951 47.9971s-35.333 16 -58 16c-28.667 0 -55.834 -7.83301 -81.501 -23.5
s-48.834 -37.5 -69.501 -65.5s-38.334 -61.333 -53.001 -100s-25.334 -80.667 -32.001 -126c23.333 27.333 49.666 47.5 78.999 60.5s56 19.5 80 19.5c48.667 0 86.5 -15.333 113.5 -46s40.5 -70.667 40.5 -120c0 -31.333 -5.16699 -60.666 -15.5 -87.999
s-24.333 -51.333 -42 -72s-38.334 -36.834 -62.001 -48.501s-49.167 -17.5 -76.5 -17.5c-25.333 0 -48.166 5.33301 -68.499 16s-37.5 25.334 -51.5 44.001s-24.833 40.834 -32.5 66.501s-11.5 53.5 -11.5 83.5c0 64.667 7.33301 124.667 22 180s34.667 103.333 60 144
s55.5 72.334 90.5 95.001s72.833 34 113.5 34c32 0 58 -7.16699 78 -21.5s36.667 -32.833 50 -55.5z" />
    <glyph glyph-name="seven" unicode="7" 
d="M132 0c14 62.667 29.5 121 46.5 175s37.5 105.333 61.5 154s52.167 95.5 84.5 140.5s70.833 89.5 115.5 133.5h-328l8 36h378l-5 -28c-50 -48 -92.333 -95.667 -127 -143s-64 -95.833 -88 -145.5s-43.833 -101 -59.5 -154s-29.5 -109.167 -41.5 -168.5h-45v0z" />
    <glyph glyph-name="eight" unicode="8" 
d="M214 338c-20.667 -11.333 -39.501 -23.002 -56.501 -35.002s-31.667 -25.167 -44 -39.5s-22 -30.166 -29 -47.499s-10.5 -36.666 -10.5 -57.999c0 -22 4 -41.5 12 -58.5s18.5 -31.333 31.5 -43s28.167 -20.334 45.5 -26.001s35 -8.5 53 -8.5
c20 0 39.833 3.16699 59.5 9.5s37 15.833 52 28.5s27.167 27.834 36.5 45.501s14 38.167 14 61.5c0 22 -4.66699 41.167 -14 57.5s-21.666 31 -36.999 44s-32.833 25 -52.5 36zM298.999 333.998c14.667 8.66699 29.166 18.6689 43.499 30.002s27 24 38 38
s19.833 29.167 26.5 45.5s10 34.166 10 53.499c0 18.667 -3.16699 35.167 -9.5 49.5s-14.666 26.5 -24.999 36.5s-22.333 17.5 -36 22.5s-27.834 7.5 -42.501 7.5c-17.333 0 -34 -3 -50 -9s-30.167 -14.667 -42.5 -26s-22.166 -25 -29.499 -41s-11 -34.333 -11 -55
c0 -19.333 3 -36.5 9 -51.5s14.5 -28.333 25.5 -40s24.5 -22.334 40.5 -32.001s33.667 -19.167 53 -28.5zM33.998 154c0 25.333 4.33301 48.3301 13 68.9971s20.334 39.334 35.001 56.001s31.334 31.167 50.001 43.5s38 23.166 58 32.499v4
c-19.333 18 -33.833 36.5 -43.5 55.5s-14.5 41.833 -14.5 68.5s4.83301 50.334 14.5 71.001s22.5 38.167 38.5 52.5s34.5 25.333 55.5 33s43.167 11.5 66.5 11.5c19.333 0 38 -3 56 -9s33.833 -15.167 47.5 -27.5s24.667 -27.666 33 -45.999s12.5 -39.5 12.5 -63.5
c0 -22 -3.16699 -42.167 -9.5 -60.5s-15.333 -35 -27 -50s-25.334 -28.667 -41.001 -41s-32.5 -23.833 -50.5 -34.5v-4c8 -6 17.333 -13.5 28 -22.5s20.5 -19.5 29.5 -31.5s16.667 -25.333 23 -40s9.5 -30.667 9.5 -48c0 -28.667 -5.5 -54.5 -16.5 -77.5
s-25.667 -42.5 -44 -58.5s-39.833 -28.167 -64.5 -36.5s-50.667 -12.5 -78 -12.5c-23.333 0 -45.833 3.5 -67.5 10.5s-40.834 17.333 -57.501 31s-30.167 30.834 -40.5 51.501s-15.5 45 -15.5 73z" />
    <glyph glyph-name="nine" unicode="9" 
d="M237 295c8.66699 0 19.166 1.33398 31.499 4.00098s25.5 7.5 39.5 14.5s28.5 16.5 43.5 28.5s29.5 27 43.5 45c0.666992 8 1.16699 16.167 1.5 24.5s0.5 16.833 0.5 25.5c0 26 -2.83301 50 -8.5 72s-14 40.833 -25 56.5s-24.333 28 -40 37s-33.5 13.5 -53.5 13.5
s-39.333 -5 -58 -15s-35.167 -23.333 -49.5 -40s-25.666 -35.834 -33.999 -57.501s-12.5 -44.5 -12.5 -68.5c0 -42.667 10.167 -76.667 30.5 -102s50.5 -38 90.5 -38zM53.999 88.001c11.333 -21.333 24.9971 -37.3301 40.9971 -47.9971s35.333 -16 58 -16
c28 0 55 7.83301 81 23.5s49.5 37.5 70.5 65.5s38.833 61.333 53.5 100s25.334 80.667 32.001 126c-24 -27.333 -50.5 -47.5 -79.5 -60.5s-55.5 -19.5 -79.5 -19.5c-48.667 0 -86.667 15.333 -114 46s-41 70.667 -41 120c0 31.333 5.16699 60.833 15.5 88.5
s24.333 51.667 42 72s38.334 36.333 62.001 48s49.167 17.5 76.5 17.5c26 0 49.167 -5.16699 69.5 -15.5s37.5 -24.833 51.5 -43.5s24.833 -40.834 32.5 -66.501s11.5 -53.834 11.5 -84.501c0 -65.333 -7.33301 -125.5 -22 -180.5s-34.834 -102.833 -60.501 -143.5
s-56 -72.334 -91 -95.001s-72.833 -34 -113.5 -34c-31.333 0 -57.166 7.16699 -77.499 21.5s-37.166 32.833 -50.499 55.5z" />
    <glyph glyph-name="colon" unicode=":" horiz-adv-x="213" 
d="M123 378c-10.667 0 -18.833 3.49902 -24.5 10.499s-8.5 15.167 -8.5 24.5c0 13.333 4.83301 25.5 14.5 36.5s21.167 16.5 34.5 16.5c10.667 0 18.5 -3.5 23.5 -10.5s7.5 -15.833 7.5 -26.5c0 -13.333 -4.5 -25.166 -13.5 -35.499s-20.167 -15.5 -33.5 -15.5z
M55.001 -12.001c-10.667 0 -18.833 3.49902 -24.5 10.499s-8.5 15.167 -8.5 24.5c0 13.333 4.83301 25.5 14.5 36.5s21.167 16.5 34.5 16.5c10.667 0 18.5 -3.5 23.5 -10.5s7.5 -15.833 7.5 -26.5c0 -13.333 -4.5 -25.166 -13.5 -35.499s-20.167 -15.5 -33.5 -15.5z" />
    <glyph glyph-name="semicolon" unicode=";" horiz-adv-x="213" 
d="M123 378c-10.667 0 -18.833 3.49902 -24.5 10.499s-8.5 15.167 -8.5 24.5c0 13.333 4.83301 25.5 14.5 36.5s21.167 16.5 34.5 16.5c10.667 0 18.5 -3.5 23.5 -10.5s7.5 -15.833 7.5 -26.5c0 -13.333 -4.5 -25.166 -13.5 -35.499s-20.167 -15.5 -33.5 -15.5z
M-32.999 -121.001c27.333 12 49.832 27.833 67.499 47.5s28.5 41.834 32.5 66.501h-5c-10.667 0 -19.334 3.16699 -26.001 9.5s-10 14.833 -10 25.5c0 11.333 4.16699 22.166 12.5 32.499s19.5 15.5 33.5 15.5c12.667 0 22.334 -4.5 29.001 -13.5s10 -20.833 10 -35.5
c0 -20 -3.5 -39.167 -10.5 -57.5s-16.5 -35.333 -28.5 -51s-26.167 -29.5 -42.5 -41.5s-34.166 -21.333 -53.499 -28z" />
    <glyph glyph-name="less" unicode="&#x3c;" 
d="M46 348l396 162v-38l-223 -90l-123 -50v-4l123 -49l223 -90v-39l-396 162v36z" />
    <glyph glyph-name="equal" unicode="=" 
d="M48 414v34h394v-34h-394zM48 213v34h394v-34h-394z" />
    <glyph glyph-name="greater" unicode="&#x3e;" 
d="M48 189l223 90l123 49v4l-123 50l-223 90v38l396 -162v-36l-396 -162v39z" />
    <glyph glyph-name="question" unicode="?" horiz-adv-x="388" 
d="M130 -12c-10.667 0 -18.833 3.49902 -24.5 10.499s-8.5 15.167 -8.5 24.5c0 13.333 4.83301 25.5 14.5 36.5s21.167 16.5 34.5 16.5c10.667 0 18.5 -3.5 23.5 -10.5s7.5 -15.833 7.5 -26.5c0 -13.333 -4.5 -25.166 -13.5 -35.499s-20.167 -15.5 -33.5 -15.5z
M144.001 182.999c1.33301 28.667 7.33008 54.334 17.9971 77.001s23.834 43.5 39.501 62.5s32.334 36.833 50.001 53.5s34.167 33.5 49.5 50.5s28 34.833 38 53.5s15 39.667 15 63c0 32.667 -8.66699 58 -26 76s-41.333 27 -72 27c-22.667 0 -44.667 -5.5 -66 -16.5
s-39.666 -25.167 -54.999 -42.5l-25 27c17.333 18.667 39.166 34.667 65.499 48s54.5 20 84.5 20c42 0 75 -11.5 99 -34.5s36 -55.167 36 -96.5c0 -27.333 -5 -51.833 -15 -73.5s-22.667 -41.834 -38 -60.501s-32 -36.5 -50 -53.5s-35 -34.667 -51 -53s-29.667 -38 -41 -59
s-17.666 -44.833 -18.999 -71.5z" />
    <glyph glyph-name="at" unicode="@" horiz-adv-x="783" 
d="M560 85c18 0 35.835 5.66895 53.502 17.002s33.667 27.666 48 48.999s26 47.5 35 78.5s13.5 66.167 13.5 105.5c0 38.667 -5.16699 74.167 -15.5 106.5s-25.833 60.166 -46.5 83.499s-46.334 41.333 -77.001 54s-66.334 19 -107.001 19
c-48 0 -94.833 -10.833 -140.5 -32.5s-86.334 -51.667 -122.001 -90s-64.5 -83.5 -86.5 -135.5s-33 -108.333 -33 -169c0 -44.667 6.33301 -84.5 19 -119.5s30.5 -64.667 53.5 -89s50.167 -42.833 81.5 -55.5s65.666 -19 102.999 -19c28 0 53.833 3 77.5 9
s46.167 15.333 67.5 28l15 -28c-26.667 -15.333 -53.667 -26.166 -81 -32.499s-54.666 -9.5 -81.999 -9.5c-42 0 -80.667 7.16699 -116 21.5s-66 34.666 -92 60.999s-46.167 58.666 -60.5 96.999s-21.5 81.5 -21.5 129.5c0 66.667 11.833 128.667 35.5 186
s55.167 106.666 94.5 147.999s84.333 73.833 135 97.5s102.667 35.5 156 35.5c44.667 0 84.334 -7.16699 119.001 -21.5s63.834 -34.166 87.501 -59.499s41.667 -55.666 54 -90.999s18.5 -74.333 18.5 -117c0 -46 -5.5 -87 -16.5 -123s-25.5 -66.333 -43.5 -91
s-38.667 -43.5 -62 -56.5s-47 -19.5 -71 -19.5s-43.167 7 -57.5 21s-23.833 32.333 -28.5 55h-2c-16.667 -19.333 -34.334 -35.5 -53.001 -48.5s-39.334 -19.5 -62.001 -19.5c-14 0 -27.667 2.66699 -41 8s-25 13.5 -35 24.5s-18.167 24.667 -24.5 41
s-9.5 35.166 -9.5 56.499c0 28.667 5 56.834 15 84.501s23.667 52.5 41 74.5s37.5 39.667 60.5 53s47.833 20 74.5 20c16 0 30.333 -4.5 43 -13.5s23.334 -21.5 32.001 -37.5h2l13 43h31l-48 -213c-4 -16.667 -6 -32 -6 -46s2.16699 -26.167 6.5 -36.5s11 -18.5 20 -24.5
s20.833 -9 35.5 -9zM277.002 197.002c0 -36 7.66992 -62.165 23.0029 -78.498s33.666 -24.5 54.999 -24.5c17.333 0 34.666 5.66699 51.999 17s34.666 28.666 51.999 51.999l39 173c-11.333 20.667 -22.666 34.667 -33.999 42s-22.666 11 -33.999 11
c-22.667 0 -43.334 -6 -62.001 -18s-34.834 -27.333 -48.501 -46s-24.167 -39.334 -31.5 -62.001s-11 -44.667 -11 -66z" />
    <glyph glyph-name="A" unicode="A" horiz-adv-x="488" 
d="M370 264l-15.0029 127c-3.33301 36.667 -7.16602 73.5 -11.499 110.5s-8.16602 75.167 -11.499 114.5h-4c-19.333 -40 -38.666 -78 -57.999 -114l-60 -111l-68 -127h228zM373.997 229h-251l-123 -229h-48l363 659h47l81 -659h-43z" />
    <glyph glyph-name="B" unicode="B" horiz-adv-x="571" 
d="M170 659h162c62 0 109.667 -12.5 143 -37.5s50 -60.167 50 -105.5c0 -24 -4.66699 -45.667 -14 -65s-21.333 -36 -36 -50s-30.834 -25.167 -48.501 -33.5s-34.5 -13.833 -50.5 -16.5v-4c16 -4 31.5 -9.66699 46.5 -17s28.333 -16.666 40 -27.999
s20.834 -24.833 27.501 -40.5s10 -33.834 10 -54.501c0 -35.333 -6.5 -66 -19.5 -92s-31.167 -47.5 -54.5 -64.5s-51.333 -29.667 -84 -38s-68.667 -12.5 -108 -12.5h-195zM266 367c72.667 0 126.833 13.501 162.5 40.501s53.5 61.833 53.5 104.5
c0 35.333 -13.333 62.666 -40 81.999s-69 29 -127 29h-109l-52 -256h112zM218.999 36.001c36 0 68.667 3.00098 98 9.00098s54.5 15.667 75.5 29s37.167 30.666 48.5 51.999s17 47.333 17 78c0 37.333 -15.167 68 -45.5 92s-73.833 36 -130.5 36h-134l-60 -296h131z" />
    <glyph glyph-name="C" unicode="C" horiz-adv-x="540" 
d="M58 248c0 48.667 7.66797 98.165 23.001 148.498s37.333 95.833 66 136.5s63.667 73.834 105 99.501s88 38.5 140 38.5c37.333 0 68.5 -9.16699 93.5 -27.5s45.167 -40.166 60.5 -65.499l-32 -23c-13.333 22.667 -30 41.5 -50 56.5s-45 22.5 -75 22.5
c-45.333 0 -85.833 -12 -121.5 -36s-65.834 -54.5 -90.501 -91.5s-43.5 -77.833 -56.5 -122.5s-19.5 -88 -19.5 -130c0 -32.667 3.66699 -63 11 -91s18.5 -52.167 33.5 -72.5s34.167 -36.333 57.5 -48s51 -17.5 83 -17.5c30.667 0 58.334 5.66699 83.001 17s49 27 73 47
l23 -28c-27.333 -22.667 -55.5 -40.5 -84.5 -53.5s-62.167 -19.5 -99.5 -19.5s-69.833 6.5 -97.5 19.5s-50.834 31.167 -69.501 54.5s-32.667 50.833 -42 82.5s-14 66.167 -14 103.5z" />
    <glyph glyph-name="D" unicode="D" horiz-adv-x="577" 
d="M170 659l109.001 -0.00195312c45.333 0 85 -6.16699 119 -18.5s62.333 -29.666 85 -51.999s39.667 -49.166 51 -80.499s17 -66.333 17 -105c0 -57.333 -7.66699 -110.5 -23 -159.5s-37.833 -91.5 -67.5 -127.5s-66.334 -64.333 -110.001 -85s-94.167 -31 -151.5 -31h-160
zM200.001 35.998c48.667 0 92.168 9.66699 130.501 29s70.666 45.5 96.999 78.5s46.333 71.5 60 115.5s20.5 91 20.5 141c0 33.333 -4.83301 63.666 -14.5 90.999s-24 50.833 -43 70.5s-43 34.834 -72 45.501s-62.833 16 -101.5 16h-72l-117 -587h112z" />
    <glyph glyph-name="E" unicode="E" horiz-adv-x="489" 
d="M170 659h348l-8 -37h-305l-51 -254h258l-8 -37h-256l-60 -294h314l-8 -37h-355z" />
    <glyph glyph-name="F" unicode="F" horiz-adv-x="455" 
d="M170 659h348l-8 -37h-305l-53 -267h258l-8 -37h-256l-64 -318h-43z" />
    <glyph glyph-name="G" unicode="G" horiz-adv-x="575" 
d="M58 248c0 50 7.66309 100 22.9961 150s37.5 95.333 66.5 136s64.833 73.667 107.5 99s91.667 38 147 38c18.667 0 35.834 -2.5 51.501 -7.5s29.834 -11.833 42.501 -20.5s24 -18.5 34 -29.5s19 -22.833 27 -35.5l-32 -23c-13.333 22.667 -30.166 41.5 -50.499 56.5
s-45.5 22.5 -75.5 22.5c-47.333 0 -89.5 -12 -126.5 -36s-68.167 -54.5 -93.5 -91.5s-44.666 -77.833 -57.999 -122.5s-20 -88 -20 -130c0 -31.333 3.5 -61 10.5 -89s18.333 -52.333 34 -73s35.834 -37 60.501 -49s54.667 -18 90 -18c30 0 56.167 4.83301 78.5 14.5
s41.166 21.5 56.499 35.5l42 211h-152l8 36h193l-55 -268c-23.333 -20 -49.5 -36 -78.5 -48s-61.5 -18 -97.5 -18c-39.333 0 -73.5 6.33301 -102.5 19s-53.167 30.5 -72.5 53.5s-33.833 50.5 -43.5 82.5s-14.5 67 -14.5 105z" />
    <glyph glyph-name="H" unicode="H" horiz-adv-x="605" 
d="M170 659h43l-59 -291h340l59 291h43l-132 -659h-43l67 331h-340l-66 -331h-43z" />
    <glyph glyph-name="I" unicode="I" horiz-adv-x="227" 
d="M170 659h43l-131 -659h-43z" />
    <glyph glyph-name="J" unicode="J" horiz-adv-x="436" 
d="M334 172c-10 -56 -30.666 -100.667 -61.999 -134s-72 -50 -122 -50c-40 0 -72 9.5 -96 28.5s-41.667 43.5 -53 73.5l33 20c18 -56.667 57 -85 117 -85c38 0 68.667 13.833 92 41.5s39.666 64.5 48.999 110.5l96 482h43l-97 -487v0z" />
    <glyph glyph-name="K" unicode="K" horiz-adv-x="532" 
d="M170 659h43l-71 -358h2l378 358h51l-250 -243l151 -416h-45l-139 388l-160 -150l-48 -238h-43z" />
    <glyph glyph-name="L" unicode="L" horiz-adv-x="440" 
d="M170 659h43l-123 -622h293l-8 -37h-336z" />
    <glyph glyph-name="M" unicode="M" horiz-adv-x="684" 
d="M170 659l62 -0.000976562l64 -386l25 -146h4l75 146l214 386h61l-132 -659h-42l88 436l19.5 89.5c7 31.667 13.833 60.834 20.5 87.501h-4l-78 -143l-217 -396h-37l-69 396l-23 143h-4c-5.33301 -28 -10.333 -57.5 -15 -88.5s-9.66699 -60.5 -15 -88.5l-87 -436h-41z" />
    <glyph glyph-name="N" unicode="N" horiz-adv-x="605" 
d="M170 659h45.999l175 -468l46 -134h4c5.33301 32 10.333 64.333 15 97s10.334 65 17.001 97l81 408h43l-132 -659h-44l-173 466l-48 139h-4l-16 -97c-5.33301 -32 -11.333 -63.667 -18 -95l-81 -413h-42z" />
    <glyph glyph-name="O" unicode="O" horiz-adv-x="618" 
d="M277 -12c-36 0 -67.5 6.66699 -94.5 20s-49.5 32.166 -67.5 56.499s-31.5 53.333 -40.5 87s-13.5 70.5 -13.5 110.5c0 30.667 3.16699 62 9.5 94s15.666 63.167 27.999 93.5s27.5 58.833 45.5 85.5s38.667 50.167 62 70.5s49 36.333 77 48s58.333 17.5 91 17.5
c36 0 67.5 -6.66699 94.5 -20s49.5 -32.166 67.5 -56.499s31.5 -53.333 40.5 -87s13.5 -70.5 13.5 -110.5c0 -30.667 -3.16699 -62 -9.5 -94s-15.666 -63.167 -27.999 -93.5s-27.5 -58.833 -45.5 -85.5s-38.667 -50.167 -62 -70.5s-49 -36.333 -77 -48
s-58.333 -17.5 -91 -17.5zM371 634c-42 0 -79.501 -11.833 -112.501 -35.5s-60.833 -53.667 -83.5 -90s-40 -76 -52 -119s-18 -83.833 -18 -122.5c0 -36 3.33301 -68.833 10 -98.5s17.167 -55.167 31.5 -76.5s32.5 -37.833 54.5 -49.5s48.333 -17.5 79 -17.5
c42 0 79.667 11.833 113 35.5s61.333 53.667 84 90s40 76 52 119s18 83.833 18 122.5c0 36 -3.33301 68.833 -10 98.5s-17.167 55.167 -31.5 76.5s-32.666 37.833 -54.999 49.5s-48.833 17.5 -79.5 17.5z" />
    <glyph glyph-name="P" unicode="P" horiz-adv-x="531" 
d="M170 659l172.998 -0.00292969c60.667 0 108.5 -12.167 143.5 -36.5s52.5 -63.166 52.5 -116.499c0 -37.333 -6.66699 -69.666 -20 -96.999s-32.166 -50.166 -56.499 -68.499s-53.666 -32 -87.999 -41s-72.5 -13.5 -114.5 -13.5h-122l-56 -286h-43zM255.998 321.997
c79.333 0 139.168 15 179.501 45s60.5 75 60.5 135c0 43.333 -14.333 74.333 -43 93s-71.334 28 -128.001 28h-120l-59 -301h110z" />
    <glyph glyph-name="Q" unicode="Q" horiz-adv-x="618" 
d="M105 267c0 -36 3.33203 -68.833 9.99902 -98.5s17.167 -55.167 31.5 -76.5s32.5 -37.833 54.5 -49.5s48.333 -17.5 79 -17.5c42 0 79.667 11.833 113 35.5s61.333 53.667 84 90s40 76 52 119s18 83.833 18 122.5c0 36 -3.33301 68.833 -10 98.5
s-17.167 55.167 -31.5 76.5s-32.666 37.833 -54.999 49.5s-48.833 17.5 -79.5 17.5c-42 0 -79.5 -11.833 -112.5 -35.5s-60.833 -53.667 -83.5 -90s-40 -76 -52 -119s-18 -83.833 -18 -122.5zM500.999 -146c-18 -4.66699 -36.666 -6.99902 -55.999 -6.99902
c-48.667 0 -91.667 11.5 -129 34.5s-62.333 59.5 -75 109.5c-30 4 -56.333 13.5 -79 28.5s-41.5 34.333 -56.5 58s-26.167 51.167 -33.5 82.5s-11 65.333 -11 102c0 30.667 3.16699 62 9.5 94s15.666 63.167 27.999 93.5s27.5 58.833 45.5 85.5s38.667 50.167 62 70.5
s49 36.333 77 48s58.333 17.5 91 17.5c36 0 67.5 -6.66699 94.5 -20s49.5 -32.166 67.5 -56.499s31.5 -53.333 40.5 -87s13.5 -70.5 13.5 -110.5c0 -45.333 -7 -91.833 -21 -139.5s-34 -91.334 -60 -131.001s-58 -72.334 -96 -98.001s-81 -39.167 -129 -40.5
c10 -35.333 29.833 -61.333 59.5 -78s64.5 -25 104.5 -25c16 0 32 2 48 6z" />
    <glyph glyph-name="R" unicode="R" horiz-adv-x="531" 
d="M265 337c71.333 0 126.167 15.333 164.5 46s57.5 73 57.5 127c0 41.333 -14.167 70.5 -42.5 87.5s-70.833 25.5 -127.5 25.5h-112l-55 -286h115zM336.001 659c59.333 0 106.502 -11.334 141.502 -34.001s52.5 -59.667 52.5 -111c0 -30 -5.16699 -57 -15.5 -81
s-24.833 -45 -43.5 -63s-40.834 -32.667 -66.501 -44s-53.834 -18.666 -84.501 -21.999l125 -304h-48l-122 301h-133l-60 -301h-43l131 659h166z" />
    <glyph glyph-name="S" unicode="S" horiz-adv-x="493" 
d="M49 123c21.333 -31.333 46.8359 -55.502 76.5029 -72.502s65.167 -25.5 106.5 -25.5c24 0 46.167 3.66699 66.5 11s38 17.5 53 30.5s26.833 28.833 35.5 47.5s13 39.667 13 63c0 28 -7.83301 51.833 -23.5 71.5s-36.167 36.834 -61.5 51.501l-85 51
c-13.333 8 -26.333 17 -39 27s-23.667 21 -33 33s-16.833 25.5 -22.5 40.5s-8.5 31.5 -8.5 49.5c0 22.667 4.66699 44.167 14 64.5s22.333 38.333 39 54s36.667 28.167 60 37.5s49 14 77 14c40 0 75.167 -8.66699 105.5 -26s54.5 -38.333 72.5 -63l-30 -26
c-16.667 21.333 -37.834 39.666 -63.501 54.999s-55.834 23 -90.501 23c-21.333 0 -40.666 -3.83301 -57.999 -11.5s-32 -17.5 -44 -29.5s-21.333 -25.667 -28 -41s-10 -30.666 -10 -45.999c0 -30.667 8.66699 -55.167 26 -73.5s37.666 -34.166 60.999 -47.499l83 -48
c31.333 -18.667 56.333 -40 75 -64s28 -54.333 28 -91c0 -29.333 -5.5 -55.833 -16.5 -79.5s-26.167 -44 -45.5 -61s-42.333 -30.167 -69 -39.5s-55.334 -14 -86.001 -14c-46 0 -86.833 9.5 -122.5 28.5s-65.167 46.833 -88.5 83.5z" />
    <glyph glyph-name="T" unicode="T" horiz-adv-x="497" 
d="M300 620h-202l8 39h447l-8 -39h-202l-124 -620h-43z" />
    <glyph glyph-name="U" unicode="U" horiz-adv-x="600" 
d="M168 659l43.001 0.00195312l-77 -386c-4 -15.333 -6.66699 -29.666 -8 -42.999s-2 -26 -2 -38c0 -53.333 12.667 -94.5 38 -123.5s63.666 -43.5 114.999 -43.5c20.667 0 40.834 4 60.501 12s37.834 20.667 54.501 38s31.5 39.666 44.5 66.999s23.5 60.666 31.5 99.999
l83 417h43l-85 -423c-9.33301 -46 -22 -84.667 -38 -116s-34.167 -56.833 -54.5 -76.5s-42.833 -33.834 -67.5 -42.501s-50 -13 -76 -13c-60.667 0 -107.834 16.833 -141.501 50.5s-50.5 82.167 -50.5 145.5c0 13.333 0.666992 26.833 2 40.5s3.66602 28.5 6.99902 44.5z
" />
    <glyph glyph-name="V" unicode="V" horiz-adv-x="463" 
d="M83 659h41.999l34 -390l10.5 -109.5c3.66699 -37 6.83398 -74.167 9.50098 -111.5h4l55 111l56 110l203 390h44l-346 -659h-50z" />
    <glyph glyph-name="W" unicode="W" horiz-adv-x="734" 
d="M107 659h42.999l-2 -389c-1.33301 -36 -2 -72 -2 -108s-0.666992 -72 -2 -108h4l50 108l48 108l181 389h44l13 -389c2.66699 -72 4.66699 -144 6 -216h4l90 216l161 389h44l-281 -659h-54l-14 453c0 26 -0.166992 51.667 -0.5 77s-0.166016 51.333 0.500977 78h-4
c-10 -26.667 -20.833 -52.5 -32.5 -77.5l-34.5 -77.5l-209 -453h-54z" />
    <glyph glyph-name="X" unicode="X" horiz-adv-x="459" 
d="M222 343l-113 315.999h45l69 -200l14.5 -43l14.5 -44h3l69 92l143 195h46l-243 -322l123 -337h-45l-73 209c-6 16 -11.833 32.333 -17.5 49l-17.5 51h-2c-14 -17.333 -27.667 -35.166 -41 -53.499l-37 -52.5l-150 -203h-46z" />
    <glyph glyph-name="Y" unicode="Y" horiz-adv-x="433" 
d="M194 268l-109.002 391h44l55 -208c6.66699 -24 12.834 -47.5 18.501 -70.5s11.834 -46.833 18.501 -71.5h4l47.5 71l47.5 71l144 208h46l-273 -391l-54 -268h-43z" />
    <glyph glyph-name="Z" unicode="Z" horiz-adv-x="505" 
d="M7 26l465 596h-325l8 37h376l-5 -26l-463 -596h359l-8 -37h-413z" />
    <glyph glyph-name="bracketleft" unicode="[" horiz-adv-x="270" 
d="M173 -124l-7 -28h-151l172 860h151l-3 -28h-121l-160 -804h119z" />
    <glyph glyph-name="backslash" unicode="\" horiz-adv-x="347" 
d="M89 710h32l140 -870h-32z" />
    <glyph glyph-name="bracketright" unicode="]" horiz-adv-x="270" 
d="M65 -124l163 804h-121l5 28h153l-172 -860h-153l6 28h119z" />
    <glyph glyph-name="asciicircum" unicode="^" horiz-adv-x="464" 
d="M234 670h34l145 -382h-36l-76 203l-48 132h-2l-47 -132l-76 -203h-38z" />
    <glyph glyph-name="underscore" unicode="_" horiz-adv-x="484" 
d="M436 -81l-7 -34h-458l8 34h457z" />
    <glyph glyph-name="grave" unicode="`" horiz-adv-x="508" 
d="M273 706h46l59 -136h-32z" />
    <glyph glyph-name="a" unicode="a" horiz-adv-x="527" 
d="M44 161c0 46 7.33496 89.166 22.002 129.499s34.167 75.5 58.5 105.5s52.166 53.5 83.499 70.5s63.666 25.5 96.999 25.5c28 0 52.333 -7.16699 73 -21.5s37.667 -33.166 51 -56.499h3l19 66h34l-96 -480h-35l11 76h-4c-24.667 -25.333 -52 -46.333 -82 -63
s-61.667 -25 -95 -25c-42 0 -75.833 14.667 -101.5 44s-38.5 72.333 -38.5 129zM193.002 23.999c31.333 0 62.001 9.00098 92.001 27.001s59.333 43.667 88 77l50 241c-17.333 31.333 -35.833 53.666 -55.5 66.999s-40.834 20 -63.501 20
c-28.667 0 -56.167 -8.16699 -82.5 -24.5s-49.5 -38 -69.5 -65s-36 -57.667 -48 -92s-18 -69.5 -18 -105.5c0 -48.667 9.5 -85 28.5 -109s45.167 -36 78.5 -36z" />
    <glyph glyph-name="b" unicode="b" horiz-adv-x="526" 
d="M40 0l143.998 719.001h41l-42 -209l-21 -97h2c25.333 20.667 53 39 83 55s61.333 24 94 24c42.667 0 76.667 -14.667 102 -44s38 -72.333 38 -129c0 -46 -7.33301 -89.167 -22 -129.5s-34.167 -75.5 -58.5 -105.5s-52.166 -53.5 -83.499 -70.5s-63.333 -25.5 -96 -25.5
c-28.667 0 -53.167 7.16699 -73.5 21.5s-37.166 33.166 -50.499 56.499h-3l-19 -66h-35zM331.998 456.001c-26.667 0 -55.999 -8.33398 -87.999 -25.001s-61.667 -38 -89 -64l-52 -256c17.333 -31.333 35.666 -53.666 54.999 -66.999s40.333 -20 63 -20
c28.667 0 56.167 8.16699 82.5 24.5s49.666 38 69.999 65s36.5 57.833 48.5 92.5s18 70 18 106c0 48 -9.66699 84 -29 108s-45.666 36 -78.999 36z" />
    <glyph glyph-name="c" unicode="c" horiz-adv-x="430" 
d="M42 178c0 46.667 7.5 89.168 22.5 127.501s34.667 71.333 59 99s52 49.167 83 64.5s62.5 23 94.5 23c28 0 51.333 -5.33301 70 -16s35.667 -24.667 51 -42l-26 -28c-14.667 17.333 -29.167 30 -43.5 38s-32.5 12 -54.5 12c-27.333 0 -53.833 -7.33301 -79.5 -22
s-48.5 -34.334 -68.5 -59.001s-36 -53.5 -48 -86.5s-18 -67.833 -18 -104.5c0 -52 11 -91.667 33 -119s55.333 -41 100 -41c24 0 46.333 5 67 15s39.667 21.667 57 35l21 -30c-17.333 -13.333 -38.333 -26 -63 -38s-53.667 -18 -87 -18c-52 0 -93.333 16.5 -124 49.5
s-46 79.833 -46 140.5z" />
    <glyph glyph-name="d" unicode="d" horiz-adv-x="528" 
d="M451 510l42.001 209h41l-145 -719h-35l11 76h-4c-24.667 -25.333 -52 -46.333 -82 -63s-61.667 -25 -95 -25c-42 0 -75.833 14.667 -101.5 44s-38.5 72.333 -38.5 129c0 46 7.33301 89.167 22 129.5s34.167 75.5 58.5 105.5s52.166 53.5 83.499 70.5
s63.666 25.5 96.999 25.5c28 0 52.333 -7 73 -21s37.334 -32.667 50.001 -56h4zM193.001 24c31.333 0 62.001 9.00098 92.001 27.001s59.333 43.667 88 77l50 241c-17.333 31.333 -35.833 53.666 -55.5 66.999s-40.834 20 -63.501 20
c-28.667 0 -56.167 -8.16699 -82.5 -24.5s-49.5 -38 -69.5 -65s-36 -57.667 -48 -92s-18 -69.5 -18 -105.5c0 -48.667 9.5 -85 28.5 -109s45.167 -36 78.5 -36z" />
    <glyph glyph-name="e" unicode="e" horiz-adv-x="471" 
d="M42 186c0 45.333 7.33789 86.8311 22.0049 124.498s33.667 70 57 97s50 47.833 80 62.5s60.333 22 91 22c26 0 48.167 -4.16699 66.5 -12.5s33.166 -20 44.499 -35s19.666 -33 24.999 -54s8 -43.833 8 -68.5c0 -17.333 -1.33301 -33.333 -4 -48s-5.66699 -26.667 -9 -36
h-335c-6.66699 -38 -7.33398 -70.5 -2.00098 -97.5s14.666 -49.167 27.999 -66.5s30.166 -30.166 50.499 -38.499s42.5 -12.5 66.5 -12.5c21.333 0 42.333 4.66699 63 14s39.667 20.333 57 33l19 -30c-19.333 -14 -41.333 -26.167 -66 -36.5s-51 -15.5 -79 -15.5
c-56 0 -100.5 16.833 -133.5 50.5s-49.5 82.834 -49.5 147.501zM392.005 270.998c4 18.667 5.99902 37.668 5.99902 57.001c0 16 -1.83301 31.833 -5.5 47.5s-9.83398 29.5 -18.501 41.5s-20 21.667 -34 29s-31.333 11 -52 11c-21.333 0 -42.166 -4.5 -62.499 -13.5
s-39.166 -21.833 -56.499 -38.5s-32.5 -36.334 -45.5 -59.001s-22.833 -47.667 -29.5 -75h298z" />
    <glyph glyph-name="f" unicode="f" horiz-adv-x="256" 
d="M79 476l63.999 3.99902l22 110c10 48 26.5 83.5 49.5 106.5s50.5 34.5 82.5 34.5c16.667 0 30.834 -2.16699 42.501 -6.5s22.5 -9.5 32.5 -15.5l-18 -31c-7.33301 4.66699 -15.5 8.66699 -24.5 12s-19.833 5 -32.5 5c-24 0 -43.667 -10.167 -59 -30.5
s-26 -45.166 -32 -74.499l-22 -110h106l-8 -36h-106l-88 -444h-41l88 444h-62z" />
    <glyph glyph-name="g" unicode="g" horiz-adv-x="521" 
d="M479 480l-105.002 -521c-12 -59.333 -35.5 -105.833 -70.5 -139.5s-80.5 -50.5 -136.5 -50.5c-34.667 0 -65.167 6.66699 -91.5 20s-50.166 28.666 -71.499 45.999l23 30c18 -16.667 38.667 -30.834 62 -42.501s50 -17.5 80 -17.5c47.333 0 84.333 15.333 111 46
s45.667 71.667 57 123l24 108h-4c-24.667 -23.333 -51.5 -43.166 -80.5 -59.499s-60.167 -24.5 -93.5 -24.5c-41.333 0 -74.833 14.5 -100.5 43.5s-38.5 71.5 -38.5 127.5c0 44.667 7.33301 86.5 22 125.5s34 73.167 58 102.5s51.167 52.5 81.5 69.5s61.5 25.5 93.5 25.5
c28 0 52.333 -7.16699 73 -21.5s37.334 -33.166 50.001 -56.499h4l19 66h34zM190.998 35c26.667 0 55.8311 8.66504 87.498 25.998s61.167 41 88.5 71l50 237c-18.667 31.333 -37.5 53.666 -56.5 66.999s-39.833 20 -62.5 20c-27.333 0 -53.666 -8.16699 -78.999 -24.5
s-47.833 -37.666 -67.5 -63.999s-35.5 -56.166 -47.5 -89.499s-18 -67.333 -18 -102c0 -47.333 9.33301 -82.666 28 -105.999s44.334 -35 77.001 -35z" />
    <glyph glyph-name="h" unicode="h" horiz-adv-x="504" 
d="M184 719l41.001 -0.00195312l-54 -266l-13 -50h4c31.333 26 60.833 47.333 88.5 64s56.167 25 85.5 25c41.333 0 70.666 -10.667 87.999 -32s26 -49.666 26 -84.999c0 -12 -0.5 -22.333 -1.5 -31s-3.16699 -20 -6.5 -34l-62 -310h-41l62 304
c2.66699 14.667 4.66699 26.334 6 35.001s2 17.667 2 27c0 30 -6.66699 52.333 -20 67s-35.333 22 -66 22c-21.333 0 -46 -7.83301 -74 -23.5s-60 -41.5 -96 -77.5l-71 -354h-42z" />
    <glyph glyph-name="i" unicode="i" horiz-adv-x="220" 
d="M137 480h41l-96 -480h-42zM183 596c-9.33301 0 -17.166 3.16895 -23.499 9.50195s-9.5 14.166 -9.5 23.499c0 13.333 4.16699 24.166 12.5 32.499s18.166 12.5 29.499 12.5c9.33301 0 17.166 -3 23.499 -9s9.5 -14.333 9.5 -25c0 -12.667 -4.16699 -23.167 -12.5 -31.5
s-18.166 -12.5 -29.499 -12.5z" />
    <glyph glyph-name="j" unicode="j" horiz-adv-x="220" 
d="M64 -88c-9.33301 -44 -23.499 -78.5 -42.499 -103.5s-45.167 -37.5 -78.5 -37.5c-14.667 0 -26.667 1.5 -36 4.5s-18.333 6.83301 -27 11.5l16 33c6 -4 12.333 -7.16699 19 -9.5s16 -3.5 28 -3.5c20 0 36.167 9 48.5 27s22.166 42.333 29.499 73l116 573h41zM184.001 596
c-9.33301 0 -17.3311 3.16895 -23.998 9.50195s-10 14.166 -10 23.499c0 13.333 4.16699 24.166 12.5 32.499s18.166 12.5 29.499 12.5c9.33301 0 17.333 -3 24 -9s10 -14.333 10 -25c0 -12.667 -4.33301 -23.167 -13 -31.5s-18.334 -12.5 -29.001 -12.5z" />
    <glyph glyph-name="k" unicode="k" horiz-adv-x="447" 
d="M184 719h41l-105 -529h3l284 290h50l-188 -195l116 -285h-43l-104 258l-131 -133l-25 -125h-42z" />
    <glyph glyph-name="l" unicode="l" horiz-adv-x="232" 
d="M184 719l40.999 0.000976562l-131 -660c-1.33301 -5.33301 -2 -9.5 -2 -12.5v-7.5c0 -10 4.66699 -15 14 -15c2.66699 0 4.83398 0.166992 6.50098 0.5s5.16699 1.5 10.5 3.5l3 -33c-5.33301 -2.66699 -10.5 -4.5 -15.5 -5.5s-11.167 -1.5 -18.5 -1.5
c-13.333 0 -24 3.66699 -32 11s-12 18 -12 32c0 7.33301 1.66699 17.666 5 30.999z" />
    <glyph glyph-name="m" unicode="m" horiz-adv-x="782" 
d="M137 480l33.999 -0.00390625l-11 -76h4c27.333 25.333 55 46.333 83 63s53.667 25 77 25c20 0 36.833 -2.66699 50.5 -8s24.834 -12.5 33.501 -21.5s15.167 -19.667 19.5 -32s6.83301 -25.166 7.5 -38.499c33.333 32 65 56.667 95 74s56.667 26 80 26
c40 0 68.833 -10.667 86.5 -32s26.5 -49.666 26.5 -84.999c0 -12 -0.5 -22.333 -1.5 -31s-3.16699 -20 -6.5 -34l-62 -310h-42l62 304c3.33301 14.667 5.5 26.334 6.5 35.001s1.5 17.667 1.5 27c0 30 -6.5 52.333 -19.5 67s-34.167 22 -63.5 22
c-15.333 0 -37.333 -7.83301 -66 -23.5s-60 -41.5 -94 -77.5l-71 -354h-41l61 304c3.33301 14.667 5.5 26.334 6.5 35.001s1.5 17.667 1.5 27c0 30 -6.5 52.333 -19.5 67s-34.167 22 -63.5 22c-15.333 0 -37.333 -7.83301 -66 -23.5s-59.667 -41.5 -93 -77.5l-71 -354h-42z
" />
    <glyph glyph-name="n" unicode="n" horiz-adv-x="510" 
d="M137 480l34.001 -0.00195312l-11 -76h4c30 25.333 58.667 46.333 86 63s56 25 86 25c41.333 0 70.666 -10.667 87.999 -32s26 -49.666 26 -84.999c0 -12 -0.5 -22.333 -1.5 -31s-3.16699 -20 -6.5 -34l-62 -310h-41l62 304c2.66699 14.667 4.66699 26.334 6 35.001
s2 17.667 2 27c0 30 -6.66699 52.333 -20 67s-35.333 22 -66 22c-21.333 0 -46 -7.83301 -74 -23.5s-60 -41.5 -96 -77.5l-71 -354h-42z" />
    <glyph glyph-name="o" unicode="o" horiz-adv-x="504" 
d="M206 -12c-49.333 0 -88.667 16.5 -118 49.5s-44 79.833 -44 140.5c0 44.667 7 86.167 21 124.5s32.833 71.5 56.5 99.5s50.667 50 81 66s61.833 24 94.5 24c50 0 89.667 -16.5 119 -49.5s44 -79.833 44 -140.5c0 -44.667 -7.16699 -86.167 -21.5 -124.5
s-33.166 -71.5 -56.499 -99.5s-50.333 -50 -81 -66s-62.334 -24 -95.001 -24zM293.999 456c-26 0 -51.501 -7.33301 -76.501 -22s-47.333 -34.334 -67 -59.001s-35.5 -53.5 -47.5 -86.5s-18 -67.833 -18 -104.5c0 -52 10.833 -91.667 32.5 -119s52.5 -41 92.5 -41
c26 0 51.333 7.33301 76 22s46.834 34.334 66.501 59.001s35.5 53.5 47.5 86.5s18 68.167 18 105.5c0 52 -10.667 91.5 -32 118.5s-52 40.5 -92 40.5z" />
    <glyph glyph-name="p" unicode="p" horiz-adv-x="524" 
d="M71 -43l-32.999 -174h-41l140 697h34l-10 -68h4c25.333 21.333 52.666 40 81.999 56s60.666 24 93.999 24c42.667 0 76.667 -14.667 102 -44s38 -72.333 38 -129c0 -46 -7.33301 -89.167 -22 -129.5s-34.167 -75.5 -58.5 -105.5s-52.166 -53.5 -83.499 -70.5
s-63.333 -25.5 -96 -25.5c-28 0 -52.667 7.33301 -74 22s-39 33 -53 55h-2zM332.001 456c-26.667 0 -55.999 -8.33203 -87.999 -24.999s-61.667 -38.334 -89 -65.001l-52 -259c17.333 -30 35.666 -51.333 54.999 -64s40.333 -19 63 -19c28.667 0 56.167 8.16699 82.5 24.5
s49.666 38 69.999 65s36.5 57.833 48.5 92.5s18 70 18 106c0 48 -9.66699 84 -29 108s-45.666 36 -78.999 36z" />
    <glyph glyph-name="q" unicode="q" horiz-adv-x="527" 
d="M365 78l-1.99707 -0.00195312c-24.667 -25.333 -52.334 -46.666 -83.001 -63.999s-62.667 -26 -96 -26c-42 0 -75.833 14.667 -101.5 44s-38.5 72.333 -38.5 129c0 46 7.33301 89.167 22 129.5s34.167 75.5 58.5 105.5s52.166 53.5 83.499 70.5s63.666 25.5 96.999 25.5
c28 0 52.333 -7.16699 73 -21.5s37.667 -33.166 51 -56.499h3l19 66h34l-139 -697h-42l35 174zM193.003 23.998c26.667 0 56.168 9.00098 88.501 27.001s62.833 43.667 91.5 77l50 241c-17.333 31.333 -35.833 53.666 -55.5 66.999s-40.834 20 -63.501 20
c-28.667 0 -56.167 -8.16699 -82.5 -24.5s-49.5 -38 -69.5 -65s-36 -57.667 -48 -92s-18 -69.5 -18 -105.5c0 -48.667 9.5 -85 28.5 -109s45.167 -36 78.5 -36z" />
    <glyph glyph-name="r" unicode="r" horiz-adv-x="317" 
d="M137 480l33.999 -0.000976562l-15 -91h4c20 28.667 42.333 53 67 73s52.667 30 84 30c6.66699 0 13.5 -0.5 20.5 -1.5s14.5 -3.16699 22.5 -6.5l-16 -39c-4.66699 2 -9.83398 3.83301 -15.501 5.5s-13.167 2.5 -22.5 2.5c-25.333 0 -52.166 -11.667 -80.499 -35
s-53.166 -56.666 -74.499 -99.999l-63 -318h-42z" />
    <glyph glyph-name="s" unicode="s" horiz-adv-x="389" 
d="M28 99c13.333 -21.333 31.665 -39.3291 54.998 -53.9961s50.333 -22 81 -22c16.667 0 32.334 2.66699 47.001 8s27.667 12.666 39 21.999s20.333 20 27 32s10 25 10 39c0 9.33301 -1.33301 18.166 -4 26.499s-7.33398 16.5 -14.001 24.5s-16 16.167 -28 24.5
s-27.333 17.5 -46 27.5c-21.333 11.333 -39.5 22.166 -54.5 32.499s-27.167 20.666 -36.5 30.999s-16 20.833 -20 31.5s-6 22.334 -6 35.001c0 20 4 38.333 12 55s19 31 33 43s30.167 21.167 48.5 27.5s37.5 9.5 57.5 9.5c27.333 0 52.166 -5.33301 74.499 -16
s41.833 -24.667 58.5 -42l-27 -26c-13.333 13.333 -28.5 24.833 -45.5 34.5s-37.5 14.5 -61.5 14.5c-15.333 0 -29.666 -2.5 -42.999 -7.5s-25 -11.833 -35 -20.5s-17.833 -18.667 -23.5 -30s-8.5 -23.333 -8.5 -36c0 -11.333 2.5 -21.5 7.5 -30.5s11.5 -17.333 19.5 -25
s17.333 -14.667 28 -21l34 -19.5c26 -14 46.833 -27 62.5 -39s27.834 -23.333 36.501 -34s14.334 -21.167 17.001 -31.5s4 -20.833 4 -31.5c0 -22 -4.33301 -41.833 -13 -59.5s-20.5 -32.667 -35.5 -45s-32.667 -21.833 -53 -28.5s-42.5 -10 -66.5 -10
c-17.333 0 -34 2.5 -50 7.5s-31 11.833 -45 20.5s-26.667 18.167 -38 28.5s-20.333 21.166 -27 32.499z" />
    <glyph glyph-name="t" unicode="t" horiz-adv-x="299" 
d="M142 444l-75.002 -0.00195312l6 32l78 4l33 137h35l-28 -137h130l-8 -36h-130l-65 -315c-1.33301 -6 -2.33301 -12 -3 -18s-1 -12.667 -1 -20c0 -22 4.83301 -38.667 14.5 -50s27.5 -17 53.5 -17c11.333 0 21.833 1.83301 31.5 5.5s18.5 7.5 26.5 11.5l11 -31
c-9.33301 -5.33301 -20.666 -10.333 -33.999 -15s-27.666 -7 -42.999 -7c-18.667 0 -34.5 2.5 -47.5 7.5s-23.5 11.833 -31.5 20.5s-13.667 18.834 -17 30.501s-5 23.834 -5 36.501c0 9.33301 0.333008 17.5 1 24.5s1.66699 14.833 3 23.5z" />
    <glyph glyph-name="u" unicode="u" horiz-adv-x="518" 
d="M379 0l-34.002 -0.000976562l10 78h-4c-29.333 -25.333 -57.666 -46.666 -84.999 -63.999s-55.666 -26 -84.999 -26c-41.333 0 -70.833 10.833 -88.5 32.5s-26.5 49.834 -26.5 84.501c0 12 0.5 22.5 1.5 31.5s3.16699 20.167 6.5 33.5l62 310h41l-61 -304
c-3.33301 -14.667 -5.5 -26.334 -6.5 -35.001s-1.5 -17.667 -1.5 -27c0 -30 6.66699 -52.333 20 -67s35 -22 65 -22c21.333 0 46 8 74 24s60 41.667 96 77l71 354h41z" />
    <glyph glyph-name="v" unicode="v" horiz-adv-x="419" 
d="M58 480l41 -0.000976562l46 -303c4 -23.333 7.5 -47.166 10.5 -71.499s6.16699 -47.833 9.5 -70.5h4l37 71l38 71l163 303h43l-263 -480h-53z" />
    <glyph glyph-name="w" unicode="w" horiz-adv-x="683" 
d="M69 480l41.001 -0.000976562l24 -314c2 -22 3.83301 -43.833 5.5 -65.5s3.16699 -43.167 4.5 -64.5h4l29 64.5l29 65.5l144 314h50l22 -314c1.33301 -22 2.5 -43.833 3.5 -65.5s2.16699 -43.167 3.5 -64.5h4l28 64.5c9.33301 21.667 19.666 43.5 30.999 65.5l146 314h40
l-226 -480h-56l-20 299c-1.33301 23.333 -2.33301 47.333 -3 72s-2 48.334 -4 71.001h-4l-30.5 -71l-31.5 -72l-137 -299h-56z" />
    <glyph glyph-name="x" unicode="x" horiz-adv-x="393" 
d="M177 254l-95.001 226h43l50 -121c5.33301 -15.333 10.333 -29 15 -41s10 -25 16 -39h4l34.5 39.5c11.667 13 23.167 26.5 34.5 40.5l105 121h46l-203 -235l102 -245h-43l-51 130l-18.5 46c-6.33301 15.333 -13.166 30.333 -20.499 45h-4c-23.333 -29.333 -49 -59 -77 -89
l-114 -132h-48z" />
    <glyph glyph-name="y" unicode="y" horiz-adv-x="419" 
d="M-62 -174c10.667 -6 21.9961 -9.00098 33.9961 -9.00098c28.667 0 55.334 12.167 80.001 36.5s47 56.833 67 97.5l21 42l-81 487h41l47 -301l10.5 -72.5c3.66699 -25 6.83398 -48.5 9.50098 -70.5h4l36.5 71l38.5 72l162 301h42l-296 -539
c-10.667 -20 -22.167 -39.667 -34.5 -59s-26 -36.5 -41 -51.5s-31.5 -27 -49.5 -36s-38 -13.5 -60 -13.5c-5.33301 0 -12.166 0.833008 -20.499 2.5s-17.166 4.83398 -26.499 9.50098l16 33v0z" />
    <glyph glyph-name="z" unicode="z" horiz-adv-x="391" 
d="M-6 25l358 419h-245l8 36h298l-4 -25l-359 -419h282l-8 -36h-334z" />
    <glyph glyph-name="braceleft" unicode="{" horiz-adv-x="268" 
d="M48 -76c0 18 2.99805 39.834 8.99805 65.501s12.5 52 19.5 79l19.5 78c6 25 9 45.5 9 61.5c0 6.66699 -0.833008 13.167 -2.5 19.5s-5 12.166 -10 17.499s-12.167 9.66602 -21.5 12.999s-21.333 5 -36 5l7 30c17.333 0 31.833 2.5 43.5 7.5s21.167 11.333 28.5 19
s13 16.334 17 26.001s7 19.5 9 29.5c6 32 11.5 65.333 16.5 100s11.167 69 18.5 103c4.66699 25.333 10.5 46.333 17.5 63s15.5 30 25.5 40s21.833 17 35.5 21s29.834 6 48.501 6h35l-5 -28h-30c-30 0 -51.5 -8.83301 -64.5 -26.5s-23.167 -44.167 -30.5 -79.5
c-5.33301 -30 -10.333 -61.167 -15 -93.5s-10 -64.5 -16 -96.5c-6.66699 -30 -15.5 -53.667 -26.5 -71s-27.167 -29 -48.5 -35v-4c14.667 -6 24.334 -14 29.001 -24s7 -20.667 7 -32c0 -18 -2.83301 -40 -8.5 -66s-12 -52.5 -19 -79.5s-13.333 -53 -19 -78
s-8.5 -45.833 -8.5 -62.5c0 -18.667 4.33301 -32.667 13 -42s25 -14 49 -14h28l-7 -28h-34c-28.667 0 -49.667 5.66699 -63 17s-20 31 -20 59z" />
    <glyph glyph-name="bar" unicode="|" horiz-adv-x="217" 
d="M99 750h33v-1000h-33v1000z" />
    <glyph glyph-name="braceright" unicode="}" horiz-adv-x="270" 
d="M229 632c0 -18 -2.99805 -40.001 -8.99805 -66.001s-12.5 -52.667 -19.5 -80l-19.5 -78.5c-6 -25 -9 -45.5 -9 -61.5c0 -6 0.833008 -12.167 2.5 -18.5s5 -12 10 -17s12 -9.16699 21 -12.5s21.167 -5 36.5 -5l-8 -30c-17.333 0 -31.833 -2.5 -43.5 -7.5
s-21.167 -11.333 -28.5 -19s-13 -16.334 -17 -26.001s-7 -19.5 -9 -29.5c-6 -32 -11.333 -65.667 -16 -101s-10.667 -70 -18 -104c-5.33301 -25.333 -11.5 -46.166 -18.5 -62.499s-15.5 -29.333 -25.5 -39s-21.833 -16.5 -35.5 -20.5s-29.5 -6 -47.5 -6h-36l6 28h30
c30 0 51.5 8.5 64.5 25.5s22.833 43.167 29.5 78.5c6 30 11.333 61.167 16 93.5s10 64.5 16 96.5c6 30.667 14.667 54.834 26 72.501s27.666 29.5 48.999 35.5v4c-15.333 6 -25.333 14 -30 24s-7 20.667 -7 32c0 17.333 2.83301 38.833 8.5 64.5s12 52 19 79
s13.333 53 19 78s8.5 45.833 8.5 62.5c0 19.333 -4.16699 33.833 -12.5 43.5s-24.5 14.5 -48.5 14.5h-29l7 28h34c29.333 0 50.666 -6 63.999 -18s20 -31.333 20 -58z" />
    <glyph glyph-name="asciitilde" unicode="~" 
d="M49 312c14 28 30.167 48.5 48.5 61.5s37.166 19.5 56.499 19.5c18 0 34.667 -4.66699 50 -14s29.833 -19.666 43.5 -30.999s27 -21.666 40 -30.999s26.167 -14 39.5 -14c14.667 0 28.167 4.83301 40.5 14.5s24.5 25.834 36.5 48.501l27 -16
c-14 -28 -30.167 -48.5 -48.5 -61.5s-37.166 -19.5 -56.499 -19.5c-18 0 -34.667 4.66699 -50 14s-29.833 19.666 -43.5 30.999s-27 21.666 -40 30.999s-26.167 14 -39.5 14c-14.667 0 -28.167 -4.83301 -40.5 -14.5s-24.5 -25.834 -36.5 -48.501z" />
    <glyph glyph-name="uni00A0" unicode="&#xa0;" horiz-adv-x="189" 
 />
    <glyph glyph-name="exclamdown" unicode="&#xa1;" horiz-adv-x="253" 
d="M77 -120l-13 -72h-41l14 72l88 422h32zM176 492c10.667 0 18.833 -3.49902 24.5 -10.499s8.5 -15.167 8.5 -24.5c0 -12.667 -4.83301 -24.667 -14.5 -36s-21.167 -17 -34.5 -17c-10.667 0 -18.5 3.5 -23.5 10.5s-7.5 15.833 -7.5 26.5c0 13.333 4.5 25.166 13.5 35.499
s20.167 15.5 33.5 15.5z" />
    <glyph glyph-name="cent" unicode="&#xa2;" 
d="M304 524c-21.333 -2 -42.833 -9 -64.5 -21s-41.167 -27.833 -58.5 -47.5s-31.333 -43 -42 -70s-16 -56.833 -16 -89.5c0 -44.667 8.66699 -81 26 -109s43.333 -44.667 78 -50zM345 560c25.333 -3.33301 46.832 -11.002 64.499 -23.002s32.834 -25.667 45.501 -41l-28 -27
c-13.333 16 -26.5 28.667 -39.5 38s-29.5 15 -49.5 17l-77 -389c25.333 1.33301 48.5 6.83301 69.5 16.5s39.833 20.834 56.5 33.501l17 -32c-19.333 -12 -40.666 -23.667 -63.999 -35s-52 -17.666 -86 -18.999l-22 -110h-34l22 112
c-43.333 5.33301 -77.333 23.833 -102 55.5s-37 75.5 -37 131.5c0 40.667 6.83301 77.5 20.5 110.5s31.5 61.333 53.5 85s46.667 42 74 55s54.666 20.5 81.999 22.5l21 106h34z" />
    <glyph glyph-name="sterling" unicode="&#xa3;" 
d="M156 327c-1.33301 19.333 -2.83398 38.6689 -4.50098 58.002s-2.5 37.666 -2.5 54.999c0 33.333 4.5 63.166 13.5 89.499s21.833 48.5 38.5 66.5s36.334 31.833 59.001 41.5s48 14.5 76 14.5c32.667 0 59.5 -8.5 80.5 -25.5s37.5 -35.833 49.5 -56.5l-32 -23
c-11.333 19.333 -25.333 35.666 -42 48.999s-36.334 20 -59.001 20c-21.333 0 -40.666 -4.16699 -57.999 -12.5s-32.5 -20.166 -45.5 -35.499s-23 -33.5 -30 -54.5s-10.5 -44.5 -10.5 -70.5c0 -17.333 1 -36 3 -56s3.66699 -40 5 -60h161l-7 -34h-152v-16
c0 -51.333 -8.5 -95.833 -25.5 -133.5s-42.833 -71.834 -77.5 -102.501v-4h273l-6 -37h-356l5 24c50 26 87 60.833 111 104.5s36 90.834 36 141.501v11c0 4 -0.333008 8 -1 12h-95l8 30z" />
    <glyph glyph-name="currency" unicode="&#xa4;" 
d="M332 194c-17.333 -15.333 -36.667 -27.499 -58 -36.499s-43.333 -13.5 -66 -13.5c-44.667 0 -78.667 15.333 -102 46l-72 -63l-21 26l74 65c-4 10.667 -7.16699 22.167 -9.5 34.5s-3.5 26.166 -3.5 41.499c0 30.667 5.33301 59.5 16 86.5s25.667 50.833 45 71.5l-48 64
l27 22l47 -63c17.333 13.333 36 24 56 32s40.667 12 62 12s40.333 -3.83301 57 -11.5s31 -18.5 43 -32.5l74 65l21 -26l-76 -67c10 -21.333 15 -47.333 15 -78c0 -29.333 -5 -57 -15 -83s-23.667 -48.667 -41 -68l55 -73l-26 -21zM274.999 485.001
c-20 0 -39.667 -4.66699 -59 -14s-36.666 -22.333 -51.999 -39s-27.666 -36.167 -36.999 -58.5s-14 -46.5 -14 -72.5c0 -40 8.33301 -70.333 25 -91s41 -31 73 -31c20 0 39.667 4.66699 59 14s36.666 22.333 51.999 39s27.666 36.167 36.999 58.5s14 46.5 14 72.5
c0 40 -8.33301 70.333 -25 91s-41 31 -73 31z" />
    <glyph glyph-name="yen" unicode="&#xa5;" 
d="M153 639l52 -196l17 -67c6 -22.667 11.667 -46.667 17 -72h4l47 72l45 67l125 196h43l-226 -338h146l-7 -29h-160l-14 -75h160l-7 -30h-160l-33 -167h-41l33 167h-160l7 30h160l14 75h-161l7 29h146l-96 338h42z" />
    <glyph glyph-name="brokenbar" unicode="&#xa6;" horiz-adv-x="217" 
d="M99 750h33v-472h-33v472zM132 218v-468h-33v468h33z" />
    <glyph glyph-name="section" unicode="&#xa7;" horiz-adv-x="460" 
d="M288 174c28.667 11.333 50.665 24.8311 65.998 40.498s23 39.167 23 70.5c0 24 -6.66699 44.167 -20 60.5s-29.5 31 -48.5 44s-39 25.333 -60 37s-39.5 25.167 -55.5 40.5c-28.667 -11.333 -51.5 -26.166 -68.5 -44.499s-25.5 -42.5 -25.5 -72.5
c0 -24 6.83301 -43.833 20.5 -59.5s30.334 -29.5 50.001 -41.5s40.334 -23.667 62.001 -35s40.5 -24.666 56.5 -39.999zM402.998 584.998c-14.667 17.333 -31.665 31.8301 -50.998 43.4971s-40.333 17.5 -63 17.5c-12 0 -23.5 -2 -34.5 -6s-21 -10 -30 -18
s-16.167 -17.5 -21.5 -28.5s-8 -23.5 -8 -37.5c0 -18.667 5.5 -34.667 16.5 -48s24.667 -25.666 41 -36.999s34 -22.5 53 -33.5s36.667 -23.167 53 -36.5s30 -28.666 41 -45.999s16.5 -38.333 16.5 -63c0 -39.333 -9.33301 -69.5 -28 -90.5s-45.334 -38.5 -80.001 -52.5
c10.667 -17.333 16 -36.666 16 -57.999c0 -19.333 -3.83301 -37.5 -11.5 -54.5s-18 -31.667 -31 -44s-28.667 -22.166 -47 -29.499s-37.833 -11 -58.5 -11c-28.667 0 -56 6.16699 -82 18.5s-49.667 29.5 -71 51.5l26 29c17.333 -19.333 37.333 -34.833 60 -46.5
s46 -17.5 70 -17.5c14 0 27.5 2.5 40.5 7.5s24.167 11.667 33.5 20s16.833 18.5 22.5 30.5s8.5 25 8.5 39c0 20.667 -5.5 38 -16.5 52s-24.833 26.5 -41.5 37.5s-34.667 21.333 -54 31s-37.333 20.667 -54 33s-30.5 26.833 -41.5 43.5s-16.5 37.334 -16.5 62.001
c0 36.667 10.5 67.334 31.5 92.001s47.833 43.667 80.5 57c-5.33301 8 -9.5 16.667 -12.5 26s-4.5 19.666 -4.5 30.999c0 20.667 3.5 39.167 10.5 55.5s16.667 30.166 29 41.499s26.666 20 42.999 26s34.166 9 53.499 9c28.667 0 54.834 -6.83301 78.501 -20.5
s44.167 -29.834 61.5 -48.501z" />
    <glyph glyph-name="dieresis" unicode="&#xa8;" horiz-adv-x="508" 
d="M262 598c-9.33301 0 -16.666 2.66797 -21.999 8.00098s-8 12.666 -8 21.999c0 12.667 3.83301 23 11.5 31s16.167 12 25.5 12s16.666 -2.83301 21.999 -8.5s8 -13.5 8 -23.5c0 -11.333 -3.83301 -21 -11.5 -29s-16.167 -12 -25.5 -12zM413 598.001
c-9.33301 0 -16.666 2.66797 -21.999 8.00098s-8 12.666 -8 21.999c0 12.667 3.83301 23 11.5 31s16.167 12 25.5 12s16.666 -2.83301 21.999 -8.5s8 -13.5 8 -23.5c0 -11.333 -3.83301 -21 -11.5 -29s-16.167 -12 -25.5 -12z" />
    <glyph glyph-name="copyright" unicode="&#xa9;" horiz-adv-x="661" 
d="M183 273c0 36.667 6.16797 69.8301 18.501 99.4971s28.166 54.667 47.499 75s40.833 36 64.5 47s47.167 16.5 70.5 16.5s42.166 -4.66699 56.499 -14s27.166 -21.666 38.499 -36.999l-25 -22c-10 12.667 -20.5 22.5 -31.5 29.5s-25.167 10.5 -42.5 10.5
c-18 0 -36.667 -5 -56 -15s-36.666 -23.667 -51.999 -41s-28 -38.166 -38 -62.499s-15 -50.833 -15 -79.5c0 -41.333 9.83301 -72.166 29.5 -92.499s45.834 -30.5 78.501 -30.5c22 0 42 4.66699 60 14s35.667 20 53 32l17 -27c-20 -14.667 -40.167 -27 -60.5 -37
s-44.833 -15 -73.5 -15c-41.333 0 -75 12.333 -101 37s-39 62 -39 112zM298.001 -12.0039c-38.667 0 -73.834 6.66699 -105.501 20s-58.834 32.333 -81.501 57s-40.334 53.834 -53.001 87.501s-19 71.167 -19 112.5c0 47.333 8.33301 94.166 25 140.499
s40.5 87.666 71.5 123.999s68.5 65.833 112.5 88.5s93 34 147 34c38.667 0 73.834 -6.66699 105.501 -20s58.834 -32.166 81.501 -56.499s40.334 -53.5 53.001 -87.5s19 -71.333 19 -112c0 -47.333 -8.5 -94.166 -25.5 -140.499s-41 -87.833 -72 -124.5
s-68.333 -66.334 -112 -89.001s-92.5 -34 -146.5 -34zM393.001 623.996c-48.667 0 -93 -10.667 -133 -32s-74.167 -49 -102.5 -83s-50.166 -72 -65.499 -114s-23 -84 -23 -126c0 -38 5.5 -72.5 16.5 -103.5s26.5 -57.5 46.5 -79.5s44.167 -39 72.5 -51
s60.166 -18 95.499 -18c48.667 0 93 10.667 133 32s74.167 49 102.5 83s50.166 72 65.499 114s23 84 23 126c0 38 -5.5 72.5 -16.5 103.5s-26.5 57.5 -46.5 79.5s-44.167 39 -72.5 51s-60.166 18 -95.499 18z" />
    <glyph glyph-name="ordfeminine" unicode="&#xaa;" horiz-adv-x="348" 
d="M61 369c0 30 4.99902 58.166 14.999 84.499s23.167 49.333 39.5 69s35 35.167 56 46.5s42.833 17 65.5 17c16 0 30.833 -4 44.5 -12s25.167 -20.667 34.5 -38h4l12 42h27l-62 -318h-29l9 51h-4c-17.333 -18 -35.666 -32.333 -54.999 -43s-40.333 -16 -63 -16
c-28 0 -50.667 9.83301 -68 29.5s-26 48.834 -26 87.501zM161.999 282.999c18.667 0 38.666 6.50098 59.999 19.501s41 29.833 59 50.5l29 147c-11.333 21.333 -23.166 35.833 -35.499 43.5s-25.166 11.5 -38.499 11.5c-17.333 0 -34.5 -5.16699 -51.5 -15.5
s-32 -24 -45 -41s-23.5 -36.333 -31.5 -58s-12 -43.834 -12 -66.501c0 -32 6.16699 -55.167 18.5 -69.5s28.166 -21.5 47.499 -21.5z" />
    <glyph glyph-name="guillemotleft" unicode="&#xab;" horiz-adv-x="382" 
d="M40 236l7 40l158 154l19 -20l-146 -159l88 -164l-24 -15zM182 236l7 40l158 154l19 -20l-146 -159l88 -164l-24 -15z" />
    <glyph glyph-name="logicalnot" unicode="&#xac;" 
d="M48 348h394v-240h-37v206h-357v34z" />
    <glyph glyph-name="uni00AD" unicode="&#xad;" horiz-adv-x="287" 
d="M43 269h210l-8 -37h-209z" />
    <glyph glyph-name="registered" unicode="&#xae;" horiz-adv-x="384" 
d="M206 623l57 -0.000976562c19.333 0 34.333 -5 45 -15s16 -24.333 16 -43c0 -16 -4.83301 -29.667 -14.5 -41s-21.5 -19.666 -35.5 -24.999l29 -81h-31l-25 74h-38l-16 -74h-29zM240 517.999c16.667 0 29.833 3.83301 39.5 11.5s14.5 18.5 14.5 32.5
c0 10.667 -3 19.167 -9 25.5s-15.333 9.5 -28 9.5h-28l-14 -79h25zM223.999 329.999c-21.333 0 -41.498 3.83398 -60.498 11.501s-35.5 18.667 -49.5 33s-25.167 31.5 -33.5 51.5s-12.5 42.333 -12.5 67c0 27.333 5 53.833 15 79.5s23.667 48.5 41 68.5s37.833 36 61.5 48
s49.167 18 76.5 18c21.333 0 41.5 -4 60.5 -12s35.5 -19.167 49.5 -33.5s25.167 -31.666 33.5 -51.999s12.5 -42.5 12.5 -66.5c0 -28 -5 -54.833 -15 -80.5s-23.833 -48.334 -41.5 -68.001s-38.334 -35.334 -62.001 -47.001s-48.834 -17.5 -75.501 -17.5zM260.001 680
c-22.667 0 -43.833 -5.00098 -63.5 -15.001s-36.834 -23.333 -51.501 -40s-26.334 -36 -35.001 -58s-13 -45.333 -13 -70c0 -40.667 11.333 -74.334 34 -101.001s54.334 -40 95.001 -40c22 0 43 4.83301 63 14.5s37.333 22.834 52 39.501s26.334 36.167 35.001 58.5
s13 45.833 13 70.5c0 40.667 -11.5 74.334 -34.5 101.001s-54.5 40 -94.5 40z" />
    <glyph glyph-name="macron" unicode="&#xaf;" horiz-adv-x="508" 
d="M231 640h218l-5 -34h-219z" />
    <glyph glyph-name="degree" unicode="&#xb0;" horiz-adv-x="292" 
d="M201 450c-28 0 -51 9.33301 -69 28s-27 43 -27 73c0 18 3 35 9 51s14.333 30.167 25 42.5s23.167 22 37.5 29s29.833 10.5 46.5 10.5c28 0 51 -9.33301 69 -28s27 -43 27 -73c0 -18 -3 -35 -9 -51s-14.333 -30.167 -25 -42.5s-23.167 -22 -37.5 -29
s-29.833 -10.5 -46.5 -10.5zM221 655c-12.667 0 -24.165 -2.83301 -34.498 -8.5s-19.333 -13.334 -27 -23.001s-13.5 -20.5 -17.5 -32.5s-6 -24 -6 -36c0 -21.333 6 -39.333 18 -54s28.333 -22 49 -22c12.667 0 24.167 2.83301 34.5 8.5s19.166 13.334 26.499 23.001
s13 20.5 17 32.5s6 24 6 36c0 21.333 -5.83301 39.333 -17.5 54s-27.834 22 -48.501 22z" />
    <glyph glyph-name="plusminus" unicode="&#xb1;" 
d="M226 317h-178v35h179v196h36v-196h179v-35h-179v-202h-37v202zM48 0v35h394v-35h-394z" />
    <glyph glyph-name="two.sups" unicode="&#xb2;" horiz-adv-x="346" 
d="M98 468c44.667 32 82.5 60.332 113.5 84.999s56.167 47.334 75.5 68.001s33.5 40.334 42.5 59.001s13.5 38 13.5 58c0 23.333 -6 41.166 -18 53.499s-30.667 18.5 -56 18.5c-16 0 -32 -5 -48 -15s-30.667 -22.667 -44 -38l-22 23c15.333 16.667 33 31.167 53 43.5
s41.667 18.5 65 18.5c33.333 0 59.5 -9 78.5 -27s28.5 -42.333 28.5 -73c0 -22 -4.5 -43.333 -13.5 -64s-22.833 -41.5 -41.5 -62.5s-42.167 -43.333 -70.5 -67s-61.5 -49.5 -99.5 -77.5h190l-5 -31h-246z" />
    <glyph glyph-name="three.sups" unicode="&#xb3;" horiz-adv-x="346" 
d="M118 526c9.33301 -18.667 22.001 -34.5029 38.001 -47.5029s36.667 -19.5 62 -19.5c26 0 48.667 7.16699 68 21.5s29 35.5 29 63.5c0 22 -9.83301 41.333 -29.5 58s-49.5 25 -89.5 25l7 29c24.667 0 45.5 2.66699 62.5 8s31 12.166 42 20.499s19 17.833 24 28.5
s7.5 21.334 7.5 32.001c0 20 -6.33301 36 -19 48s-30.334 18 -53.001 18c-31.333 0 -62.333 -12.333 -93 -37l-17 27c34 27.333 72 41 114 41c30.667 0 55.667 -8.16699 75 -24.5s29 -39.5 29 -69.5c0 -24.667 -8.66699 -47 -26 -67s-41 -34.333 -71 -43
c25.333 -7.33301 44 -19.666 56 -36.999s18 -34.666 18 -51.999c0 -19.333 -3.66699 -36.5 -11 -51.5s-17.166 -27.667 -29.499 -38s-26.666 -18.166 -42.999 -23.499s-33.5 -8 -51.5 -8c-30.667 0 -56.834 8.16699 -78.501 24.5s-37.834 34.833 -48.501 55.5z" />
    <glyph glyph-name="acute" unicode="&#xb4;" horiz-adv-x="508" 
d="M387 706h50l-128 -136h-38z" />
    <glyph glyph-name="uni00B5" unicode="&#xb5;" horiz-adv-x="514" 
d="M113 176c-3.33301 -14.667 -5.5 -26.333 -6.5 -35s-1.5 -17.667 -1.5 -27c0 -30 6.66699 -52.333 20 -67s35 -22 65 -22c21.333 0 46 8 74 24s60 41.667 96 77l71 354h41l-96 -480h-35l11 78h-4c-28 -25.333 -55.333 -46.5 -82 -63.5s-54 -25.5 -82 -25.5
c-23.333 0 -43.833 4.83301 -61.5 14.5s-30.167 26.5 -37.5 50.5l-17 -96l-30 -156h-41l136 678h41z" />
    <glyph glyph-name="paragraph" unicode="&#xb6;" horiz-adv-x="492" 
d="M439 659h41l-148 -739h-41zM298 242c-30 0 -58.498 3.66797 -85.498 11.001s-50.667 18.166 -71 32.499s-36.5 32.333 -48.5 54s-18 46.5 -18 74.5c0 40.667 7.5 76.334 22.5 107.001s34.667 56.167 59 76.5s52.166 35.666 83.499 45.999s63.666 15.5 96.999 15.5h51
l-84 -417h-6z" />
    <glyph glyph-name="periodcentered" unicode="&#xb7;" horiz-adv-x="213" 
d="M114 286c-10.667 0 -18.833 3.49902 -24.5 10.499s-8.5 15.167 -8.5 24.5c0 13.333 4.83301 25.5 14.5 36.5s21.167 16.5 34.5 16.5c10.667 0 18.5 -3.5 23.5 -10.5s7.5 -15.833 7.5 -26.5c0 -13.333 -4.5 -25.166 -13.5 -35.499s-20.167 -15.5 -33.5 -15.5z" />
    <glyph glyph-name="cedilla" unicode="&#xb8;" horiz-adv-x="508" 
d="M200 2l34.001 0.00195312l-42 -60c12 -4 22.667 -10.333 32 -19s14 -20.667 14 -36c0 -14.667 -3.5 -27.5 -10.5 -38.5s-16.5 -20.333 -28.5 -28s-25.833 -14 -41.5 -19s-31.834 -8.5 -48.501 -10.5l-4 24c28 5.33301 51.167 13.166 69.5 23.499s27.5 24.5 27.5 42.5
c0 12 -4.5 21.167 -13.5 27.5s-23.167 12.166 -42.5 17.499z" />
    <glyph glyph-name="one.sups" unicode="&#xb9;" horiz-adv-x="344" 
d="M275 768h-90.999l5 25c25.333 4 45.666 8.66699 60.999 14s30.333 13 45 23h28l-77 -390h-36z" />
    <glyph glyph-name="ordmasculine" unicode="&#xba;" horiz-adv-x="342" 
d="M172 252c-34.667 0 -61.833 11 -81.5 33s-29.5 53 -29.5 93c0 31.333 5 59.833 15 85.5s23.167 47.5 39.5 65.5s35 32 56 42s42.167 15 63.5 15c34 0 60.833 -11 80.5 -33s29.5 -53 29.5 -93c0 -31.333 -5 -59.833 -15 -85.5s-23.167 -47.5 -39.5 -65.5
s-34.833 -32 -55.5 -42s-41.667 -15 -63 -15zM232.001 555c-18 0 -35.167 -4.66797 -51.5 -14.001s-30.833 -22 -43.5 -38s-22.834 -34.5 -30.501 -55.5s-11.5 -43.167 -11.5 -66.5c0 -31.333 6.83301 -55.666 20.5 -72.999s33.167 -26 58.5 -26
c18 0 35.167 4.66699 51.5 14s30.833 22 43.5 38s22.834 34.5 30.501 55.5s11.5 43.167 11.5 66.5c0 32 -6.83301 56.5 -20.5 73.5s-33.167 25.5 -58.5 25.5z" />
    <glyph glyph-name="guillemotright" unicode="&#xbb;" horiz-adv-x="382" 
d="M205 266l-8 -40l-157 -154l-19 20l146 159l-89 164l25 15zM347 266l-8 -40l-157 -154l-19 20l146 159l-89 164l25 15z" />
    <glyph glyph-name="onequarter" unicode="&#xbc;" horiz-adv-x="730" 
d="M218 598h-90.999l5 25c25.333 4 45.666 8.66699 60.999 14s30.333 13 45 23h28l-77 -390h-36zM120.001 -12l490 684h36l-490 -684h-36zM576.001 145l18 92l25 101h-4l-71 -82l-98 -111h130zM660.001 116h-57l-23 -116h-33l23 116h-171l4 22l224 252h31l-49 -245h58z" />
    <glyph glyph-name="onehalf" unicode="&#xbd;" horiz-adv-x="749" 
d="M214 598h-90.999l5 25c25.333 4 45.666 8.66699 60.999 14s30.333 13 45 23h28l-77 -390h-36zM92.001 -12l490 684h36l-490 -684h-36zM411.001 28c44.667 32 82.5 60.332 113.5 84.999s56.167 47.334 75.5 68.001s33.5 40.334 42.5 59.001s13.5 38 13.5 58
c0 23.333 -6 41.166 -18 53.499s-30.667 18.5 -56 18.5c-16 0 -32 -5 -48 -15s-30.667 -22.667 -44 -38l-22 23c15.333 16.667 33 31.167 53 43.5s41.667 18.5 65 18.5c33.333 0 59.5 -9 78.5 -27s28.5 -42.333 28.5 -73c0 -22 -4.5 -43.333 -13.5 -64
s-22.833 -41.5 -41.5 -62.5s-42.167 -43.333 -70.5 -67s-61.5 -49.5 -99.5 -77.5h190l-5 -31h-246z" />
    <glyph glyph-name="threequarters" unicode="&#xbe;" horiz-adv-x="749" 
d="M78 356c9.33301 -18.667 22.001 -34.5029 38.001 -47.5029s36.667 -19.5 62 -19.5c26 0 48.667 7.16699 68 21.5s29 35.5 29 63.5c0 22 -9.83301 41.333 -29.5 58s-49.5 25 -89.5 25l7 29c24.667 0 45.5 2.66699 62.5 8s31 12.166 42 20.499s19 17.833 24 28.5
s7.5 21.334 7.5 32.001c0 20 -6.33301 36 -19 48s-30.334 18 -53.001 18c-31.333 0 -62.333 -12.333 -93 -37l-17 27c34 27.333 72 41 114 41c30.667 0 55.667 -8.16699 75 -24.5s29 -39.5 29 -69.5c0 -24.667 -8.66699 -47 -26 -67s-41 -34.333 -71 -43
c25.333 -7.33301 44 -19.666 56 -36.999s18 -34.666 18 -51.999c0 -19.333 -3.66699 -36.5 -11 -51.5s-17.166 -27.667 -29.499 -38s-26.666 -18.166 -42.999 -23.499s-33.5 -8 -51.5 -8c-30.667 0 -56.834 8.16699 -78.501 24.5s-37.834 34.833 -48.501 55.5z
M160.001 -12.0029l490 684h36l-490 -684h-36zM597.001 144.997l18 92l25 101h-4l-71 -82l-98 -111h130zM681.001 115.997h-57l-23 -116h-33l23 116h-171l4 22l224 252h31l-49 -245h58z" />
    <glyph glyph-name="questiondown" unicode="&#xbf;" horiz-adv-x="388" 
d="M259 494c10.667 0 18.833 -3.49902 24.5 -10.499s8.5 -15.167 8.5 -24.5c0 -13.333 -4.83301 -25.5 -14.5 -36.5s-21.167 -16.5 -34.5 -16.5c-10.667 0 -18.5 3.5 -23.5 10.5s-7.5 15.833 -7.5 26.5c0 13.333 4.5 25.166 13.5 35.499s20.167 15.5 33.5 15.5z
M244.999 299.001c-1.33301 -28.667 -7.33105 -54.334 -17.998 -77.001s-23.834 -43.5 -39.501 -62.5s-32.334 -36.833 -50.001 -53.5s-34.167 -33.5 -49.5 -50.5s-28 -34.833 -38 -53.5s-15 -39.667 -15 -63c0 -32.667 8.66699 -58 26 -76s41.333 -27 72 -27
c22.667 0 44.667 5.5 66 16.5s40 25.167 56 42.5l24 -27c-17.333 -18.667 -39.166 -34.667 -65.499 -48s-54.5 -20 -84.5 -20c-42 0 -74.833 11.5 -98.5 34.5s-35.5 55.167 -35.5 96.5c0 27.333 5 51.833 15 73.5s22.667 41.834 38 60.501s32 36.5 50 53.5
s34.833 34.667 50.5 53s29.167 38 40.5 59s17.666 44.833 18.999 71.5z" />
    <glyph glyph-name="Agrave" unicode="&#xc0;" horiz-adv-x="488" 
d="M370 264l-15.0029 127c-3.33301 36.667 -7.16602 73.5 -11.499 110.5s-8.16602 75.167 -11.499 114.5h-4c-19.333 -40 -38.666 -78 -57.999 -114l-60 -111l-68 -127h228zM373.997 229h-251l-123 -229h-48l363 659h47l81 -659h-43zM248.997 813h46l76 -104h-36z" />
    <glyph glyph-name="Aacute" unicode="&#xc1;" horiz-adv-x="488" 
d="M370 264l-15.0029 127c-3.33301 36.667 -7.16602 73.5 -11.499 110.5s-8.16602 75.167 -11.499 114.5h-4c-19.333 -40 -38.666 -78 -57.999 -114l-60 -111l-68 -127h228zM373.997 229h-251l-123 -229h-48l363 659h47l81 -659h-43zM407.997 813h52l-122 -104h-39z" />
    <glyph glyph-name="Acircumflex" unicode="&#xc2;" horiz-adv-x="488" 
d="M370 264l-15.0029 127c-3.33301 36.667 -7.16602 73.5 -11.499 110.5s-8.16602 75.167 -11.499 114.5h-4c-19.333 -40 -38.666 -78 -57.999 -114l-60 -111l-68 -127h228zM373.997 229h-251l-123 -229h-48l363 659h47l81 -659h-43zM335.997 813h38l71 -104h-35l-56 74h-4
l-86 -74h-40z" />
    <glyph glyph-name="Atilde" unicode="&#xc3;" horiz-adv-x="488" 
d="M370 264l-15.0029 127c-3.33301 36.667 -7.16602 73.5 -11.499 110.5s-8.16602 75.167 -11.499 114.5h-4c-19.333 -40 -38.666 -78 -57.999 -114l-60 -111l-68 -127h228zM373.997 229h-251l-123 -229h-48l363 659h47l81 -659h-43zM209.997 716
c2 10.667 5.66699 21.5 11 32.5s11.833 20.667 19.5 29s16.167 15.166 25.5 20.499s19.333 8 30 8c11.333 0 21.166 -3.16699 29.499 -9.5s16 -13.166 23 -20.499s14 -14.166 21 -20.499s15.5 -9.5 25.5 -9.5c12 0 22.5 5.33301 31.5 16s16.167 24.667 21.5 42h28
c-2 -11.333 -5.66699 -22.333 -11 -33s-11.833 -20.167 -19.5 -28.5s-16.167 -15.166 -25.5 -20.499s-19.333 -8 -30 -8c-11.333 0 -21.166 3.16699 -29.499 9.5s-16 13.166 -23 20.499s-14 14.166 -21 20.499s-15.5 9.5 -25.5 9.5c-12 0 -22.333 -5.33301 -31 -16
s-15.667 -24.667 -21 -42h-29z" />
    <glyph glyph-name="Adieresis" unicode="&#xc4;" horiz-adv-x="488" 
d="M370 264l-15.0029 127c-3.33301 36.667 -7.16602 73.5 -11.499 110.5s-8.16602 75.167 -11.499 114.5h-4c-19.333 -40 -38.666 -78 -57.999 -114l-60 -111l-68 -127h228zM373.997 229h-251l-123 -229h-48l363 659h47l81 -659h-43zM265.997 723
c-9.33301 0 -16.666 2.66797 -21.999 8.00098s-8 12.666 -8 21.999c0 12 3.83301 22 11.5 30s16.167 12 25.5 12s16.666 -2.66699 21.999 -8s8 -13 8 -23c0 -11.333 -3.83301 -21 -11.5 -29s-16.167 -12 -25.5 -12zM416.997 723.001
c-9.33301 0 -16.666 2.66797 -21.999 8.00098s-8 12.666 -8 21.999c0 12 3.83301 22 11.5 30s16.167 12 25.5 12s16.666 -2.66699 21.999 -8s8 -13 8 -23c0 -11.333 -3.83301 -21 -11.5 -29s-16.167 -12 -25.5 -12z" />
    <glyph glyph-name="Aring" unicode="&#xc5;" horiz-adv-x="488" 
d="M370 264l-15.0029 127c-3.33301 36.667 -7.16602 73.5 -11.499 110.5s-8.16602 75.167 -11.499 114.5h-4c-19.333 -40 -38.666 -78 -57.999 -114l-60 -111l-68 -127h228zM373.997 229h-251l-123 -229h-48l363 659h47l81 -659h-43zM339.997 698
c-21.333 0 -39 6.16797 -53 18.501s-21 31.166 -21 56.499c0 12.667 2.33301 24.667 7 36s11.167 21.166 19.5 29.499s17.833 15 28.5 20s22 7.5 34 7.5c21.333 0 39 -6.33301 53 -19s21 -31.667 21 -57c0 -12.667 -2.33301 -24.667 -7 -36s-11.167 -21.166 -19.5 -29.499
s-17.833 -14.833 -28.5 -19.5s-22 -7 -34 -7zM352.997 840.001c-15.333 0 -28.833 -6.16699 -40.5 -18.5s-17.5 -27.5 -17.5 -45.5c0 -34.667 15.667 -52 47 -52c15.333 0 28.833 6 40.5 18s17.5 27.333 17.5 46c0 16 -4.16699 28.667 -12.5 38s-19.833 14 -34.5 14z" />
    <glyph glyph-name="AE" unicode="&#xc6;" horiz-adv-x="782" 
d="M469 622h-4l-83.5 -116.5l-83.5 -116.5l-98 -136h195zM511 622l-51 -254h245l-8 -37h-243l-60 -294h301l-8 -37h-342l43 217h-214l-156 -217h-50l481 659h361l-8 -37h-291z" />
    <glyph glyph-name="Ccedilla" unicode="&#xc7;" horiz-adv-x="540" 
d="M58 248c0 48.667 7.66797 98.165 23.001 148.498s37.333 95.833 66 136.5s63.667 73.834 105 99.501s88 38.5 140 38.5c37.333 0 68.5 -9.16699 93.5 -27.5s45.167 -40.166 60.5 -65.499l-32 -23c-13.333 22.667 -30 41.5 -50 56.5s-45 22.5 -75 22.5
c-45.333 0 -85.833 -12 -121.5 -36s-65.834 -54.5 -90.501 -91.5s-43.5 -77.833 -56.5 -122.5s-19.5 -88 -19.5 -130c0 -32.667 3.66699 -63 11 -91s18.5 -52.167 33.5 -72.5s34.167 -36.333 57.5 -48s51 -17.5 83 -17.5c30.667 0 58.334 5.66699 83.001 17s49 27 73 47
l23 -28c-27.333 -22.667 -55.5 -40.5 -84.5 -53.5s-62.167 -19.5 -99.5 -19.5s-69.833 6.5 -97.5 19.5s-50.834 31.167 -69.501 54.5s-32.667 50.833 -42 82.5s-14 66.167 -14 103.5zM261.001 1.99805l34.001 0.00195312l-42 -60c12 -4 22.667 -10.333 32 -19
s14 -20.667 14 -36c0 -14.667 -3.5 -27.5 -10.5 -38.5s-16.5 -20.333 -28.5 -28s-25.833 -14 -41.5 -19s-31.834 -8.5 -48.501 -10.5l-4 24c28 5.33301 51.167 13.166 69.5 23.499s27.5 24.5 27.5 42.5c0 12 -4.5 21.167 -13.5 27.5s-23.167 12.166 -42.5 17.499z" />
    <glyph glyph-name="Egrave" unicode="&#xc8;" horiz-adv-x="489" 
d="M170 659h348l-8 -37h-305l-51 -254h258l-8 -37h-256l-60 -294h314l-8 -37h-355zM265 813h46l76 -104h-36z" />
    <glyph glyph-name="Eacute" unicode="&#xc9;" horiz-adv-x="489" 
d="M170 659h348l-8 -37h-305l-51 -254h258l-8 -37h-256l-60 -294h314l-8 -37h-355zM424 813h52l-122 -104h-39z" />
    <glyph glyph-name="Ecircumflex" unicode="&#xca;" horiz-adv-x="489" 
d="M170 659h348l-8 -37h-305l-51 -254h258l-8 -37h-256l-60 -294h314l-8 -37h-355zM352 813h38l71 -104h-35l-56 74h-4l-86 -74h-40z" />
    <glyph glyph-name="Edieresis" unicode="&#xcb;" horiz-adv-x="489" 
d="M170 659h348l-8 -37h-305l-51 -254h258l-8 -37h-256l-60 -294h314l-8 -37h-355zM282 723c-9.33301 0 -16.666 2.66797 -21.999 8.00098s-8 12.666 -8 21.999c0 12 3.83301 22 11.5 30s16.167 12 25.5 12s16.666 -2.66699 21.999 -8s8 -13 8 -23
c0 -11.333 -3.83301 -21 -11.5 -29s-16.167 -12 -25.5 -12zM433 723.001c-9.33301 0 -16.666 2.66797 -21.999 8.00098s-8 12.666 -8 21.999c0 12 3.83301 22 11.5 30s16.167 12 25.5 12s16.666 -2.66699 21.999 -8s8 -13 8 -23c0 -11.333 -3.83301 -21 -11.5 -29
s-16.167 -12 -25.5 -12z" />
    <glyph glyph-name="Igrave" unicode="&#xcc;" horiz-adv-x="227" 
d="M170 659h43l-131 -659h-43zM108 813h46l76 -104h-36z" />
    <glyph glyph-name="Iacute" unicode="&#xcd;" horiz-adv-x="227" 
d="M170 659h43l-131 -659h-43zM267 813h52l-122 -104h-39z" />
    <glyph glyph-name="Icircumflex" unicode="&#xce;" horiz-adv-x="227" 
d="M170 659h43l-131 -659h-43zM195 813h38l71 -104h-35l-56 74h-4l-86 -74h-40z" />
    <glyph glyph-name="Idieresis" unicode="&#xcf;" horiz-adv-x="227" 
d="M170 659h43l-131 -659h-43zM125 723c-9.33301 0 -16.666 2.66797 -21.999 8.00098s-8 12.666 -8 21.999c0 12 3.83301 22 11.5 30s16.167 12 25.5 12s16.666 -2.66699 21.999 -8s8 -13 8 -23c0 -11.333 -3.83301 -21 -11.5 -29s-16.167 -12 -25.5 -12zM276 723.001
c-9.33301 0 -16.666 2.66797 -21.999 8.00098s-8 12.666 -8 21.999c0 12 3.83301 22 11.5 30s16.167 12 25.5 12s16.666 -2.66699 21.999 -8s8 -13 8 -23c0 -11.333 -3.83301 -21 -11.5 -29s-16.167 -12 -25.5 -12z" />
    <glyph glyph-name="Eth" unicode="&#xd0;" horiz-adv-x="595" 
d="M218 36c48.667 0 92.168 9.66699 130.501 29s70.666 45.5 96.999 78.5s46.333 71.5 60 115.5s20.5 91 20.5 141c0 33.333 -4.83301 63.666 -14.5 90.999s-24 50.833 -43 70.5s-43 34.834 -72 45.501s-62.833 16 -101.5 16h-72l-51 -258h164l-7 -31h-164l-59 -298h112z
M297.001 659c45.333 0 85.001 -6.16895 119.001 -18.502s62.333 -29.666 85 -51.999s39.667 -49.166 51 -80.499s17 -66.333 17 -105c0 -57.333 -7.66699 -110.5 -23 -159.5s-37.833 -91.5 -67.5 -127.5s-66.334 -64.333 -110.001 -85s-94.167 -31 -151.5 -31h-160l66 334
h-71l7 29l71 2l58 294h109z" />
    <glyph glyph-name="Ntilde" unicode="&#xd1;" horiz-adv-x="605" 
d="M170 659h45.999l175 -468l46 -134h4c5.33301 32 10.333 64.333 15 97s10.334 65 17.001 97l81 408h43l-132 -659h-44l-173 466l-48 139h-4l-16 -97c-5.33301 -32 -11.333 -63.667 -18 -95l-81 -413h-42zM261.999 716c2 10.667 5.66699 21.5 11 32.5
s11.833 20.667 19.5 29s16.167 15.166 25.5 20.499s19.333 8 30 8c11.333 0 21.166 -3.16699 29.499 -9.5s16 -13.166 23 -20.499s14 -14.166 21 -20.499s15.5 -9.5 25.5 -9.5c12 0 22.5 5.33301 31.5 16s16.167 24.667 21.5 42h28c-2 -11.333 -5.66699 -22.333 -11 -33
s-11.833 -20.167 -19.5 -28.5s-16.167 -15.166 -25.5 -20.499s-19.333 -8 -30 -8c-11.333 0 -21.166 3.16699 -29.499 9.5s-16 13.166 -23 20.499s-14 14.166 -21 20.499s-15.5 9.5 -25.5 9.5c-12 0 -22.333 -5.33301 -31 -16s-15.667 -24.667 -21 -42h-29z" />
    <glyph glyph-name="Ograve" unicode="&#xd2;" horiz-adv-x="618" 
d="M277 -12c-36 0 -67.5 6.66699 -94.5 20s-49.5 32.166 -67.5 56.499s-31.5 53.333 -40.5 87s-13.5 70.5 -13.5 110.5c0 30.667 3.16699 62 9.5 94s15.666 63.167 27.999 93.5s27.5 58.833 45.5 85.5s38.667 50.167 62 70.5s49 36.333 77 48s58.333 17.5 91 17.5
c36 0 67.5 -6.66699 94.5 -20s49.5 -32.166 67.5 -56.499s31.5 -53.333 40.5 -87s13.5 -70.5 13.5 -110.5c0 -30.667 -3.16699 -62 -9.5 -94s-15.666 -63.167 -27.999 -93.5s-27.5 -58.833 -45.5 -85.5s-38.667 -50.167 -62 -70.5s-49 -36.333 -77 -48
s-58.333 -17.5 -91 -17.5zM371 634c-42 0 -79.501 -11.833 -112.501 -35.5s-60.833 -53.667 -83.5 -90s-40 -76 -52 -119s-18 -83.833 -18 -122.5c0 -36 3.33301 -68.833 10 -98.5s17.167 -55.167 31.5 -76.5s32.5 -37.833 54.5 -49.5s48.333 -17.5 79 -17.5
c42 0 79.667 11.833 113 35.5s61.333 53.667 84 90s40 76 52 119s18 83.833 18 122.5c0 36 -3.33301 68.833 -10 98.5s-17.167 55.167 -31.5 76.5s-32.666 37.833 -54.999 49.5s-48.833 17.5 -79.5 17.5zM310.999 813h46l76 -104h-36z" />
    <glyph glyph-name="Oacute" unicode="&#xd3;" horiz-adv-x="618" 
d="M277 -12c-36 0 -67.5 6.66699 -94.5 20s-49.5 32.166 -67.5 56.499s-31.5 53.333 -40.5 87s-13.5 70.5 -13.5 110.5c0 30.667 3.16699 62 9.5 94s15.666 63.167 27.999 93.5s27.5 58.833 45.5 85.5s38.667 50.167 62 70.5s49 36.333 77 48s58.333 17.5 91 17.5
c36 0 67.5 -6.66699 94.5 -20s49.5 -32.166 67.5 -56.499s31.5 -53.333 40.5 -87s13.5 -70.5 13.5 -110.5c0 -30.667 -3.16699 -62 -9.5 -94s-15.666 -63.167 -27.999 -93.5s-27.5 -58.833 -45.5 -85.5s-38.667 -50.167 -62 -70.5s-49 -36.333 -77 -48
s-58.333 -17.5 -91 -17.5zM371 634c-42 0 -79.501 -11.833 -112.501 -35.5s-60.833 -53.667 -83.5 -90s-40 -76 -52 -119s-18 -83.833 -18 -122.5c0 -36 3.33301 -68.833 10 -98.5s17.167 -55.167 31.5 -76.5s32.5 -37.833 54.5 -49.5s48.333 -17.5 79 -17.5
c42 0 79.667 11.833 113 35.5s61.333 53.667 84 90s40 76 52 119s18 83.833 18 122.5c0 36 -3.33301 68.833 -10 98.5s-17.167 55.167 -31.5 76.5s-32.666 37.833 -54.999 49.5s-48.833 17.5 -79.5 17.5zM469.999 813h52l-122 -104h-39z" />
    <glyph glyph-name="Ocircumflex" unicode="&#xd4;" horiz-adv-x="618" 
d="M277 -12c-36 0 -67.5 6.66699 -94.5 20s-49.5 32.166 -67.5 56.499s-31.5 53.333 -40.5 87s-13.5 70.5 -13.5 110.5c0 30.667 3.16699 62 9.5 94s15.666 63.167 27.999 93.5s27.5 58.833 45.5 85.5s38.667 50.167 62 70.5s49 36.333 77 48s58.333 17.5 91 17.5
c36 0 67.5 -6.66699 94.5 -20s49.5 -32.166 67.5 -56.499s31.5 -53.333 40.5 -87s13.5 -70.5 13.5 -110.5c0 -30.667 -3.16699 -62 -9.5 -94s-15.666 -63.167 -27.999 -93.5s-27.5 -58.833 -45.5 -85.5s-38.667 -50.167 -62 -70.5s-49 -36.333 -77 -48
s-58.333 -17.5 -91 -17.5zM371 634c-42 0 -79.501 -11.833 -112.501 -35.5s-60.833 -53.667 -83.5 -90s-40 -76 -52 -119s-18 -83.833 -18 -122.5c0 -36 3.33301 -68.833 10 -98.5s17.167 -55.167 31.5 -76.5s32.5 -37.833 54.5 -49.5s48.333 -17.5 79 -17.5
c42 0 79.667 11.833 113 35.5s61.333 53.667 84 90s40 76 52 119s18 83.833 18 122.5c0 36 -3.33301 68.833 -10 98.5s-17.167 55.167 -31.5 76.5s-32.666 37.833 -54.999 49.5s-48.833 17.5 -79.5 17.5zM397.999 813h38l71 -104h-35l-56 74h-4l-86 -74h-40z" />
    <glyph glyph-name="Otilde" unicode="&#xd5;" horiz-adv-x="618" 
d="M277 -12c-36 0 -67.5 6.66699 -94.5 20s-49.5 32.166 -67.5 56.499s-31.5 53.333 -40.5 87s-13.5 70.5 -13.5 110.5c0 30.667 3.16699 62 9.5 94s15.666 63.167 27.999 93.5s27.5 58.833 45.5 85.5s38.667 50.167 62 70.5s49 36.333 77 48s58.333 17.5 91 17.5
c36 0 67.5 -6.66699 94.5 -20s49.5 -32.166 67.5 -56.499s31.5 -53.333 40.5 -87s13.5 -70.5 13.5 -110.5c0 -30.667 -3.16699 -62 -9.5 -94s-15.666 -63.167 -27.999 -93.5s-27.5 -58.833 -45.5 -85.5s-38.667 -50.167 -62 -70.5s-49 -36.333 -77 -48
s-58.333 -17.5 -91 -17.5zM371 634c-42 0 -79.501 -11.833 -112.501 -35.5s-60.833 -53.667 -83.5 -90s-40 -76 -52 -119s-18 -83.833 -18 -122.5c0 -36 3.33301 -68.833 10 -98.5s17.167 -55.167 31.5 -76.5s32.5 -37.833 54.5 -49.5s48.333 -17.5 79 -17.5
c42 0 79.667 11.833 113 35.5s61.333 53.667 84 90s40 76 52 119s18 83.833 18 122.5c0 36 -3.33301 68.833 -10 98.5s-17.167 55.167 -31.5 76.5s-32.666 37.833 -54.999 49.5s-48.833 17.5 -79.5 17.5zM271.999 716c2 10.667 5.66699 21.5 11 32.5s11.833 20.667 19.5 29
s16.167 15.166 25.5 20.499s19.333 8 30 8c11.333 0 21.166 -3.16699 29.499 -9.5s16 -13.166 23 -20.499s14 -14.166 21 -20.499s15.5 -9.5 25.5 -9.5c12 0 22.5 5.33301 31.5 16s16.167 24.667 21.5 42h28c-2 -11.333 -5.66699 -22.333 -11 -33
s-11.833 -20.167 -19.5 -28.5s-16.167 -15.166 -25.5 -20.499s-19.333 -8 -30 -8c-11.333 0 -21.166 3.16699 -29.499 9.5s-16 13.166 -23 20.499s-14 14.166 -21 20.499s-15.5 9.5 -25.5 9.5c-12 0 -22.333 -5.33301 -31 -16s-15.667 -24.667 -21 -42h-29z" />
    <glyph glyph-name="Odieresis" unicode="&#xd6;" horiz-adv-x="618" 
d="M277 -12c-36 0 -67.5 6.66699 -94.5 20s-49.5 32.166 -67.5 56.499s-31.5 53.333 -40.5 87s-13.5 70.5 -13.5 110.5c0 30.667 3.16699 62 9.5 94s15.666 63.167 27.999 93.5s27.5 58.833 45.5 85.5s38.667 50.167 62 70.5s49 36.333 77 48s58.333 17.5 91 17.5
c36 0 67.5 -6.66699 94.5 -20s49.5 -32.166 67.5 -56.499s31.5 -53.333 40.5 -87s13.5 -70.5 13.5 -110.5c0 -30.667 -3.16699 -62 -9.5 -94s-15.666 -63.167 -27.999 -93.5s-27.5 -58.833 -45.5 -85.5s-38.667 -50.167 -62 -70.5s-49 -36.333 -77 -48
s-58.333 -17.5 -91 -17.5zM371 634c-42 0 -79.501 -11.833 -112.501 -35.5s-60.833 -53.667 -83.5 -90s-40 -76 -52 -119s-18 -83.833 -18 -122.5c0 -36 3.33301 -68.833 10 -98.5s17.167 -55.167 31.5 -76.5s32.5 -37.833 54.5 -49.5s48.333 -17.5 79 -17.5
c42 0 79.667 11.833 113 35.5s61.333 53.667 84 90s40 76 52 119s18 83.833 18 122.5c0 36 -3.33301 68.833 -10 98.5s-17.167 55.167 -31.5 76.5s-32.666 37.833 -54.999 49.5s-48.833 17.5 -79.5 17.5zM327.999 723c-9.33301 0 -16.666 2.66797 -21.999 8.00098
s-8 12.666 -8 21.999c0 12 3.83301 22 11.5 30s16.167 12 25.5 12s16.666 -2.66699 21.999 -8s8 -13 8 -23c0 -11.333 -3.83301 -21 -11.5 -29s-16.167 -12 -25.5 -12zM478.999 723.001c-9.33301 0 -16.666 2.66797 -21.999 8.00098s-8 12.666 -8 21.999
c0 12 3.83301 22 11.5 30s16.167 12 25.5 12s16.666 -2.66699 21.999 -8s8 -13 8 -23c0 -11.333 -3.83301 -21 -11.5 -29s-16.167 -12 -25.5 -12z" />
    <glyph glyph-name="multiply" unicode="&#xd7;" 
d="M90 145l-24 24l155 163l-155 161l24 24l155 -161l155 161l24 -24l-155 -161l155 -163l-24 -24l-155 163z" />
    <glyph glyph-name="Oslash" unicode="&#xd8;" horiz-adv-x="618" 
d="M141 101c14 -24 32.5 -42.668 55.5 -56.001s50.833 -20 83.5 -20c42 0 79.667 11.833 113 35.5s61.333 53.667 84 90s40 76 52 119s18 83.833 18 122.5c0 25.333 -1.5 48.833 -4.5 70.5s-8.16699 41.834 -15.5 60.501zM513 553.999c-14 25.333 -32.667 45 -56 59
s-52 21 -86 21c-42 0 -79.5 -11.833 -112.5 -35.5s-60.833 -53.667 -83.5 -90s-40 -76 -52 -119s-18 -83.833 -18 -122.5c0 -51.333 7 -96 21 -134zM558 557.999c11.333 -22 19.499 -46.499 24.499 -73.499s7.5 -56.167 7.5 -87.5c0 -30.667 -3.16699 -62 -9.5 -94
s-15.666 -63.167 -27.999 -93.5s-27.5 -58.833 -45.5 -85.5s-38.667 -50.167 -62 -70.5s-49 -36.333 -77 -48s-58.333 -17.5 -91 -17.5c-37.333 0 -69.666 7.16699 -96.999 21.5s-50 34.166 -68 59.499l-85 -93l-26 22l93 101c-22 44 -33 98.333 -33 163
c0 30.667 3.16699 62 9.5 94s15.666 63.167 27.999 93.5s27.5 58.833 45.5 85.5s38.667 50.167 62 70.5s49 36.333 77 48s58.333 17.5 91 17.5c38.667 0 72 -7.5 100 -22.5s50.667 -35.833 68 -62.5l87 94l21 -22z" />
    <glyph glyph-name="Ugrave" unicode="&#xd9;" horiz-adv-x="600" 
d="M168 659l43.001 0.00195312l-77 -386c-4 -15.333 -6.66699 -29.666 -8 -42.999s-2 -26 -2 -38c0 -53.333 12.667 -94.5 38 -123.5s63.666 -43.5 114.999 -43.5c20.667 0 40.834 4 60.501 12s37.834 20.667 54.501 38s31.5 39.666 44.5 66.999s23.5 60.666 31.5 99.999
l83 417h43l-85 -423c-9.33301 -46 -22 -84.667 -38 -116s-34.167 -56.833 -54.5 -76.5s-42.833 -33.834 -67.5 -42.501s-50 -13 -76 -13c-60.667 0 -107.834 16.833 -141.501 50.5s-50.5 82.167 -50.5 145.5c0 13.333 0.666992 26.833 2 40.5s3.66602 28.5 6.99902 44.5z
M299.001 813.002h46l76 -104h-36z" />
    <glyph glyph-name="Uacute" unicode="&#xda;" horiz-adv-x="600" 
d="M168 659l43.001 0.00195312l-77 -386c-4 -15.333 -6.66699 -29.666 -8 -42.999s-2 -26 -2 -38c0 -53.333 12.667 -94.5 38 -123.5s63.666 -43.5 114.999 -43.5c20.667 0 40.834 4 60.501 12s37.834 20.667 54.501 38s31.5 39.666 44.5 66.999s23.5 60.666 31.5 99.999
l83 417h43l-85 -423c-9.33301 -46 -22 -84.667 -38 -116s-34.167 -56.833 -54.5 -76.5s-42.833 -33.834 -67.5 -42.501s-50 -13 -76 -13c-60.667 0 -107.834 16.833 -141.501 50.5s-50.5 82.167 -50.5 145.5c0 13.333 0.666992 26.833 2 40.5s3.66602 28.5 6.99902 44.5z
M458.001 813.002h52l-122 -104h-39z" />
    <glyph glyph-name="Ucircumflex" unicode="&#xdb;" horiz-adv-x="600" 
d="M168 659l43.001 0.00195312l-77 -386c-4 -15.333 -6.66699 -29.666 -8 -42.999s-2 -26 -2 -38c0 -53.333 12.667 -94.5 38 -123.5s63.666 -43.5 114.999 -43.5c20.667 0 40.834 4 60.501 12s37.834 20.667 54.501 38s31.5 39.666 44.5 66.999s23.5 60.666 31.5 99.999
l83 417h43l-85 -423c-9.33301 -46 -22 -84.667 -38 -116s-34.167 -56.833 -54.5 -76.5s-42.833 -33.834 -67.5 -42.501s-50 -13 -76 -13c-60.667 0 -107.834 16.833 -141.501 50.5s-50.5 82.167 -50.5 145.5c0 13.333 0.666992 26.833 2 40.5s3.66602 28.5 6.99902 44.5z
M386.001 813.002h38l71 -104h-35l-56 74h-4l-86 -74h-40z" />
    <glyph glyph-name="Udieresis" unicode="&#xdc;" horiz-adv-x="600" 
d="M168 659l43.001 0.00195312l-77 -386c-4 -15.333 -6.66699 -29.666 -8 -42.999s-2 -26 -2 -38c0 -53.333 12.667 -94.5 38 -123.5s63.666 -43.5 114.999 -43.5c20.667 0 40.834 4 60.501 12s37.834 20.667 54.501 38s31.5 39.666 44.5 66.999s23.5 60.666 31.5 99.999
l83 417h43l-85 -423c-9.33301 -46 -22 -84.667 -38 -116s-34.167 -56.833 -54.5 -76.5s-42.833 -33.834 -67.5 -42.501s-50 -13 -76 -13c-60.667 0 -107.834 16.833 -141.501 50.5s-50.5 82.167 -50.5 145.5c0 13.333 0.666992 26.833 2 40.5s3.66602 28.5 6.99902 44.5z
M316.001 723.002c-9.33301 0 -16.666 2.66797 -21.999 8.00098s-8 12.666 -8 21.999c0 12 3.83301 22 11.5 30s16.167 12 25.5 12s16.666 -2.66699 21.999 -8s8 -13 8 -23c0 -11.333 -3.83301 -21 -11.5 -29s-16.167 -12 -25.5 -12zM467.001 723.003
c-9.33301 0 -16.666 2.66797 -21.999 8.00098s-8 12.666 -8 21.999c0 12 3.83301 22 11.5 30s16.167 12 25.5 12s16.666 -2.66699 21.999 -8s8 -13 8 -23c0 -11.333 -3.83301 -21 -11.5 -29s-16.167 -12 -25.5 -12z" />
    <glyph glyph-name="Yacute" unicode="&#xdd;" horiz-adv-x="433" 
d="M194 268l-109.002 391h44l55 -208c6.66699 -24 12.834 -47.5 18.501 -70.5s11.834 -46.833 18.501 -71.5h4l47.5 71l47.5 71l144 208h46l-273 -391l-54 -268h-43zM365.998 813h52l-122 -104h-39z" />
    <glyph glyph-name="Thorn" unicode="&#xde;" horiz-adv-x="543" 
d="M170 660h42.998l-23 -122h130c60.667 0 108.167 -12 142.5 -36s51.5 -62.667 51.5 -116c0 -37.333 -6.66699 -69.833 -20 -97.5s-32.166 -50.667 -56.499 -69s-53.666 -32 -87.999 -41s-72.5 -13.5 -114.5 -13.5h-121l-33 -165h-42zM230.998 201
c79.333 0 139.167 15.168 179.5 45.501s60.5 75.166 60.5 134.499c0 44 -14.333 75.167 -43 93.5s-71 27.5 -127 27.5h-119l-60 -301h109z" />
    <glyph glyph-name="germandbls" unicode="&#xdf;" horiz-adv-x="524" 
d="M148 536c5.33301 26 13.6719 50.8311 25.0049 74.498s25 44.5 41 62.5s34.5 32.167 55.5 42.5s44.167 15.5 69.5 15.5c36 0 64.833 -10.167 86.5 -30.5s32.5 -50.5 32.5 -90.5c0 -22 -3.5 -41.333 -10.5 -58s-15.833 -31.667 -26.5 -45s-22.334 -25.5 -35.001 -36.5
s-24.334 -22.167 -35.001 -33.5s-19.5 -23 -26.5 -35s-10.5 -25.333 -10.5 -40c0 -15.333 3.83301 -28.666 11.5 -39.999s17.5 -21.833 29.5 -31.5s24.667 -19.334 38 -29.001s26 -20.334 38 -32.001s21.833 -25.167 29.5 -40.5s11.5 -33.666 11.5 -54.999
c0 -20 -3.83301 -38.833 -11.5 -56.5s-18.334 -33.167 -32.001 -46.5s-29.834 -23.833 -48.501 -31.5s-39.334 -11.5 -62.001 -11.5c-23.333 0 -47 4.5 -71 13.5s-45.667 22.167 -65 39.5l23 28c17.333 -14 35.166 -25.167 53.499 -33.5s38.5 -12.5 60.5 -12.5
c15.333 0 29.833 2.66699 43.5 8s25.667 12.5 36 21.5s18.5 19.833 24.5 32.5s9 26.667 9 42c0 18.667 -4 34.834 -12 48.501s-17.833 26.167 -29.5 37.5s-24.334 21.833 -38.001 31.5s-26.334 19.834 -38.001 30.501s-21.5 22.167 -29.5 34.5s-12 27.166 -12 44.499
c0 18.667 3.5 35.334 10.5 50.001s15.833 28 26.5 40s22.334 23.667 35.001 35s24.334 23.333 35.001 36s19.5 26.334 26.5 41.001s10.5 31.667 10.5 51c0 25.333 -6.16699 46.333 -18.5 63s-33.166 25 -62.499 25c-18.667 0 -36 -4.5 -52 -13.5s-30.5 -21.333 -43.5 -37
s-24.167 -33.834 -33.5 -54.501s-16.333 -42.667 -21 -66l-104 -524h-42z" />
    <glyph glyph-name="agrave" unicode="&#xe0;" horiz-adv-x="527" 
d="M44 161c0 46 7.33496 89.166 22.002 129.499s34.167 75.5 58.5 105.5s52.166 53.5 83.499 70.5s63.666 25.5 96.999 25.5c28 0 52.333 -7.16699 73 -21.5s37.667 -33.166 51 -56.499h3l19 66h34l-96 -480h-35l11 76h-4c-24.667 -25.333 -52 -46.333 -82 -63
s-61.667 -25 -95 -25c-42 0 -75.833 14.667 -101.5 44s-38.5 72.333 -38.5 129zM193.002 23.999c31.333 0 62.001 9.00098 92.001 27.001s59.333 43.667 88 77l50 241c-17.333 31.333 -35.833 53.666 -55.5 66.999s-40.834 20 -63.501 20
c-28.667 0 -56.167 -8.16699 -82.5 -24.5s-49.5 -38 -69.5 -65s-36 -57.667 -48 -92s-18 -69.5 -18 -105.5c0 -48.667 9.5 -85 28.5 -109s45.167 -36 78.5 -36zM268.003 706h46l59 -136h-32z" />
    <glyph glyph-name="aacute" unicode="&#xe1;" horiz-adv-x="527" 
d="M44 161c0 46 7.33496 89.166 22.002 129.499s34.167 75.5 58.5 105.5s52.166 53.5 83.499 70.5s63.666 25.5 96.999 25.5c28 0 52.333 -7.16699 73 -21.5s37.667 -33.166 51 -56.499h3l19 66h34l-96 -480h-35l11 76h-4c-24.667 -25.333 -52 -46.333 -82 -63
s-61.667 -25 -95 -25c-42 0 -75.833 14.667 -101.5 44s-38.5 72.333 -38.5 129zM193.002 23.999c31.333 0 62.001 9.00098 92.001 27.001s59.333 43.667 88 77l50 241c-17.333 31.333 -35.833 53.666 -55.5 66.999s-40.834 20 -63.501 20
c-28.667 0 -56.167 -8.16699 -82.5 -24.5s-49.5 -38 -69.5 -65s-36 -57.667 -48 -92s-18 -69.5 -18 -105.5c0 -48.667 9.5 -85 28.5 -109s45.167 -36 78.5 -36zM382.003 706h50l-128 -136h-38z" />
    <glyph glyph-name="acircumflex" unicode="&#xe2;" horiz-adv-x="527" 
d="M44 161c0 46 7.33496 89.166 22.002 129.499s34.167 75.5 58.5 105.5s52.166 53.5 83.499 70.5s63.666 25.5 96.999 25.5c28 0 52.333 -7.16699 73 -21.5s37.667 -33.166 51 -56.499h3l19 66h34l-96 -480h-35l11 76h-4c-24.667 -25.333 -52 -46.333 -82 -63
s-61.667 -25 -95 -25c-42 0 -75.833 14.667 -101.5 44s-38.5 72.333 -38.5 129zM193.002 23.999c31.333 0 62.001 9.00098 92.001 27.001s59.333 43.667 88 77l50 241c-17.333 31.333 -35.833 53.666 -55.5 66.999s-40.834 20 -63.501 20
c-28.667 0 -56.167 -8.16699 -82.5 -24.5s-49.5 -38 -69.5 -65s-36 -57.667 -48 -92s-18 -69.5 -18 -105.5c0 -48.667 9.5 -85 28.5 -109s45.167 -36 78.5 -36zM335.003 706h29l67 -136h-32l-53 98h-4l-93 -98h-36z" />
    <glyph glyph-name="atilde" unicode="&#xe3;" horiz-adv-x="527" 
d="M44 161c0 46 7.33496 89.166 22.002 129.499s34.167 75.5 58.5 105.5s52.166 53.5 83.499 70.5s63.666 25.5 96.999 25.5c28 0 52.333 -7.16699 73 -21.5s37.667 -33.166 51 -56.499h3l19 66h34l-96 -480h-35l11 76h-4c-24.667 -25.333 -52 -46.333 -82 -63
s-61.667 -25 -95 -25c-42 0 -75.833 14.667 -101.5 44s-38.5 72.333 -38.5 129zM193.002 23.999c31.333 0 62.001 9.00098 92.001 27.001s59.333 43.667 88 77l50 241c-17.333 31.333 -35.833 53.666 -55.5 66.999s-40.834 20 -63.501 20
c-28.667 0 -56.167 -8.16699 -82.5 -24.5s-49.5 -38 -69.5 -65s-36 -57.667 -48 -92s-18 -69.5 -18 -105.5c0 -48.667 9.5 -85 28.5 -109s45.167 -36 78.5 -36zM203.003 581c7.33301 23.333 17.666 43.833 30.999 61.5s29.666 26.5 48.999 26.5c14 0 25.333 -3 34 -9
s16.334 -12.667 23.001 -20s13.5 -14 20.5 -20s16.167 -9 27.5 -9c9.33301 0 18 5.33301 26 16s15 24 21 40h28c-6.66699 -22.667 -16.667 -43 -30 -61s-29.666 -27 -48.999 -27c-14 0 -25.333 3 -34 9s-16.5 12.833 -23.5 20.5s-14.167 14.5 -21.5 20.5s-16.333 9 -27 9
c-8.66699 0 -17 -5.5 -25 -16.5s-15.333 -24.5 -22 -40.5h-28z" />
    <glyph glyph-name="adieresis" unicode="&#xe4;" horiz-adv-x="527" 
d="M44 161c0 46 7.33496 89.166 22.002 129.499s34.167 75.5 58.5 105.5s52.166 53.5 83.499 70.5s63.666 25.5 96.999 25.5c28 0 52.333 -7.16699 73 -21.5s37.667 -33.166 51 -56.499h3l19 66h34l-96 -480h-35l11 76h-4c-24.667 -25.333 -52 -46.333 -82 -63
s-61.667 -25 -95 -25c-42 0 -75.833 14.667 -101.5 44s-38.5 72.333 -38.5 129zM193.002 23.999c31.333 0 62.001 9.00098 92.001 27.001s59.333 43.667 88 77l50 241c-17.333 31.333 -35.833 53.666 -55.5 66.999s-40.834 20 -63.501 20
c-28.667 0 -56.167 -8.16699 -82.5 -24.5s-49.5 -38 -69.5 -65s-36 -57.667 -48 -92s-18 -69.5 -18 -105.5c0 -48.667 9.5 -85 28.5 -109s45.167 -36 78.5 -36zM257.003 598c-9.33301 0 -16.666 2.66797 -21.999 8.00098s-8 12.666 -8 21.999c0 12.667 3.83301 23 11.5 31
s16.167 12 25.5 12s16.666 -2.83301 21.999 -8.5s8 -13.5 8 -23.5c0 -11.333 -3.83301 -21 -11.5 -29s-16.167 -12 -25.5 -12zM408.003 598.001c-9.33301 0 -16.666 2.66797 -21.999 8.00098s-8 12.666 -8 21.999c0 12.667 3.83301 23 11.5 31s16.167 12 25.5 12
s16.666 -2.83301 21.999 -8.5s8 -13.5 8 -23.5c0 -11.333 -3.83301 -21 -11.5 -29s-16.167 -12 -25.5 -12z" />
    <glyph glyph-name="aring" unicode="&#xe5;" horiz-adv-x="527" 
d="M44 161c0 46 7.33496 89.166 22.002 129.499s34.167 75.5 58.5 105.5s52.166 53.5 83.499 70.5s63.666 25.5 96.999 25.5c28 0 52.333 -7.16699 73 -21.5s37.667 -33.166 51 -56.499h3l19 66h34l-96 -480h-35l11 76h-4c-24.667 -25.333 -52 -46.333 -82 -63
s-61.667 -25 -95 -25c-42 0 -75.833 14.667 -101.5 44s-38.5 72.333 -38.5 129zM193.002 23.999c31.333 0 62.001 9.00098 92.001 27.001s59.333 43.667 88 77l50 241c-17.333 31.333 -35.833 53.666 -55.5 66.999s-40.834 20 -63.501 20
c-28.667 0 -56.167 -8.16699 -82.5 -24.5s-49.5 -38 -69.5 -65s-36 -57.667 -48 -92s-18 -69.5 -18 -105.5c0 -48.667 9.5 -85 28.5 -109s45.167 -36 78.5 -36zM325.003 535c-21.333 0 -39 6.66797 -53 20.001s-21 32.666 -21 57.999c0 12.667 2.33301 24.834 7 36.501
s11.167 22 19.5 31s18 16 29 21s22.5 7.5 34.5 7.5c21.333 0 38.833 -6.5 52.5 -19.5s20.5 -32.167 20.5 -57.5c0 -13.333 -2.33301 -25.833 -7 -37.5s-11.167 -21.834 -19.5 -30.501s-17.833 -15.667 -28.5 -21s-22 -8 -34 -8zM339.003 683.001
c-15.333 0 -28.833 -6.66797 -40.5 -20.001s-17.5 -29.333 -17.5 -48c0 -16 4 -29 12 -39s19.333 -15 34 -15c15.333 0 28.833 6.66699 40.5 20s17.5 29.333 17.5 48c0 16.667 -4 29.834 -12 39.501s-19.333 14.5 -34 14.5z" />
    <glyph glyph-name="ae" unicode="&#xe6;" horiz-adv-x="765" 
d="M38 103c0 33.333 7.83594 61.834 23.5029 85.501s37.667 43.167 66 58.5s62.666 26.833 102.999 34.5s85.166 12.5 134.499 14.5c2.66699 12 4.5 22.167 5.5 30.5s1.5 17.166 1.5 26.499c0 33.333 -7.16699 58.833 -21.5 76.5s-38.5 26.5 -72.5 26.5
c-22.667 0 -46.167 -4.33301 -70.5 -13s-48.166 -19.667 -71.499 -33l-15 32c23.333 13.333 49.166 25 77.499 35s56.5 15 84.5 15c36 0 64.833 -9.16699 86.5 -27.5s34.167 -46.5 37.5 -84.5c23.333 34.667 50.5 62 81.5 82s63.167 30 96.5 30
c26 0 48.167 -4.16699 66.5 -12.5s33.166 -20 44.499 -35s19.666 -33 24.999 -54s8 -43.833 8 -68.5c0 -17.333 -1.33301 -33.333 -4 -48s-5.66699 -26.667 -9 -36h-321c-6 -31.333 -7.16699 -60.166 -3.5 -86.499s11.167 -49 22.5 -68s26.333 -33.833 45 -44.5
s40 -16 64 -16c22 0 43.5 4.66699 64.5 14s40.167 20.333 57.5 33l18 -30c-19.333 -14 -41.333 -26.167 -66 -36.5s-51 -15.5 -79 -15.5c-35.333 0 -66.666 10 -93.999 30s-46.333 45 -57 75c-34 -33.333 -68.333 -59.166 -103 -77.499s-70 -27.5 -106 -27.5
c-16 0 -31.333 2.5 -46 7.5s-27.5 12.167 -38.5 21.5s-19.667 21.166 -26 35.499s-9.5 31.166 -9.5 50.499zM685.003 271.001c4 18.667 6.00195 37.668 6.00195 57.001c0 16 -1.83301 31.833 -5.5 47.5s-9.83398 29.5 -18.501 41.5s-20 21.667 -34 29s-31.333 11 -52 11
c-18 0 -36.333 -4.5 -55 -13.5s-36.167 -21.833 -52.5 -38.5s-30.833 -36.334 -43.5 -59.001s-22.334 -47.667 -29.001 -75h284zM359.005 263.002c-42 -1.33301 -80.3359 -5.16602 -115.003 -11.499s-64.167 -15.833 -88.5 -28.5s-43.166 -28.167 -56.499 -46.5
s-20 -39.833 -20 -64.5c0 -29.333 8.66699 -51.333 26 -66s39 -22 65 -22c24.667 0 53.334 8.16699 86.001 24.5s66 42.166 100 77.499c-4 26 -5.66699 49 -5 69s3.33398 42.667 8.00098 68z" />
    <glyph glyph-name="ccedilla" unicode="&#xe7;" horiz-adv-x="430" 
d="M42 178c0 46.667 7.5 89.168 22.5 127.501s34.667 71.333 59 99s52 49.167 83 64.5s62.5 23 94.5 23c28 0 51.333 -5.33301 70 -16s35.667 -24.667 51 -42l-26 -28c-14.667 17.333 -29.167 30 -43.5 38s-32.5 12 -54.5 12c-27.333 0 -53.833 -7.33301 -79.5 -22
s-48.5 -34.334 -68.5 -59.001s-36 -53.5 -48 -86.5s-18 -67.833 -18 -104.5c0 -52 11 -91.667 33 -119s55.333 -41 100 -41c24 0 46.333 5 67 15s39.667 21.667 57 35l21 -30c-17.333 -13.333 -38.333 -26 -63 -38s-53.667 -18 -87 -18c-52 0 -93.333 16.5 -124 49.5
s-46 79.833 -46 140.5zM190 2.00098l34.001 0.00195312l-42 -60c12 -4 22.667 -10.333 32 -19s14 -20.667 14 -36c0 -14.667 -3.5 -27.5 -10.5 -38.5s-16.5 -20.333 -28.5 -28s-25.833 -14 -41.5 -19s-31.834 -8.5 -48.501 -10.5l-4 24
c28 5.33301 51.167 13.166 69.5 23.499s27.5 24.5 27.5 42.5c0 12 -4.5 21.167 -13.5 27.5s-23.167 12.166 -42.5 17.499z" />
    <glyph glyph-name="egrave" unicode="&#xe8;" horiz-adv-x="471" 
d="M42 186c0 45.333 7.33789 86.8311 22.0049 124.498s33.667 70 57 97s50 47.833 80 62.5s60.333 22 91 22c26 0 48.167 -4.16699 66.5 -12.5s33.166 -20 44.499 -35s19.666 -33 24.999 -54s8 -43.833 8 -68.5c0 -17.333 -1.33301 -33.333 -4 -48s-5.66699 -26.667 -9 -36
h-335c-6.66699 -38 -7.33398 -70.5 -2.00098 -97.5s14.666 -49.167 27.999 -66.5s30.166 -30.166 50.499 -38.499s42.5 -12.5 66.5 -12.5c21.333 0 42.333 4.66699 63 14s39.667 20.333 57 33l19 -30c-19.333 -14 -41.333 -26.167 -66 -36.5s-51 -15.5 -79 -15.5
c-56 0 -100.5 16.833 -133.5 50.5s-49.5 82.834 -49.5 147.501zM392.005 270.998c4 18.667 5.99902 37.668 5.99902 57.001c0 16 -1.83301 31.833 -5.5 47.5s-9.83398 29.5 -18.501 41.5s-20 21.667 -34 29s-31.333 11 -52 11c-21.333 0 -42.166 -4.5 -62.499 -13.5
s-39.166 -21.833 -56.499 -38.5s-32.5 -36.334 -45.5 -59.001s-22.833 -47.667 -29.5 -75h298zM249.004 705.999h46l59 -136h-32z" />
    <glyph glyph-name="eacute" unicode="&#xe9;" horiz-adv-x="471" 
d="M42 186c0 45.333 7.33789 86.8311 22.0049 124.498s33.667 70 57 97s50 47.833 80 62.5s60.333 22 91 22c26 0 48.167 -4.16699 66.5 -12.5s33.166 -20 44.499 -35s19.666 -33 24.999 -54s8 -43.833 8 -68.5c0 -17.333 -1.33301 -33.333 -4 -48s-5.66699 -26.667 -9 -36
h-335c-6.66699 -38 -7.33398 -70.5 -2.00098 -97.5s14.666 -49.167 27.999 -66.5s30.166 -30.166 50.499 -38.499s42.5 -12.5 66.5 -12.5c21.333 0 42.333 4.66699 63 14s39.667 20.333 57 33l19 -30c-19.333 -14 -41.333 -26.167 -66 -36.5s-51 -15.5 -79 -15.5
c-56 0 -100.5 16.833 -133.5 50.5s-49.5 82.834 -49.5 147.501zM392.005 270.998c4 18.667 5.99902 37.668 5.99902 57.001c0 16 -1.83301 31.833 -5.5 47.5s-9.83398 29.5 -18.501 41.5s-20 21.667 -34 29s-31.333 11 -52 11c-21.333 0 -42.166 -4.5 -62.499 -13.5
s-39.166 -21.833 -56.499 -38.5s-32.5 -36.334 -45.5 -59.001s-22.833 -47.667 -29.5 -75h298zM363.004 705.999h50l-128 -136h-38z" />
    <glyph glyph-name="ecircumflex" unicode="&#xea;" horiz-adv-x="471" 
d="M42 186c0 45.333 7.33789 86.8311 22.0049 124.498s33.667 70 57 97s50 47.833 80 62.5s60.333 22 91 22c26 0 48.167 -4.16699 66.5 -12.5s33.166 -20 44.499 -35s19.666 -33 24.999 -54s8 -43.833 8 -68.5c0 -17.333 -1.33301 -33.333 -4 -48s-5.66699 -26.667 -9 -36
h-335c-6.66699 -38 -7.33398 -70.5 -2.00098 -97.5s14.666 -49.167 27.999 -66.5s30.166 -30.166 50.499 -38.499s42.5 -12.5 66.5 -12.5c21.333 0 42.333 4.66699 63 14s39.667 20.333 57 33l19 -30c-19.333 -14 -41.333 -26.167 -66 -36.5s-51 -15.5 -79 -15.5
c-56 0 -100.5 16.833 -133.5 50.5s-49.5 82.834 -49.5 147.501zM392.005 270.998c4 18.667 5.99902 37.668 5.99902 57.001c0 16 -1.83301 31.833 -5.5 47.5s-9.83398 29.5 -18.501 41.5s-20 21.667 -34 29s-31.333 11 -52 11c-21.333 0 -42.166 -4.5 -62.499 -13.5
s-39.166 -21.833 -56.499 -38.5s-32.5 -36.334 -45.5 -59.001s-22.833 -47.667 -29.5 -75h298zM316.004 705.999h29l67 -136h-32l-53 98h-4l-93 -98h-36z" />
    <glyph glyph-name="edieresis" unicode="&#xeb;" horiz-adv-x="471" 
d="M42 186c0 45.333 7.33789 86.8311 22.0049 124.498s33.667 70 57 97s50 47.833 80 62.5s60.333 22 91 22c26 0 48.167 -4.16699 66.5 -12.5s33.166 -20 44.499 -35s19.666 -33 24.999 -54s8 -43.833 8 -68.5c0 -17.333 -1.33301 -33.333 -4 -48s-5.66699 -26.667 -9 -36
h-335c-6.66699 -38 -7.33398 -70.5 -2.00098 -97.5s14.666 -49.167 27.999 -66.5s30.166 -30.166 50.499 -38.499s42.5 -12.5 66.5 -12.5c21.333 0 42.333 4.66699 63 14s39.667 20.333 57 33l19 -30c-19.333 -14 -41.333 -26.167 -66 -36.5s-51 -15.5 -79 -15.5
c-56 0 -100.5 16.833 -133.5 50.5s-49.5 82.834 -49.5 147.501zM392.005 270.998c4 18.667 5.99902 37.668 5.99902 57.001c0 16 -1.83301 31.833 -5.5 47.5s-9.83398 29.5 -18.501 41.5s-20 21.667 -34 29s-31.333 11 -52 11c-21.333 0 -42.166 -4.5 -62.499 -13.5
s-39.166 -21.833 -56.499 -38.5s-32.5 -36.334 -45.5 -59.001s-22.833 -47.667 -29.5 -75h298zM238.004 597.999c-9.33301 0 -16.666 2.66797 -21.999 8.00098s-8 12.666 -8 21.999c0 12.667 3.83301 23 11.5 31s16.167 12 25.5 12s16.666 -2.83301 21.999 -8.5
s8 -13.5 8 -23.5c0 -11.333 -3.83301 -21 -11.5 -29s-16.167 -12 -25.5 -12zM389.004 598c-9.33301 0 -16.666 2.66797 -21.999 8.00098s-8 12.666 -8 21.999c0 12.667 3.83301 23 11.5 31s16.167 12 25.5 12s16.666 -2.83301 21.999 -8.5s8 -13.5 8 -23.5
c0 -11.333 -3.83301 -21 -11.5 -29s-16.167 -12 -25.5 -12z" />
    <glyph glyph-name="igrave" unicode="&#xec;" horiz-adv-x="220" 
d="M137 480h41l-96 -480h-42zM122 706h46l59 -136h-32z" />
    <glyph glyph-name="iacute" unicode="&#xed;" horiz-adv-x="220" 
d="M137 480h41l-96 -480h-42zM236 706h50l-128 -136h-38z" />
    <glyph glyph-name="icircumflex" unicode="&#xee;" horiz-adv-x="220" 
d="M137 480h41l-96 -480h-42zM189 706h29l67 -136h-32l-53 98h-4l-93 -98h-36z" />
    <glyph glyph-name="idieresis" unicode="&#xef;" horiz-adv-x="220" 
d="M137 480h41l-96 -480h-42zM111 598c-9.33301 0 -16.666 2.66797 -21.999 8.00098s-8 12.666 -8 21.999c0 12.667 3.83301 23 11.5 31s16.167 12 25.5 12s16.666 -2.83301 21.999 -8.5s8 -13.5 8 -23.5c0 -11.333 -3.83301 -21 -11.5 -29s-16.167 -12 -25.5 -12z
M262 598.001c-9.33301 0 -16.666 2.66797 -21.999 8.00098s-8 12.666 -8 21.999c0 12.667 3.83301 23 11.5 31s16.167 12 25.5 12s16.666 -2.83301 21.999 -8.5s8 -13.5 8 -23.5c0 -11.333 -3.83301 -21 -11.5 -29s-16.167 -12 -25.5 -12z" />
    <glyph glyph-name="eth" unicode="&#xf0;" horiz-adv-x="517" 
d="M218 24c28 0 53.667 7.83203 77 23.499s43.5 36.834 60.5 63.501s30.5 57.5 40.5 92.5s16 71.833 18 110.5c-7.33301 12 -15.5 23.5 -24.5 34.5s-19 20.667 -30 29s-22.833 15.166 -35.5 20.499s-26.667 8 -42 8c-29.333 0 -55.833 -6.66699 -79.5 -20s-44 -31 -61 -53
s-30.167 -47.167 -39.5 -75.5s-14 -57.166 -14 -86.499c0 -19.333 2.83301 -38 8.5 -56s14 -33.667 25 -47s24.667 -24 41 -32s34.833 -12 55.5 -12zM379 598.999c23.333 -33.333 41.665 -70.999 54.998 -112.999s20 -90 20 -144c0 -48.667 -5.66699 -94.5 -17 -137.5
s-27.5 -80.5 -48.5 -112.5s-46.5 -57.333 -76.5 -76s-63.333 -28 -100 -28c-24 0 -46 4.66699 -66 14s-37.333 22 -52 38s-26 34.833 -34 56.5s-12 44.834 -12 69.501c0 35.333 5.5 69.5 16.5 102.5s26.667 62.333 47 88s44.833 46.334 73.5 62.001s60.667 23.5 96 23.5
c26.667 0 51.167 -7.33301 73.5 -22s41.833 -33.667 58.5 -57c-1.33301 46 -8 87.167 -20 123.5s-28.333 68.833 -49 97.5l-149 -63l-10 27l141 60c-14.667 17.333 -30.667 33.166 -48 47.499s-36 28.166 -56 41.499l21 27c22.667 -14 43.834 -29.333 63.501 -46
s37.834 -35.334 54.501 -56.001l146 62l10 -27z" />
    <glyph glyph-name="ntilde" unicode="&#xf1;" horiz-adv-x="510" 
d="M137 480l34.001 -0.00195312l-11 -76h4c30 25.333 58.667 46.333 86 63s56 25 86 25c41.333 0 70.666 -10.667 87.999 -32s26 -49.666 26 -84.999c0 -12 -0.5 -22.333 -1.5 -31s-3.16699 -20 -6.5 -34l-62 -310h-41l62 304c2.66699 14.667 4.66699 26.334 6 35.001
s2 17.667 2 27c0 30 -6.66699 52.333 -20 67s-35.333 22 -66 22c-21.333 0 -46 -7.83301 -74 -23.5s-60 -41.5 -96 -77.5l-71 -354h-42zM213.001 580.998c7.33301 23.333 17.666 43.833 30.999 61.5s29.666 26.5 48.999 26.5c14 0 25.333 -3 34 -9
s16.334 -12.667 23.001 -20s13.5 -14 20.5 -20s16.167 -9 27.5 -9c9.33301 0 18 5.33301 26 16s15 24 21 40h28c-6.66699 -22.667 -16.667 -43 -30 -61s-29.666 -27 -48.999 -27c-14 0 -25.333 3 -34 9s-16.5 12.833 -23.5 20.5s-14.167 14.5 -21.5 20.5s-16.333 9 -27 9
c-8.66699 0 -17 -5.5 -25 -16.5s-15.333 -24.5 -22 -40.5h-28z" />
    <glyph glyph-name="ograve" unicode="&#xf2;" horiz-adv-x="504" 
d="M206 -12c-49.333 0 -88.667 16.5 -118 49.5s-44 79.833 -44 140.5c0 44.667 7 86.167 21 124.5s32.833 71.5 56.5 99.5s50.667 50 81 66s61.833 24 94.5 24c50 0 89.667 -16.5 119 -49.5s44 -79.833 44 -140.5c0 -44.667 -7.16699 -86.167 -21.5 -124.5
s-33.166 -71.5 -56.499 -99.5s-50.333 -50 -81 -66s-62.334 -24 -95.001 -24zM293.999 456c-26 0 -51.501 -7.33301 -76.501 -22s-47.333 -34.334 -67 -59.001s-35.5 -53.5 -47.5 -86.5s-18 -67.833 -18 -104.5c0 -52 10.833 -91.667 32.5 -119s52.5 -41 92.5 -41
c26 0 51.333 7.33301 76 22s46.834 34.334 66.501 59.001s35.5 53.5 47.5 86.5s18 68.167 18 105.5c0 52 -10.667 91.5 -32 118.5s-52 40.5 -92 40.5zM272.998 706h46l59 -136h-32z" />
    <glyph glyph-name="oacute" unicode="&#xf3;" horiz-adv-x="504" 
d="M206 -12c-49.333 0 -88.667 16.5 -118 49.5s-44 79.833 -44 140.5c0 44.667 7 86.167 21 124.5s32.833 71.5 56.5 99.5s50.667 50 81 66s61.833 24 94.5 24c50 0 89.667 -16.5 119 -49.5s44 -79.833 44 -140.5c0 -44.667 -7.16699 -86.167 -21.5 -124.5
s-33.166 -71.5 -56.499 -99.5s-50.333 -50 -81 -66s-62.334 -24 -95.001 -24zM293.999 456c-26 0 -51.501 -7.33301 -76.501 -22s-47.333 -34.334 -67 -59.001s-35.5 -53.5 -47.5 -86.5s-18 -67.833 -18 -104.5c0 -52 10.833 -91.667 32.5 -119s52.5 -41 92.5 -41
c26 0 51.333 7.33301 76 22s46.834 34.334 66.501 59.001s35.5 53.5 47.5 86.5s18 68.167 18 105.5c0 52 -10.667 91.5 -32 118.5s-52 40.5 -92 40.5zM386.998 706h50l-128 -136h-38z" />
    <glyph glyph-name="ocircumflex" unicode="&#xf4;" horiz-adv-x="504" 
d="M206 -12c-49.333 0 -88.667 16.5 -118 49.5s-44 79.833 -44 140.5c0 44.667 7 86.167 21 124.5s32.833 71.5 56.5 99.5s50.667 50 81 66s61.833 24 94.5 24c50 0 89.667 -16.5 119 -49.5s44 -79.833 44 -140.5c0 -44.667 -7.16699 -86.167 -21.5 -124.5
s-33.166 -71.5 -56.499 -99.5s-50.333 -50 -81 -66s-62.334 -24 -95.001 -24zM293.999 456c-26 0 -51.501 -7.33301 -76.501 -22s-47.333 -34.334 -67 -59.001s-35.5 -53.5 -47.5 -86.5s-18 -67.833 -18 -104.5c0 -52 10.833 -91.667 32.5 -119s52.5 -41 92.5 -41
c26 0 51.333 7.33301 76 22s46.834 34.334 66.501 59.001s35.5 53.5 47.5 86.5s18 68.167 18 105.5c0 52 -10.667 91.5 -32 118.5s-52 40.5 -92 40.5zM339.998 706h29l67 -136h-32l-53 98h-4l-93 -98h-36z" />
    <glyph glyph-name="otilde" unicode="&#xf5;" horiz-adv-x="504" 
d="M206 -12c-49.333 0 -88.667 16.5 -118 49.5s-44 79.833 -44 140.5c0 44.667 7 86.167 21 124.5s32.833 71.5 56.5 99.5s50.667 50 81 66s61.833 24 94.5 24c50 0 89.667 -16.5 119 -49.5s44 -79.833 44 -140.5c0 -44.667 -7.16699 -86.167 -21.5 -124.5
s-33.166 -71.5 -56.499 -99.5s-50.333 -50 -81 -66s-62.334 -24 -95.001 -24zM293.999 456c-26 0 -51.501 -7.33301 -76.501 -22s-47.333 -34.334 -67 -59.001s-35.5 -53.5 -47.5 -86.5s-18 -67.833 -18 -104.5c0 -52 10.833 -91.667 32.5 -119s52.5 -41 92.5 -41
c26 0 51.333 7.33301 76 22s46.834 34.334 66.501 59.001s35.5 53.5 47.5 86.5s18 68.167 18 105.5c0 52 -10.667 91.5 -32 118.5s-52 40.5 -92 40.5zM207.998 581c7.33301 23.333 17.666 43.833 30.999 61.5s29.666 26.5 48.999 26.5c14 0 25.333 -3 34 -9
s16.334 -12.667 23.001 -20s13.5 -14 20.5 -20s16.167 -9 27.5 -9c9.33301 0 18 5.33301 26 16s15 24 21 40h28c-6.66699 -22.667 -16.667 -43 -30 -61s-29.666 -27 -48.999 -27c-14 0 -25.333 3 -34 9s-16.5 12.833 -23.5 20.5s-14.167 14.5 -21.5 20.5s-16.333 9 -27 9
c-8.66699 0 -17 -5.5 -25 -16.5s-15.333 -24.5 -22 -40.5h-28z" />
    <glyph glyph-name="odieresis" unicode="&#xf6;" horiz-adv-x="504" 
d="M206 -12c-49.333 0 -88.667 16.5 -118 49.5s-44 79.833 -44 140.5c0 44.667 7 86.167 21 124.5s32.833 71.5 56.5 99.5s50.667 50 81 66s61.833 24 94.5 24c50 0 89.667 -16.5 119 -49.5s44 -79.833 44 -140.5c0 -44.667 -7.16699 -86.167 -21.5 -124.5
s-33.166 -71.5 -56.499 -99.5s-50.333 -50 -81 -66s-62.334 -24 -95.001 -24zM293.999 456c-26 0 -51.501 -7.33301 -76.501 -22s-47.333 -34.334 -67 -59.001s-35.5 -53.5 -47.5 -86.5s-18 -67.833 -18 -104.5c0 -52 10.833 -91.667 32.5 -119s52.5 -41 92.5 -41
c26 0 51.333 7.33301 76 22s46.834 34.334 66.501 59.001s35.5 53.5 47.5 86.5s18 68.167 18 105.5c0 52 -10.667 91.5 -32 118.5s-52 40.5 -92 40.5zM261.998 598c-9.33301 0 -16.666 2.66797 -21.999 8.00098s-8 12.666 -8 21.999c0 12.667 3.83301 23 11.5 31
s16.167 12 25.5 12s16.666 -2.83301 21.999 -8.5s8 -13.5 8 -23.5c0 -11.333 -3.83301 -21 -11.5 -29s-16.167 -12 -25.5 -12zM412.998 598.001c-9.33301 0 -16.666 2.66797 -21.999 8.00098s-8 12.666 -8 21.999c0 12.667 3.83301 23 11.5 31s16.167 12 25.5 12
s16.666 -2.83301 21.999 -8.5s8 -13.5 8 -23.5c0 -11.333 -3.83301 -21 -11.5 -29s-16.167 -12 -25.5 -12z" />
    <glyph glyph-name="divide" unicode="&#xf7;" 
d="M245 473c-10.667 0 -19.334 3.83301 -26.001 11.5s-10 16.834 -10 27.501s3.33301 19.5 10 26.5s15.334 10.5 26.001 10.5s19.334 -3.5 26.001 -10.5s10 -15.833 10 -26.5s-3.33301 -19.834 -10 -27.501s-15.334 -11.5 -26.001 -11.5zM245 109
c-10.667 0 -19.334 3.83301 -26.001 11.5s-10 16.834 -10 27.501s3.33301 19.5 10 26.5s15.334 10.5 26.001 10.5s19.334 -3.5 26.001 -10.5s10 -15.833 10 -26.5s-3.33301 -19.834 -10 -27.501s-15.334 -11.5 -26.001 -11.5zM48 314v34h394v-34h-394z" />
    <glyph glyph-name="oslash" unicode="&#xf8;" horiz-adv-x="504" 
d="M112 71c21.333 -31.333 53.667 -47 97 -47c26.667 0 52.5 7.33301 77.5 22s47.333 34.5 67 59.5s35.5 54 47.5 87s18 67.5 18 103.5c0 30 -4 56.667 -12 80zM394.001 404c-21.333 34.667 -54.667 52 -100 52c-26 0 -51.667 -7.33301 -77 -22s-47.833 -34.5 -67.5 -59.5
s-35.5 -54 -47.5 -87s-18 -67.5 -18 -103.5c0 -32.667 4.66699 -61 14 -85zM438 407c14.667 -29.333 22 -64.335 22 -105.002c0 -45.333 -7.16699 -87.166 -21.5 -125.499s-33.166 -71.5 -56.499 -99.5s-50.333 -49.833 -81 -65.5s-62.334 -23.5 -95.001 -23.5
c-52 0 -92.667 18.333 -122 55l-63 -65l-21 20l68 70c-16 28.667 -24 65.334 -24 110.001s7 86.167 21 124.5s32.833 71.5 56.5 99.5s50.667 50 81 66s61.833 24 94.5 24c26.667 0 50.667 -5 72 -15s39 -24.667 53 -44l66 68l21 -21z" />
    <glyph glyph-name="ugrave" unicode="&#xf9;" horiz-adv-x="518" 
d="M379 0l-34.002 -0.000976562l10 78h-4c-29.333 -25.333 -57.666 -46.666 -84.999 -63.999s-55.666 -26 -84.999 -26c-41.333 0 -70.833 10.833 -88.5 32.5s-26.5 49.834 -26.5 84.501c0 12 0.5 22.5 1.5 31.5s3.16699 20.167 6.5 33.5l62 310h41l-61 -304
c-3.33301 -14.667 -5.5 -26.334 -6.5 -35.001s-1.5 -17.667 -1.5 -27c0 -30 6.66699 -52.333 20 -67s35 -22 65 -22c21.333 0 46 8 74 24s60 41.667 96 77l71 354h41zM262.998 705.999h46l59 -136h-32z" />
    <glyph glyph-name="uacute" unicode="&#xfa;" horiz-adv-x="518" 
d="M379 0l-34.002 -0.000976562l10 78h-4c-29.333 -25.333 -57.666 -46.666 -84.999 -63.999s-55.666 -26 -84.999 -26c-41.333 0 -70.833 10.833 -88.5 32.5s-26.5 49.834 -26.5 84.501c0 12 0.5 22.5 1.5 31.5s3.16699 20.167 6.5 33.5l62 310h41l-61 -304
c-3.33301 -14.667 -5.5 -26.334 -6.5 -35.001s-1.5 -17.667 -1.5 -27c0 -30 6.66699 -52.333 20 -67s35 -22 65 -22c21.333 0 46 8 74 24s60 41.667 96 77l71 354h41zM376.998 705.999h50l-128 -136h-38z" />
    <glyph glyph-name="ucircumflex" unicode="&#xfb;" horiz-adv-x="518" 
d="M379 0l-34.002 -0.000976562l10 78h-4c-29.333 -25.333 -57.666 -46.666 -84.999 -63.999s-55.666 -26 -84.999 -26c-41.333 0 -70.833 10.833 -88.5 32.5s-26.5 49.834 -26.5 84.501c0 12 0.5 22.5 1.5 31.5s3.16699 20.167 6.5 33.5l62 310h41l-61 -304
c-3.33301 -14.667 -5.5 -26.334 -6.5 -35.001s-1.5 -17.667 -1.5 -27c0 -30 6.66699 -52.333 20 -67s35 -22 65 -22c21.333 0 46 8 74 24s60 41.667 96 77l71 354h41zM329.998 705.999h29l67 -136h-32l-53 98h-4l-93 -98h-36z" />
    <glyph glyph-name="udieresis" unicode="&#xfc;" horiz-adv-x="518" 
d="M379 0l-34.002 -0.000976562l10 78h-4c-29.333 -25.333 -57.666 -46.666 -84.999 -63.999s-55.666 -26 -84.999 -26c-41.333 0 -70.833 10.833 -88.5 32.5s-26.5 49.834 -26.5 84.501c0 12 0.5 22.5 1.5 31.5s3.16699 20.167 6.5 33.5l62 310h41l-61 -304
c-3.33301 -14.667 -5.5 -26.334 -6.5 -35.001s-1.5 -17.667 -1.5 -27c0 -30 6.66699 -52.333 20 -67s35 -22 65 -22c21.333 0 46 8 74 24s60 41.667 96 77l71 354h41zM251.998 597.999c-9.33301 0 -16.666 2.66797 -21.999 8.00098s-8 12.666 -8 21.999
c0 12.667 3.83301 23 11.5 31s16.167 12 25.5 12s16.666 -2.83301 21.999 -8.5s8 -13.5 8 -23.5c0 -11.333 -3.83301 -21 -11.5 -29s-16.167 -12 -25.5 -12zM402.998 598c-9.33301 0 -16.666 2.66797 -21.999 8.00098s-8 12.666 -8 21.999c0 12.667 3.83301 23 11.5 31
s16.167 12 25.5 12s16.666 -2.83301 21.999 -8.5s8 -13.5 8 -23.5c0 -11.333 -3.83301 -21 -11.5 -29s-16.167 -12 -25.5 -12z" />
    <glyph glyph-name="yacute" unicode="&#xfd;" horiz-adv-x="419" 
d="M-62 -174c10.667 -6 21.9961 -9.00098 33.9961 -9.00098c28.667 0 55.334 12.167 80.001 36.5s47 56.833 67 97.5l21 42l-81 487h41l47 -301l10.5 -72.5c3.66699 -25 6.83398 -48.5 9.50098 -70.5h4l36.5 71l38.5 72l162 301h42l-296 -539
c-10.667 -20 -22.167 -39.667 -34.5 -59s-26 -36.5 -41 -51.5s-31.5 -27 -49.5 -36s-38 -13.5 -60 -13.5c-5.33301 0 -12.166 0.833008 -20.499 2.5s-17.166 4.83398 -26.499 9.50098l16 33v0zM319.996 705.999h50l-128 -136h-38z" />
    <glyph glyph-name="thorn" unicode="&#xfe;" horiz-adv-x="524" 
d="M221 -12c-28 0 -52.501 7.33301 -73.501 22s-38.833 33 -53.5 55h-2l-21 -108l-33 -174h-41l187 936h41l-42 -209l-21 -97h2c25.333 20.667 53 39 83 55s61.333 24 94 24c42.667 0 76.667 -14.667 102 -44s38 -72.333 38 -129c0 -46 -7.33301 -89.167 -22 -129.5
s-34.167 -75.5 -58.5 -105.5s-52.166 -53.5 -83.499 -70.5s-63.333 -25.5 -96 -25.5zM331.999 456c-26.667 0 -55.999 -8.33301 -87.999 -25s-61.667 -38 -89 -64l-52 -260c17.333 -30 35.666 -51.333 54.999 -64s40.333 -19 63 -19c28.667 0 56.167 8.16699 82.5 24.5
s49.666 38 69.999 65s36.5 57.833 48.5 92.5s18 70 18 106c0 48 -9.66699 84 -29 108s-45.666 36 -78.999 36z" />
    <glyph glyph-name="ydieresis" unicode="&#xff;" horiz-adv-x="419" 
d="M-62 -174c10.667 -6 21.9961 -9.00098 33.9961 -9.00098c28.667 0 55.334 12.167 80.001 36.5s47 56.833 67 97.5l21 42l-81 487h41l47 -301l10.5 -72.5c3.66699 -25 6.83398 -48.5 9.50098 -70.5h4l36.5 71l38.5 72l162 301h42l-296 -539
c-10.667 -20 -22.167 -39.667 -34.5 -59s-26 -36.5 -41 -51.5s-31.5 -27 -49.5 -36s-38 -13.5 -60 -13.5c-5.33301 0 -12.166 0.833008 -20.499 2.5s-17.166 4.83398 -26.499 9.50098l16 33v0zM194.996 597.999c-9.33301 0 -16.666 2.66797 -21.999 8.00098
s-8 12.666 -8 21.999c0 12.667 3.83301 23 11.5 31s16.167 12 25.5 12s16.666 -2.83301 21.999 -8.5s8 -13.5 8 -23.5c0 -11.333 -3.83301 -21 -11.5 -29s-16.167 -12 -25.5 -12zM345.996 598c-9.33301 0 -16.666 2.66797 -21.999 8.00098s-8 12.666 -8 21.999
c0 12.667 3.83301 23 11.5 31s16.167 12 25.5 12s16.666 -2.83301 21.999 -8.5s8 -13.5 8 -23.5c0 -11.333 -3.83301 -21 -11.5 -29s-16.167 -12 -25.5 -12z" />
    <glyph glyph-name="Amacron" unicode="&#x100;" horiz-adv-x="488" 
d="M370 264l-15.0029 127c-3.33301 36.667 -7.16602 73.5 -11.499 110.5s-8.16602 75.167 -11.499 114.5h-4c-19.333 -40 -38.666 -78 -57.999 -114l-60 -111l-68 -127h228zM373.997 229h-251l-123 -229h-48l363 659h47l81 -659h-43zM237.997 768h217l-7 -34h-217z" />
    <glyph glyph-name="amacron" unicode="&#x101;" horiz-adv-x="527" 
d="M44 161c0 46 7.33496 89.166 22.002 129.499s34.167 75.5 58.5 105.5s52.166 53.5 83.499 70.5s63.666 25.5 96.999 25.5c28 0 52.333 -7.16699 73 -21.5s37.667 -33.166 51 -56.499h3l19 66h34l-96 -480h-35l11 76h-4c-24.667 -25.333 -52 -46.333 -82 -63
s-61.667 -25 -95 -25c-42 0 -75.833 14.667 -101.5 44s-38.5 72.333 -38.5 129zM193.002 23.999c31.333 0 62.001 9.00098 92.001 27.001s59.333 43.667 88 77l50 241c-17.333 31.333 -35.833 53.666 -55.5 66.999s-40.834 20 -63.501 20
c-28.667 0 -56.167 -8.16699 -82.5 -24.5s-49.5 -38 -69.5 -65s-36 -57.667 -48 -92s-18 -69.5 -18 -105.5c0 -48.667 9.5 -85 28.5 -109s45.167 -36 78.5 -36zM226.003 640h218l-5 -34h-219z" />
    <glyph glyph-name="Abreve" unicode="&#x102;" horiz-adv-x="488" 
d="M370 264l-15.0029 127c-3.33301 36.667 -7.16602 73.5 -11.499 110.5s-8.16602 75.167 -11.499 114.5h-4c-19.333 -40 -38.666 -78 -57.999 -114l-60 -111l-68 -127h228zM373.997 229h-251l-123 -229h-48l363 659h47l81 -659h-43zM334.997 709
c-18 0 -32.835 3.33301 -44.502 10s-21 15 -28 25s-11.667 21.167 -14 33.5s-3.16602 24.166 -2.49902 35.499h28c-0.666992 -9.33301 0.166016 -18.333 2.49902 -27s6 -16.5 11 -23.5s11.833 -12.5 20.5 -16.5s19.334 -6 32.001 -6c12 0 22.833 2.16699 32.5 6.5
s18.334 10 26.001 17s14.334 14.833 20.001 23.5s10.167 17.334 13.5 26.001h30c-4 -12 -9.33301 -24.167 -16 -36.5s-15.334 -23.5 -26.001 -33.5s-23 -18.167 -37 -24.5s-30 -9.5 -48 -9.5z" />
    <glyph glyph-name="abreve" unicode="&#x103;" horiz-adv-x="527" 
d="M44 161c0 46 7.33496 89.166 22.002 129.499s34.167 75.5 58.5 105.5s52.166 53.5 83.499 70.5s63.666 25.5 96.999 25.5c28 0 52.333 -7.16699 73 -21.5s37.667 -33.166 51 -56.499h3l19 66h34l-96 -480h-35l11 76h-4c-24.667 -25.333 -52 -46.333 -82 -63
s-61.667 -25 -95 -25c-42 0 -75.833 14.667 -101.5 44s-38.5 72.333 -38.5 129zM193.002 23.999c31.333 0 62.001 9.00098 92.001 27.001s59.333 43.667 88 77l50 241c-17.333 31.333 -35.833 53.666 -55.5 66.999s-40.834 20 -63.501 20
c-28.667 0 -56.167 -8.16699 -82.5 -24.5s-49.5 -38 -69.5 -65s-36 -57.667 -48 -92s-18 -69.5 -18 -105.5c0 -48.667 9.5 -85 28.5 -109s45.167 -36 78.5 -36zM324.003 576c-19.333 0 -34.998 3.49902 -46.998 10.499s-21.333 16.167 -28 27.5s-10.834 23.833 -12.501 37.5
s-1.83398 27.5 -0.500977 41.5h28c-2 -26 2 -47 12 -63s27 -24 51 -24c24.667 0 45.667 8.33301 63 25s30.333 37.334 39 62.001h30c-4.66699 -14 -10.667 -27.833 -18 -41.5s-16.5 -26.167 -27.5 -37.5s-23.833 -20.5 -38.5 -27.5s-31.667 -10.5 -51 -10.5z" />
    <glyph glyph-name="Aogonek" unicode="&#x104;" horiz-adv-x="488" 
d="M370 264l-15.0029 127c-3.33301 36.667 -7.16602 73.5 -11.499 110.5s-8.16602 75.167 -11.499 114.5h-4c-19.333 -40 -38.666 -78 -57.999 -114l-60 -111l-68 -127h228zM442.997 0c-28 -19.333 -50.5 -40.3311 -67.5 -62.998s-25.5 -45 -25.5 -67
c0 -12.667 3.5 -22.667 10.5 -30s15.833 -11 26.5 -11c8 0 15 1 21 3s12.667 5 20 9l12 -28c-20.667 -11.333 -40.667 -17 -60 -17c-20 0 -36.667 5.16699 -50 15.5s-20 26.166 -20 47.499c0 13.333 2.66699 26.666 8 39.999s12.5 26 21.5 38s19.167 23.5 30.5 34.5
s23 20.5 35 28.5h-5l-26 229h-251l-123 -229h-48l363 659h47z" />
    <glyph glyph-name="aogonek" unicode="&#x105;" horiz-adv-x="527" 
d="M44 161c0 46 7.33691 89.166 22.0039 129.499s34.167 75.5 58.5 105.5s52.166 53.5 83.499 70.5s63.666 25.5 96.999 25.5c28 0 52.667 -7.5 74 -22.5s38.333 -34.167 51 -57.5h2l19 68h34l-96 -480c-35.333 -19.333 -63 -40 -83 -62s-30 -44.667 -30 -68
c0 -12.667 3.5 -22.5 10.5 -29.5s15.833 -10.5 26.5 -10.5c8 0 15.167 1 21.5 3s12.833 5 19.5 9l12 -27c-9.33301 -5.33301 -19.333 -9.66602 -30 -12.999s-20.667 -5 -30 -5c-20 0 -36.5 5.16699 -49.5 15.5s-19.5 26.166 -19.5 47.499c0 14 3.33301 28.167 10 42.5
s15.5 28 26.5 41s23.667 25.167 38 36.5s29.166 21 44.499 29l9 69h-2c-24.667 -25.333 -52.334 -46.666 -83.001 -63.999s-62.667 -26 -96 -26c-42 0 -75.833 14.667 -101.5 44s-38.5 72.333 -38.5 129zM193.004 23.999c26.667 0 56.168 9 88.501 27s62.833 43.667 91.5 77
l50 243c-17.333 31.333 -35.833 53.333 -55.5 66s-40.834 19 -63.501 19c-28.667 0 -56.167 -8.16699 -82.5 -24.5s-49.5 -38 -69.5 -65s-36 -57.667 -48 -92s-18 -69.5 -18 -105.5c0 -48.667 9.5 -85 28.5 -109s45.167 -36 78.5 -36z" />
    <glyph glyph-name="Cacute" unicode="&#x106;" horiz-adv-x="540" 
d="M58 248c0 48.667 7.66797 98.165 23.001 148.498s37.333 95.833 66 136.5s63.667 73.834 105 99.501s88 38.5 140 38.5c37.333 0 68.5 -9.16699 93.5 -27.5s45.167 -40.166 60.5 -65.499l-32 -23c-13.333 22.667 -30 41.5 -50 56.5s-45 22.5 -75 22.5
c-45.333 0 -85.833 -12 -121.5 -36s-65.834 -54.5 -90.501 -91.5s-43.5 -77.833 -56.5 -122.5s-19.5 -88 -19.5 -130c0 -32.667 3.66699 -63 11 -91s18.5 -52.167 33.5 -72.5s34.167 -36.333 57.5 -48s51 -17.5 83 -17.5c30.667 0 58.334 5.66699 83.001 17s49 27 73 47
l23 -28c-27.333 -22.667 -55.5 -40.5 -84.5 -53.5s-62.167 -19.5 -99.5 -19.5s-69.833 6.5 -97.5 19.5s-50.834 31.167 -69.501 54.5s-32.667 50.833 -42 82.5s-14 66.167 -14 103.5zM472.001 812.998h52l-122 -104h-39z" />
    <glyph glyph-name="cacute" unicode="&#x107;" horiz-adv-x="430" 
d="M42 178c0 46.667 7.5 89.168 22.5 127.501s34.667 71.333 59 99s52 49.167 83 64.5s62.5 23 94.5 23c28 0 51.333 -5.33301 70 -16s35.667 -24.667 51 -42l-26 -28c-14.667 17.333 -29.167 30 -43.5 38s-32.5 12 -54.5 12c-27.333 0 -53.833 -7.33301 -79.5 -22
s-48.5 -34.334 -68.5 -59.001s-36 -53.5 -48 -86.5s-18 -67.833 -18 -104.5c0 -52 11 -91.667 33 -119s55.333 -41 100 -41c24 0 46.333 5 67 15s39.667 21.667 57 35l21 -30c-17.333 -13.333 -38.333 -26 -63 -38s-53.667 -18 -87 -18c-52 0 -93.333 16.5 -124 49.5
s-46 79.833 -46 140.5zM371 706.001h50l-128 -136h-38z" />
    <glyph glyph-name="Ccircumflex" unicode="&#x108;" horiz-adv-x="540" 
d="M58 248c0 48.667 7.66797 98.165 23.001 148.498s37.333 95.833 66 136.5s63.667 73.834 105 99.501s88 38.5 140 38.5c37.333 0 68.5 -9.16699 93.5 -27.5s45.167 -40.166 60.5 -65.499l-32 -23c-13.333 22.667 -30 41.5 -50 56.5s-45 22.5 -75 22.5
c-45.333 0 -85.833 -12 -121.5 -36s-65.834 -54.5 -90.501 -91.5s-43.5 -77.833 -56.5 -122.5s-19.5 -88 -19.5 -130c0 -32.667 3.66699 -63 11 -91s18.5 -52.167 33.5 -72.5s34.167 -36.333 57.5 -48s51 -17.5 83 -17.5c30.667 0 58.334 5.66699 83.001 17s49 27 73 47
l23 -28c-27.333 -22.667 -55.5 -40.5 -84.5 -53.5s-62.167 -19.5 -99.5 -19.5s-69.833 6.5 -97.5 19.5s-50.834 31.167 -69.501 54.5s-32.667 50.833 -42 82.5s-14 66.167 -14 103.5zM400.001 812.998h38l71 -104h-35l-56 74h-4l-86 -74h-40z" />
    <glyph glyph-name="ccircumflex" unicode="&#x109;" horiz-adv-x="430" 
d="M42 178c0 46.667 7.5 89.168 22.5 127.501s34.667 71.333 59 99s52 49.167 83 64.5s62.5 23 94.5 23c28 0 51.333 -5.33301 70 -16s35.667 -24.667 51 -42l-26 -28c-14.667 17.333 -29.167 30 -43.5 38s-32.5 12 -54.5 12c-27.333 0 -53.833 -7.33301 -79.5 -22
s-48.5 -34.334 -68.5 -59.001s-36 -53.5 -48 -86.5s-18 -67.833 -18 -104.5c0 -52 11 -91.667 33 -119s55.333 -41 100 -41c24 0 46.333 5 67 15s39.667 21.667 57 35l21 -30c-17.333 -13.333 -38.333 -26 -63 -38s-53.667 -18 -87 -18c-52 0 -93.333 16.5 -124 49.5
s-46 79.833 -46 140.5zM324 706.001h29l67 -136h-32l-53 98h-4l-93 -98h-36z" />
    <glyph glyph-name="Cdotaccent" unicode="&#x10a;" horiz-adv-x="540" 
d="M58 248c0 48.667 7.66797 98.165 23.001 148.498s37.333 95.833 66 136.5s63.667 73.834 105 99.501s88 38.5 140 38.5c37.333 0 68.5 -9.16699 93.5 -27.5s45.167 -40.166 60.5 -65.499l-32 -23c-13.333 22.667 -30 41.5 -50 56.5s-45 22.5 -75 22.5
c-45.333 0 -85.833 -12 -121.5 -36s-65.834 -54.5 -90.501 -91.5s-43.5 -77.833 -56.5 -122.5s-19.5 -88 -19.5 -130c0 -32.667 3.66699 -63 11 -91s18.5 -52.167 33.5 -72.5s34.167 -36.333 57.5 -48s51 -17.5 83 -17.5c30.667 0 58.334 5.66699 83.001 17s49 27 73 47
l23 -28c-27.333 -22.667 -55.5 -40.5 -84.5 -53.5s-62.167 -19.5 -99.5 -19.5s-69.833 6.5 -97.5 19.5s-50.834 31.167 -69.501 54.5s-32.667 50.833 -42 82.5s-14 66.167 -14 103.5zM405.001 722.998c-9.33301 0 -17.335 3.00098 -24.002 9.00098s-10 14 -10 24
c0 13.333 4.33301 24.166 13 32.499s18.334 12.5 29.001 12.5c9.33301 0 17.333 -3.16699 24 -9.5s10 -14.833 10 -25.5c0 -12.667 -4.16699 -23 -12.5 -31s-18.166 -12 -29.499 -12z" />
    <glyph glyph-name="cdotaccent" unicode="&#x10b;" horiz-adv-x="430" 
d="M42 178c0 46.667 7.5 89.168 22.5 127.501s34.667 71.333 59 99s52 49.167 83 64.5s62.5 23 94.5 23c28 0 51.333 -5.33301 70 -16s35.667 -24.667 51 -42l-26 -28c-14.667 17.333 -29.167 30 -43.5 38s-32.5 12 -54.5 12c-27.333 0 -53.833 -7.33301 -79.5 -22
s-48.5 -34.334 -68.5 -59.001s-36 -53.5 -48 -86.5s-18 -67.833 -18 -104.5c0 -52 11 -91.667 33 -119s55.333 -41 100 -41c24 0 46.333 5 67 15s39.667 21.667 57 35l21 -30c-17.333 -13.333 -38.333 -26 -63 -38s-53.667 -18 -87 -18c-52 0 -93.333 16.5 -124 49.5
s-46 79.833 -46 140.5zM319 596.001c-9.33301 0 -17.335 3.16895 -24.002 9.50195s-10 14.166 -10 23.499c0 13.333 4.33301 24.166 13 32.499s18.334 12.5 29.001 12.5c9.33301 0 17.333 -3 24 -9s10 -14.333 10 -25c0 -12.667 -4.16699 -23.167 -12.5 -31.5
s-18.166 -12.5 -29.499 -12.5z" />
    <glyph glyph-name="Ccaron" unicode="&#x10c;" horiz-adv-x="540" 
d="M58 248c0 48.667 7.66797 98.165 23.001 148.498s37.333 95.833 66 136.5s63.667 73.834 105 99.501s88 38.5 140 38.5c37.333 0 68.5 -9.16699 93.5 -27.5s45.167 -40.166 60.5 -65.499l-32 -23c-13.333 22.667 -30 41.5 -50 56.5s-45 22.5 -75 22.5
c-45.333 0 -85.833 -12 -121.5 -36s-65.834 -54.5 -90.501 -91.5s-43.5 -77.833 -56.5 -122.5s-19.5 -88 -19.5 -130c0 -32.667 3.66699 -63 11 -91s18.5 -52.167 33.5 -72.5s34.167 -36.333 57.5 -48s51 -17.5 83 -17.5c30.667 0 58.334 5.66699 83.001 17s49 27 73 47
l23 -28c-27.333 -22.667 -55.5 -40.5 -84.5 -53.5s-62.167 -19.5 -99.5 -19.5s-69.833 6.5 -97.5 19.5s-50.834 31.167 -69.501 54.5s-32.667 50.833 -42 82.5s-14 66.167 -14 103.5zM419.001 708.998h-37l-72 104h35l56 -74h4l87 74h39z" />
    <glyph glyph-name="ccaron" unicode="&#x10d;" horiz-adv-x="430" 
d="M42 178c0 46.667 7.5 89.168 22.5 127.501s34.667 71.333 59 99s52 49.167 83 64.5s62.5 23 94.5 23c28 0 51.333 -5.33301 70 -16s35.667 -24.667 51 -42l-26 -28c-14.667 17.333 -29.167 30 -43.5 38s-32.5 12 -54.5 12c-27.333 0 -53.833 -7.33301 -79.5 -22
s-48.5 -34.334 -68.5 -59.001s-36 -53.5 -48 -86.5s-18 -67.833 -18 -104.5c0 -52 11 -91.667 33 -119s55.333 -41 100 -41c24 0 46.333 5 67 15s39.667 21.667 57 35l21 -30c-17.333 -13.333 -38.333 -26 -63 -38s-53.667 -18 -87 -18c-52 0 -93.333 16.5 -124 49.5
s-46 79.833 -46 140.5zM327 570.001h-29l-68 136h32l54 -97h4l92 97h37z" />
    <glyph glyph-name="Dcaron" unicode="&#x10e;" horiz-adv-x="577" 
d="M170 659l109.001 -0.00195312c45.333 0 85 -6.16699 119 -18.5s62.333 -29.666 85 -51.999s39.667 -49.166 51 -80.499s17 -66.333 17 -105c0 -57.333 -7.66699 -110.5 -23 -159.5s-37.833 -91.5 -67.5 -127.5s-66.334 -64.333 -110.001 -85s-94.167 -31 -151.5 -31h-160
zM200.001 35.998c48.667 0 92.168 9.66699 130.501 29s70.666 45.5 96.999 78.5s46.333 71.5 60 115.5s20.5 91 20.5 141c0 33.333 -4.83301 63.666 -14.5 90.999s-24 50.833 -43 70.5s-43 34.834 -72 45.501s-62.833 16 -101.5 16h-72l-117 -587h112zM381.002 708.998h-37
l-72 104h35l56 -74h4l87 74h39z" />
    <glyph glyph-name="dcaron" unicode="&#x10f;" horiz-adv-x="526" 
d="M451 510l42.001 209h41l-145 -719h-35l11 76h-4c-24.667 -25.333 -52 -46.333 -82 -63s-61.667 -25 -95 -25c-42 0 -75.833 14.667 -101.5 44s-38.5 72.333 -38.5 129c0 46 7.33301 89.167 22 129.5s34.167 75.5 58.5 105.5s52.166 53.5 83.499 70.5
s63.666 25.5 96.999 25.5c28 0 52.333 -7 73 -21s37.334 -32.667 50.001 -56h4zM193.001 24c31.333 0 62.001 9.00098 92.001 27.001s59.333 43.667 88 77l50 241c-17.333 31.333 -35.833 53.666 -55.5 66.999s-40.834 20 -63.501 20
c-28.667 0 -56.167 -8.16699 -82.5 -24.5s-49.5 -38 -69.5 -65s-36 -57.667 -48 -92s-18 -69.5 -18 -105.5c0 -48.667 9.5 -85 28.5 -109s45.167 -36 78.5 -36zM553.002 548.001l40 206h35l-9 -50l-40 -156h-26z" />
    <glyph glyph-name="Dcroat" unicode="&#x110;" horiz-adv-x="595" 
d="M218 36c48.667 0 92.168 9.66699 130.501 29s70.666 45.5 96.999 78.5s46.333 71.5 60 115.5s20.5 91 20.5 141c0 33.333 -4.83301 63.666 -14.5 90.999s-24 50.833 -43 70.5s-43 34.834 -72 45.501s-62.833 16 -101.5 16h-72l-51 -258h164l-7 -31h-164l-59 -298h112z
M297.001 659c45.333 0 85.001 -6.16895 119.001 -18.502s62.333 -29.666 85 -51.999s39.667 -49.166 51 -80.499s17 -66.333 17 -105c0 -57.333 -7.66699 -110.5 -23 -159.5s-37.833 -91.5 -67.5 -127.5s-66.334 -64.333 -110.001 -85s-94.167 -31 -151.5 -31h-160l66 334
h-71l7 29l71 2l58 294h109z" />
    <glyph glyph-name="dcroat" unicode="&#x111;" horiz-adv-x="525" 
d="M419 349c-16.667 31.333 -34.667 53.668 -54 67.001s-40.333 20 -63 20c-28 0 -55 -8 -81 -24s-49 -36.833 -69 -62.5s-36 -54.334 -48 -86.001s-18 -63.167 -18 -94.5c0 -48.667 9.5 -85 28.5 -109s45.167 -36 78.5 -36c31.333 0 62 9 92 27s59.333 43.667 88 77z
M579 585.002l-73 -4l-117 -581h-35l11 76h-4c-24.667 -25.333 -52 -46.333 -82 -63s-61.667 -25 -95 -25c-42 0 -75.833 14.667 -101.5 44s-38.5 72.333 -38.5 129c0 41.333 7.33301 80.833 22 118.5s34 70.667 58 99s51.5 51 82.5 68s63.167 25.5 96.5 25.5
c28 0 52.333 -7 73 -21s36.667 -32.667 48 -56h4l19 95l18 91h-163l7 31h163l21 107h41l-22 -107h74z" />
    <glyph glyph-name="Emacron" unicode="&#x112;" horiz-adv-x="489" 
d="M170 659h348l-8 -37h-305l-51 -254h258l-8 -37h-256l-60 -294h314l-8 -37h-355zM254 768h217l-7 -34h-217z" />
    <glyph glyph-name="emacron" unicode="&#x113;" horiz-adv-x="471" 
d="M42 186c0 45.333 7.33789 86.8311 22.0049 124.498s33.667 70 57 97s50 47.833 80 62.5s60.333 22 91 22c26 0 48.167 -4.16699 66.5 -12.5s33.166 -20 44.499 -35s19.666 -33 24.999 -54s8 -43.833 8 -68.5c0 -17.333 -1.33301 -33.333 -4 -48s-5.66699 -26.667 -9 -36
h-335c-6.66699 -38 -7.33398 -70.5 -2.00098 -97.5s14.666 -49.167 27.999 -66.5s30.166 -30.166 50.499 -38.499s42.5 -12.5 66.5 -12.5c21.333 0 42.333 4.66699 63 14s39.667 20.333 57 33l19 -30c-19.333 -14 -41.333 -26.167 -66 -36.5s-51 -15.5 -79 -15.5
c-56 0 -100.5 16.833 -133.5 50.5s-49.5 82.834 -49.5 147.501zM392.005 270.998c4 18.667 5.99902 37.668 5.99902 57.001c0 16 -1.83301 31.833 -5.5 47.5s-9.83398 29.5 -18.501 41.5s-20 21.667 -34 29s-31.333 11 -52 11c-21.333 0 -42.166 -4.5 -62.499 -13.5
s-39.166 -21.833 -56.499 -38.5s-32.5 -36.334 -45.5 -59.001s-22.833 -47.667 -29.5 -75h298zM207.004 639.999h218l-5 -34h-219z" />
    <glyph glyph-name="Ebreve" unicode="&#x114;" horiz-adv-x="489" 
d="M170 659h348l-8 -37h-305l-51 -254h258l-8 -37h-256l-60 -294h314l-8 -37h-355zM351 709c-18 0 -32.835 3.33301 -44.502 10s-21 15 -28 25s-11.667 21.167 -14 33.5s-3.16602 24.166 -2.49902 35.499h28c-0.666992 -9.33301 0.166016 -18.333 2.49902 -27
s6 -16.5 11 -23.5s11.833 -12.5 20.5 -16.5s19.334 -6 32.001 -6c12 0 22.833 2.16699 32.5 6.5s18.334 10 26.001 17s14.334 14.833 20.001 23.5s10.167 17.334 13.5 26.001h30c-4 -12 -9.33301 -24.167 -16 -36.5s-15.334 -23.5 -26.001 -33.5s-23 -18.167 -37 -24.5
s-30 -9.5 -48 -9.5z" />
    <glyph glyph-name="ebreve" unicode="&#x115;" horiz-adv-x="471" 
d="M42 186c0 45.333 7.33789 86.8311 22.0049 124.498s33.667 70 57 97s50 47.833 80 62.5s60.333 22 91 22c26 0 48.167 -4.16699 66.5 -12.5s33.166 -20 44.499 -35s19.666 -33 24.999 -54s8 -43.833 8 -68.5c0 -17.333 -1.33301 -33.333 -4 -48s-5.66699 -26.667 -9 -36
h-335c-6.66699 -38 -7.33398 -70.5 -2.00098 -97.5s14.666 -49.167 27.999 -66.5s30.166 -30.166 50.499 -38.499s42.5 -12.5 66.5 -12.5c21.333 0 42.333 4.66699 63 14s39.667 20.333 57 33l19 -30c-19.333 -14 -41.333 -26.167 -66 -36.5s-51 -15.5 -79 -15.5
c-56 0 -100.5 16.833 -133.5 50.5s-49.5 82.834 -49.5 147.501zM392.005 270.998c4 18.667 5.99902 37.668 5.99902 57.001c0 16 -1.83301 31.833 -5.5 47.5s-9.83398 29.5 -18.501 41.5s-20 21.667 -34 29s-31.333 11 -52 11c-21.333 0 -42.166 -4.5 -62.499 -13.5
s-39.166 -21.833 -56.499 -38.5s-32.5 -36.334 -45.5 -59.001s-22.833 -47.667 -29.5 -75h298zM305.004 575.999c-19.333 0 -34.998 3.49902 -46.998 10.499s-21.333 16.167 -28 27.5s-10.834 23.833 -12.501 37.5s-1.83398 27.5 -0.500977 41.5h28c-2 -26 2 -47 12 -63
s27 -24 51 -24c24.667 0 45.667 8.33301 63 25s30.333 37.334 39 62.001h30c-4.66699 -14 -10.667 -27.833 -18 -41.5s-16.5 -26.167 -27.5 -37.5s-23.833 -20.5 -38.5 -27.5s-31.667 -10.5 -51 -10.5z" />
    <glyph glyph-name="Edotaccent" unicode="&#x116;" horiz-adv-x="489" 
d="M170 659h348l-8 -37h-305l-51 -254h258l-8 -37h-256l-60 -294h314l-8 -37h-355zM357 723c-9.33301 0 -17.335 3.00098 -24.002 9.00098s-10 14 -10 24c0 13.333 4.33301 24.166 13 32.499s18.334 12.5 29.001 12.5c9.33301 0 17.333 -3.16699 24 -9.5
s10 -14.833 10 -25.5c0 -12.667 -4.16699 -23 -12.5 -31s-18.166 -12 -29.499 -12z" />
    <glyph glyph-name="edotaccent" unicode="&#x117;" horiz-adv-x="471" 
d="M42 186c0 45.333 7.33789 86.8311 22.0049 124.498s33.667 70 57 97s50 47.833 80 62.5s60.333 22 91 22c26 0 48.167 -4.16699 66.5 -12.5s33.166 -20 44.499 -35s19.666 -33 24.999 -54s8 -43.833 8 -68.5c0 -17.333 -1.33301 -33.333 -4 -48s-5.66699 -26.667 -9 -36
h-335c-6.66699 -38 -7.33398 -70.5 -2.00098 -97.5s14.666 -49.167 27.999 -66.5s30.166 -30.166 50.499 -38.499s42.5 -12.5 66.5 -12.5c21.333 0 42.333 4.66699 63 14s39.667 20.333 57 33l19 -30c-19.333 -14 -41.333 -26.167 -66 -36.5s-51 -15.5 -79 -15.5
c-56 0 -100.5 16.833 -133.5 50.5s-49.5 82.834 -49.5 147.501zM392.005 270.998c4 18.667 5.99902 37.668 5.99902 57.001c0 16 -1.83301 31.833 -5.5 47.5s-9.83398 29.5 -18.501 41.5s-20 21.667 -34 29s-31.333 11 -52 11c-21.333 0 -42.166 -4.5 -62.499 -13.5
s-39.166 -21.833 -56.499 -38.5s-32.5 -36.334 -45.5 -59.001s-22.833 -47.667 -29.5 -75h298zM311.004 595.999c-9.33301 0 -17.335 3.16895 -24.002 9.50195s-10 14.166 -10 23.499c0 13.333 4.33301 24.166 13 32.499s18.334 12.5 29.001 12.5c9.33301 0 17.333 -3 24 -9
s10 -14.333 10 -25c0 -12.667 -4.16699 -23.167 -12.5 -31.5s-18.166 -12.5 -29.499 -12.5z" />
    <glyph glyph-name="Eogonek" unicode="&#x118;" horiz-adv-x="489" 
d="M170 659h347.999l-8 -37h-305l-51 -254h258l-8 -37h-256l-60 -294h314l-8 -37c-15.333 -1.33301 -30.166 -6.66602 -44.499 -15.999s-27 -20.5 -38 -33.5s-19.833 -26.667 -26.5 -41s-10 -27.5 -10 -39.5c0 -12.667 3.5 -22.667 10.5 -30s15.833 -11 26.5 -11
c8 0 15 1 21 3s12.667 5 20 9l12 -28c-20.667 -11.333 -40.667 -17 -60 -17c-20 0 -36.667 5.16699 -50 15.5s-20 26.166 -20 47.499c0 13.333 2.83301 26.833 8.5 40.5s13 26.834 22 39.501s19 24.167 30 34.5s21.833 19.166 32.5 26.499h-289z" />
    <glyph glyph-name="eogonek" unicode="&#x119;" horiz-adv-x="471" 
d="M184 -140c0 13.333 2.67188 26.499 8.00488 39.499s12.166 25.167 20.499 36.5s17.333 21.833 27 31.5s18.834 18.167 27.501 25.5c-16.667 -3.33301 -30.667 -5 -42 -5c-56 0 -100.5 16.833 -133.5 50.5s-49.5 82.834 -49.5 147.501c0 45.333 7.33301 86.833 22 124.5
s33.667 70 57 97s50 47.833 80 62.5s60.333 22 91 22c26 0 48.167 -4.16699 66.5 -12.5s33.166 -20 44.499 -35s19.666 -33 24.999 -54s8 -43.833 8 -68.5c0 -17.333 -1.33301 -33.333 -4 -48s-5.66699 -26.667 -9 -36h-335c-6.66699 -38 -7.33398 -70.5 -2.00098 -97.5
s14.666 -49.167 27.999 -66.5s30.166 -30.166 50.499 -38.499s42.5 -12.5 66.5 -12.5c21.333 0 42.333 4.66699 63 14s39.667 20.333 57 33l19 -30c-54 -35.333 -92.167 -66.833 -114.5 -94.5s-33.5 -52.834 -33.5 -75.501c0 -12.667 3.5 -22.5 10.5 -29.5
s16.167 -10.5 27.5 -10.5c13.333 0 27 4 41 12l11 -27c-9.33301 -5.33301 -19.333 -9.66602 -30 -12.999s-20.667 -5 -30 -5c-19.333 0 -35.5 5.16699 -48.5 15.5s-19.5 26.166 -19.5 47.499zM392.005 270.999c4 18.667 5.99902 37.668 5.99902 57.001
c0 16 -1.83301 31.833 -5.5 47.5s-9.83398 29.5 -18.501 41.5s-20 21.667 -34 29s-31.333 11 -52 11c-21.333 0 -42.166 -4.5 -62.499 -13.5s-39.166 -21.833 -56.499 -38.5s-32.5 -36.334 -45.5 -59.001s-22.833 -47.667 -29.5 -75h298z" />
    <glyph glyph-name="Ecaron" unicode="&#x11a;" horiz-adv-x="489" 
d="M170 659h348l-8 -37h-305l-51 -254h258l-8 -37h-256l-60 -294h314l-8 -37h-355zM371 709h-37l-72 104h35l56 -74h4l87 74h39z" />
    <glyph glyph-name="ecaron" unicode="&#x11b;" horiz-adv-x="471" 
d="M42 186c0 45.333 7.33789 86.8311 22.0049 124.498s33.667 70 57 97s50 47.833 80 62.5s60.333 22 91 22c26 0 48.167 -4.16699 66.5 -12.5s33.166 -20 44.499 -35s19.666 -33 24.999 -54s8 -43.833 8 -68.5c0 -17.333 -1.33301 -33.333 -4 -48s-5.66699 -26.667 -9 -36
h-335c-6.66699 -38 -7.33398 -70.5 -2.00098 -97.5s14.666 -49.167 27.999 -66.5s30.166 -30.166 50.499 -38.499s42.5 -12.5 66.5 -12.5c21.333 0 42.333 4.66699 63 14s39.667 20.333 57 33l19 -30c-19.333 -14 -41.333 -26.167 -66 -36.5s-51 -15.5 -79 -15.5
c-56 0 -100.5 16.833 -133.5 50.5s-49.5 82.834 -49.5 147.501zM392.005 270.998c4 18.667 5.99902 37.668 5.99902 57.001c0 16 -1.83301 31.833 -5.5 47.5s-9.83398 29.5 -18.501 41.5s-20 21.667 -34 29s-31.333 11 -52 11c-21.333 0 -42.166 -4.5 -62.499 -13.5
s-39.166 -21.833 -56.499 -38.5s-32.5 -36.334 -45.5 -59.001s-22.833 -47.667 -29.5 -75h298zM319.004 569.999h-29l-68 136h32l54 -97h4l92 97h37z" />
    <glyph glyph-name="Gcircumflex" unicode="&#x11c;" horiz-adv-x="575" 
d="M58 248c0 50 7.66309 100 22.9961 150s37.5 95.333 66.5 136s64.833 73.667 107.5 99s91.667 38 147 38c18.667 0 35.834 -2.5 51.501 -7.5s29.834 -11.833 42.501 -20.5s24 -18.5 34 -29.5s19 -22.833 27 -35.5l-32 -23c-13.333 22.667 -30.166 41.5 -50.499 56.5
s-45.5 22.5 -75.5 22.5c-47.333 0 -89.5 -12 -126.5 -36s-68.167 -54.5 -93.5 -91.5s-44.666 -77.833 -57.999 -122.5s-20 -88 -20 -130c0 -31.333 3.5 -61 10.5 -89s18.333 -52.333 34 -73s35.834 -37 60.501 -49s54.667 -18 90 -18c30 0 56.167 4.83301 78.5 14.5
s41.166 21.5 56.499 35.5l42 211h-152l8 36h193l-55 -268c-23.333 -20 -49.5 -36 -78.5 -48s-61.5 -18 -97.5 -18c-39.333 0 -73.5 6.33301 -102.5 19s-53.167 30.5 -72.5 53.5s-33.833 50.5 -43.5 82.5s-14.5 67 -14.5 105zM397.996 813h38l71 -104h-35l-56 74h-4l-86 -74
h-40z" />
    <glyph glyph-name="gcircumflex" unicode="&#x11d;" horiz-adv-x="521" 
d="M479 480l-105.002 -521c-12 -59.333 -35.5 -105.833 -70.5 -139.5s-80.5 -50.5 -136.5 -50.5c-34.667 0 -65.167 6.66699 -91.5 20s-50.166 28.666 -71.499 45.999l23 30c18 -16.667 38.667 -30.834 62 -42.501s50 -17.5 80 -17.5c47.333 0 84.333 15.333 111 46
s45.667 71.667 57 123l24 108h-4c-24.667 -23.333 -51.5 -43.166 -80.5 -59.499s-60.167 -24.5 -93.5 -24.5c-41.333 0 -74.833 14.5 -100.5 43.5s-38.5 71.5 -38.5 127.5c0 44.667 7.33301 86.5 22 125.5s34 73.167 58 102.5s51.167 52.5 81.5 69.5s61.5 25.5 93.5 25.5
c28 0 52.333 -7.16699 73 -21.5s37.334 -33.166 50.001 -56.499h4l19 66h34zM190.998 35c26.667 0 55.8311 8.66504 87.498 25.998s61.167 41 88.5 71l50 237c-18.667 31.333 -37.5 53.666 -56.5 66.999s-39.833 20 -62.5 20c-27.333 0 -53.666 -8.16699 -78.999 -24.5
s-47.833 -37.666 -67.5 -63.999s-35.5 -56.166 -47.5 -89.499s-18 -67.333 -18 -102c0 -47.333 9.33301 -82.666 28 -105.999s44.334 -35 77.001 -35zM331.995 705.998h29l67 -136h-32l-53 98h-4l-93 -98h-36z" />
    <glyph glyph-name="Gbreve" unicode="&#x11e;" horiz-adv-x="575" 
d="M58 248c0 50 7.66309 100 22.9961 150s37.5 95.333 66.5 136s64.833 73.667 107.5 99s91.667 38 147 38c18.667 0 35.834 -2.5 51.501 -7.5s29.834 -11.833 42.501 -20.5s24 -18.5 34 -29.5s19 -22.833 27 -35.5l-32 -23c-13.333 22.667 -30.166 41.5 -50.499 56.5
s-45.5 22.5 -75.5 22.5c-47.333 0 -89.5 -12 -126.5 -36s-68.167 -54.5 -93.5 -91.5s-44.666 -77.833 -57.999 -122.5s-20 -88 -20 -130c0 -31.333 3.5 -61 10.5 -89s18.333 -52.333 34 -73s35.834 -37 60.501 -49s54.667 -18 90 -18c30 0 56.167 4.83301 78.5 14.5
s41.166 21.5 56.499 35.5l42 211h-152l8 36h193l-55 -268c-23.333 -20 -49.5 -36 -78.5 -48s-61.5 -18 -97.5 -18c-39.333 0 -73.5 6.33301 -102.5 19s-53.167 30.5 -72.5 53.5s-33.833 50.5 -43.5 82.5s-14.5 67 -14.5 105zM396.996 709c-18 0 -32.835 3.33301 -44.502 10
s-21 15 -28 25s-11.667 21.167 -14 33.5s-3.16602 24.166 -2.49902 35.499h28c-0.666992 -9.33301 0.166016 -18.333 2.49902 -27s6 -16.5 11 -23.5s11.833 -12.5 20.5 -16.5s19.334 -6 32.001 -6c12 0 22.833 2.16699 32.5 6.5s18.334 10 26.001 17
s14.334 14.833 20.001 23.5s10.167 17.334 13.5 26.001h30c-4 -12 -9.33301 -24.167 -16 -36.5s-15.334 -23.5 -26.001 -33.5s-23 -18.167 -37 -24.5s-30 -9.5 -48 -9.5z" />
    <glyph glyph-name="gbreve" unicode="&#x11f;" horiz-adv-x="521" 
d="M479 480l-105.002 -521c-12 -59.333 -35.5 -105.833 -70.5 -139.5s-80.5 -50.5 -136.5 -50.5c-34.667 0 -65.167 6.66699 -91.5 20s-50.166 28.666 -71.499 45.999l23 30c18 -16.667 38.667 -30.834 62 -42.501s50 -17.5 80 -17.5c47.333 0 84.333 15.333 111 46
s45.667 71.667 57 123l24 108h-4c-24.667 -23.333 -51.5 -43.166 -80.5 -59.499s-60.167 -24.5 -93.5 -24.5c-41.333 0 -74.833 14.5 -100.5 43.5s-38.5 71.5 -38.5 127.5c0 44.667 7.33301 86.5 22 125.5s34 73.167 58 102.5s51.167 52.5 81.5 69.5s61.5 25.5 93.5 25.5
c28 0 52.333 -7.16699 73 -21.5s37.334 -33.166 50.001 -56.499h4l19 66h34zM190.998 35c26.667 0 55.8311 8.66504 87.498 25.998s61.167 41 88.5 71l50 237c-18.667 31.333 -37.5 53.666 -56.5 66.999s-39.833 20 -62.5 20c-27.333 0 -53.666 -8.16699 -78.999 -24.5
s-47.833 -37.666 -67.5 -63.999s-35.5 -56.166 -47.5 -89.499s-18 -67.333 -18 -102c0 -47.333 9.33301 -82.666 28 -105.999s44.334 -35 77.001 -35zM320.995 575.998c-19.333 0 -34.998 3.49902 -46.998 10.499s-21.333 16.167 -28 27.5s-10.834 23.833 -12.501 37.5
s-1.83398 27.5 -0.500977 41.5h28c-2 -26 2 -47 12 -63s27 -24 51 -24c24.667 0 45.667 8.33301 63 25s30.333 37.334 39 62.001h30c-4.66699 -14 -10.667 -27.833 -18 -41.5s-16.5 -26.167 -27.5 -37.5s-23.833 -20.5 -38.5 -27.5s-31.667 -10.5 -51 -10.5z" />
    <glyph glyph-name="Gdotaccent" unicode="&#x120;" horiz-adv-x="575" 
d="M58 248c0 50 7.66309 100 22.9961 150s37.5 95.333 66.5 136s64.833 73.667 107.5 99s91.667 38 147 38c18.667 0 35.834 -2.5 51.501 -7.5s29.834 -11.833 42.501 -20.5s24 -18.5 34 -29.5s19 -22.833 27 -35.5l-32 -23c-13.333 22.667 -30.166 41.5 -50.499 56.5
s-45.5 22.5 -75.5 22.5c-47.333 0 -89.5 -12 -126.5 -36s-68.167 -54.5 -93.5 -91.5s-44.666 -77.833 -57.999 -122.5s-20 -88 -20 -130c0 -31.333 3.5 -61 10.5 -89s18.333 -52.333 34 -73s35.834 -37 60.501 -49s54.667 -18 90 -18c30 0 56.167 4.83301 78.5 14.5
s41.166 21.5 56.499 35.5l42 211h-152l8 36h193l-55 -268c-23.333 -20 -49.5 -36 -78.5 -48s-61.5 -18 -97.5 -18c-39.333 0 -73.5 6.33301 -102.5 19s-53.167 30.5 -72.5 53.5s-33.833 50.5 -43.5 82.5s-14.5 67 -14.5 105zM402.996 723
c-9.33301 0 -17.335 3.00098 -24.002 9.00098s-10 14 -10 24c0 13.333 4.33301 24.166 13 32.499s18.334 12.5 29.001 12.5c9.33301 0 17.333 -3.16699 24 -9.5s10 -14.833 10 -25.5c0 -12.667 -4.16699 -23 -12.5 -31s-18.166 -12 -29.499 -12z" />
    <glyph glyph-name="gdotaccent" unicode="&#x121;" horiz-adv-x="521" 
d="M479 480l-105.002 -521c-12 -59.333 -35.5 -105.833 -70.5 -139.5s-80.5 -50.5 -136.5 -50.5c-34.667 0 -65.167 6.66699 -91.5 20s-50.166 28.666 -71.499 45.999l23 30c18 -16.667 38.667 -30.834 62 -42.501s50 -17.5 80 -17.5c47.333 0 84.333 15.333 111 46
s45.667 71.667 57 123l24 108h-4c-24.667 -23.333 -51.5 -43.166 -80.5 -59.499s-60.167 -24.5 -93.5 -24.5c-41.333 0 -74.833 14.5 -100.5 43.5s-38.5 71.5 -38.5 127.5c0 44.667 7.33301 86.5 22 125.5s34 73.167 58 102.5s51.167 52.5 81.5 69.5s61.5 25.5 93.5 25.5
c28 0 52.333 -7.16699 73 -21.5s37.334 -33.166 50.001 -56.499h4l19 66h34zM190.998 35c26.667 0 55.8311 8.66504 87.498 25.998s61.167 41 88.5 71l50 237c-18.667 31.333 -37.5 53.666 -56.5 66.999s-39.833 20 -62.5 20c-27.333 0 -53.666 -8.16699 -78.999 -24.5
s-47.833 -37.666 -67.5 -63.999s-35.5 -56.166 -47.5 -89.499s-18 -67.333 -18 -102c0 -47.333 9.33301 -82.666 28 -105.999s44.334 -35 77.001 -35zM326.995 595.998c-9.33301 0 -17.335 3.16895 -24.002 9.50195s-10 14.166 -10 23.499
c0 13.333 4.33301 24.166 13 32.499s18.334 12.5 29.001 12.5c9.33301 0 17.333 -3 24 -9s10 -14.333 10 -25c0 -12.667 -4.16699 -23.167 -12.5 -31.5s-18.166 -12.5 -29.499 -12.5z" />
    <glyph glyph-name="uni0122" unicode="&#x122;" horiz-adv-x="575" 
d="M58 248c0 50 7.66309 100 22.9961 150s37.5 95.333 66.5 136s64.833 73.667 107.5 99s91.667 38 147 38c18.667 0 35.834 -2.5 51.501 -7.5s29.834 -11.833 42.501 -20.5s24 -18.5 34 -29.5s19 -22.833 27 -35.5l-32 -23c-13.333 22.667 -30.166 41.5 -50.499 56.5
s-45.5 22.5 -75.5 22.5c-47.333 0 -89.5 -12 -126.5 -36s-68.167 -54.5 -93.5 -91.5s-44.666 -77.833 -57.999 -122.5s-20 -88 -20 -130c0 -31.333 3.5 -61 10.5 -89s18.333 -52.333 34 -73s35.834 -37 60.501 -49s54.667 -18 90 -18c30 0 56.167 4.83301 78.5 14.5
s41.166 21.5 56.499 35.5l42 211h-152l8 36h193l-55 -268c-23.333 -20 -49.5 -36 -78.5 -48s-61.5 -18 -97.5 -18c-39.333 0 -73.5 6.33301 -102.5 19s-53.167 30.5 -72.5 53.5s-33.833 50.5 -43.5 82.5s-14.5 67 -14.5 105zM259.996 -49
c17.333 -5.33301 31.833 -12.3301 43.5 -20.9971s17.5 -21 17.5 -37c0 -14.667 -3.66699 -27.5 -11 -38.5s-17.166 -20.333 -29.499 -28s-26.333 -13.834 -42 -18.501s-31.834 -8 -48.501 -10l-4 24c28 5.33301 51.667 13.166 71 23.499s29 24.166 29 41.499
c0 12.667 -4.33301 21.5 -13 26.5s-18 9.16699 -28 12.5z" />
    <glyph glyph-name="uni0123" unicode="&#x123;" horiz-adv-x="521" 
d="M479 480l-105.002 -521c-12 -59.333 -35.5 -105.833 -70.5 -139.5s-80.5 -50.5 -136.5 -50.5c-34.667 0 -65.167 6.66699 -91.5 20s-50.166 28.666 -71.499 45.999l23 30c18 -16.667 38.667 -30.834 62 -42.501s50 -17.5 80 -17.5c47.333 0 84.333 15.333 111 46
s45.667 71.667 57 123l24 108h-4c-24.667 -23.333 -51.5 -43.166 -80.5 -59.499s-60.167 -24.5 -93.5 -24.5c-41.333 0 -74.833 14.5 -100.5 43.5s-38.5 71.5 -38.5 127.5c0 44.667 7.33301 86.5 22 125.5s34 73.167 58 102.5s51.167 52.5 81.5 69.5s61.5 25.5 93.5 25.5
c28 0 52.333 -7.16699 73 -21.5s37.334 -33.166 50.001 -56.499h4l19 66h34zM190.998 35c26.667 0 55.8311 8.66504 87.498 25.998s61.167 41 88.5 71l50 237c-18.667 31.333 -37.5 53.666 -56.5 66.999s-39.833 20 -62.5 20c-27.333 0 -53.666 -8.16699 -78.999 -24.5
s-47.833 -37.666 -67.5 -63.999s-35.5 -56.166 -47.5 -89.499s-18 -67.333 -18 -102c0 -47.333 9.33301 -82.666 28 -105.999s44.334 -35 77.001 -35zM336.995 541.998c-17.333 5.33301 -31.833 12.4961 -43.5 21.4961s-17.5 21.5 -17.5 37.5c0 14.667 3.66699 27.5 11 38.5
s17.166 20.333 29.499 28s26.333 13.834 42 18.501s31.834 8 48.501 10l4 -24c-28 -5.33301 -51.667 -13.166 -71 -23.499s-29 -24.166 -29 -41.499c0 -12.667 4.33301 -21.667 13 -27s18 -9.66602 28 -12.999z" />
    <glyph glyph-name="Hcircumflex" unicode="&#x124;" horiz-adv-x="605" 
d="M170 659h43l-59 -291h340l59 291h43l-132 -659h-43l67 331h-340l-66 -331h-43zM380 813h38l71 -104h-35l-56 74h-4l-86 -74h-40z" />
    <glyph glyph-name="hcircumflex" unicode="&#x125;" horiz-adv-x="504" 
d="M184 719l41.001 -0.00195312l-54 -266l-13 -50h4c31.333 26 60.833 47.333 88.5 64s56.167 25 85.5 25c41.333 0 70.666 -10.667 87.999 -32s26 -49.666 26 -84.999c0 -12 -0.5 -22.333 -1.5 -31s-3.16699 -20 -6.5 -34l-62 -310h-41l62 304
c2.66699 14.667 4.66699 26.334 6 35.001s2 17.667 2 27c0 30 -6.66699 52.333 -20 67s-35.333 22 -66 22c-21.333 0 -46 -7.83301 -74 -23.5s-60 -41.5 -96 -77.5l-71 -354h-42zM207.001 855.998h38l71 -104h-35l-56 74h-4l-86 -74h-40z" />
    <glyph glyph-name="Hbar" unicode="&#x126;" horiz-adv-x="633" 
d="M533 495h-340l-26 -127h340zM651 495h-75l-99 -495h-43l66 331h-339l-67 -331h-43l99 495h-71l7 29l70 2l27 133h43l-27 -133h340l27 133h43l-27 -133h76z" />
    <glyph glyph-name="hbar" unicode="&#x127;" horiz-adv-x="504" 
d="M158 383c31.333 26 60.834 47.3311 88.501 63.998s56.167 25 85.5 25c41.333 0 70.666 -10.667 87.999 -32s26 -49.666 26 -84.999c0 -12 -0.5 -22.333 -1.5 -31s-3.16699 -20 -6.5 -34l-58 -290h-41l58 284c2.66699 14.667 4.66699 26.334 6 35.001s2 17.667 2 27
c0 30 -6.66699 52.333 -20 67s-35.333 22 -66 22c-21.333 0 -46 -7.83301 -74 -23.5s-60 -41.5 -96 -77.5l-67 -334h-42l116 581h-72l5 27l74 4l21 107h41l-22 -107h184l-7 -31h-183l-30 -148l-13 -50h4z" />
    <glyph glyph-name="Itilde" unicode="&#x128;" horiz-adv-x="227" 
d="M170 659h43l-131 -659h-43zM69 716c2 10.667 5.66699 21.5 11 32.5s11.833 20.667 19.5 29s16.167 15.166 25.5 20.499s19.333 8 30 8c11.333 0 21.166 -3.16699 29.499 -9.5s16 -13.166 23 -20.499s14 -14.166 21 -20.499s15.5 -9.5 25.5 -9.5
c12 0 22.5 5.33301 31.5 16s16.167 24.667 21.5 42h28c-2 -11.333 -5.66699 -22.333 -11 -33s-11.833 -20.167 -19.5 -28.5s-16.167 -15.166 -25.5 -20.499s-19.333 -8 -30 -8c-11.333 0 -21.166 3.16699 -29.499 9.5s-16 13.166 -23 20.499s-14 14.166 -21 20.499
s-15.5 9.5 -25.5 9.5c-12 0 -22.333 -5.33301 -31 -16s-15.667 -24.667 -21 -42h-29z" />
    <glyph glyph-name="itilde" unicode="&#x129;" horiz-adv-x="220" 
d="M137 480h41l-96 -480h-42zM57 581c7.33301 23.333 17.666 43.833 30.999 61.5s29.666 26.5 48.999 26.5c14 0 25.333 -3 34 -9s16.334 -12.667 23.001 -20s13.5 -14 20.5 -20s16.167 -9 27.5 -9c9.33301 0 18 5.33301 26 16s15 24 21 40h28
c-6.66699 -22.667 -16.667 -43 -30 -61s-29.666 -27 -48.999 -27c-14 0 -25.333 3 -34 9s-16.5 12.833 -23.5 20.5s-14.167 14.5 -21.5 20.5s-16.333 9 -27 9c-8.66699 0 -17 -5.5 -25 -16.5s-15.333 -24.5 -22 -40.5h-28z" />
    <glyph glyph-name="Imacron" unicode="&#x12a;" horiz-adv-x="227" 
d="M170 659h43l-131 -659h-43zM97 768h217l-7 -34h-217z" />
    <glyph glyph-name="imacron" unicode="&#x12b;" horiz-adv-x="220" 
d="M137 480h41l-96 -480h-42zM80 640h218l-5 -34h-219z" />
    <glyph glyph-name="uni012C" unicode="&#x12c;" horiz-adv-x="227" 
d="M170 659h43l-131 -659h-43zM194 709c-18 0 -32.835 3.33301 -44.502 10s-21 15 -28 25s-11.667 21.167 -14 33.5s-3.16602 24.166 -2.49902 35.499h28c-0.666992 -9.33301 0.166016 -18.333 2.49902 -27s6 -16.5 11 -23.5s11.833 -12.5 20.5 -16.5s19.334 -6 32.001 -6
c12 0 22.833 2.16699 32.5 6.5s18.334 10 26.001 17s14.334 14.833 20.001 23.5s10.167 17.334 13.5 26.001h30c-4 -12 -9.33301 -24.167 -16 -36.5s-15.334 -23.5 -26.001 -33.5s-23 -18.167 -37 -24.5s-30 -9.5 -48 -9.5z" />
    <glyph glyph-name="uni012D" unicode="&#x12d;" horiz-adv-x="220" 
d="M137 480h41l-96 -480h-42zM178 576c-19.333 0 -34.998 3.49902 -46.998 10.499s-21.333 16.167 -28 27.5s-10.834 23.833 -12.501 37.5s-1.83398 27.5 -0.500977 41.5h28c-2 -26 2 -47 12 -63s27 -24 51 -24c24.667 0 45.667 8.33301 63 25s30.333 37.334 39 62.001h30
c-4.66699 -14 -10.667 -27.833 -18 -41.5s-16.5 -26.167 -27.5 -37.5s-23.833 -20.5 -38.5 -27.5s-31.667 -10.5 -51 -10.5z" />
    <glyph glyph-name="Iogonek" unicode="&#x12e;" horiz-adv-x="227" 
d="M-2 -130c0 -12.667 3.5 -22.6631 10.5 -29.9961s16.167 -11 27.5 -11c7.33301 0 14 1 20 3s12.667 5 20 9l12 -24c-8.66699 -6.66699 -19.167 -11.834 -31.5 -15.501s-22.5 -5.5 -30.5 -5.5c-19.333 0 -35.333 5.16699 -48 15.5s-19 26.166 -19 47.499
c0 13.333 2.83301 26.833 8.5 40.5s12.667 26.834 21 39.501s17.5 24.167 27.5 34.5s19.333 19.166 28 26.499h-5l131 659h43l-131 -659c-10.667 -8.66699 -21 -18.334 -31 -29.001s-19 -21.667 -27 -33s-14.333 -22.833 -19 -34.5s-7 -22.834 -7 -33.501z" />
    <glyph glyph-name="iogonek" unicode="&#x12f;" horiz-adv-x="220" 
d="M137 480l40.999 0.000976562l-96 -480c-26 -21.333 -47 -42.666 -63 -63.999s-24 -43.333 -24 -66c0 -12.667 3.5 -22.5 10.5 -29.5s16.167 -10.5 27.5 -10.5c13.333 0 26.666 4 39.999 12l12 -27c-9.33301 -5.33301 -19.333 -9.66602 -30 -12.999s-20.667 -5 -30 -5
c-19.333 0 -35.5 5.16699 -48.5 15.5s-19.5 26.166 -19.5 47.499c0 13.333 2.83301 26.833 8.5 40.5s12.834 26.667 21.501 39s18.334 23.666 29.001 33.999s21 19.166 31 26.499h-7zM182.999 596.001c-9.33301 0 -17.166 3.16895 -23.499 9.50195s-9.5 14.166 -9.5 23.499
c0 13.333 4.16699 24.166 12.5 32.499s18.166 12.5 29.499 12.5c9.33301 0 17.166 -3 23.499 -9s9.5 -14.333 9.5 -25c0 -12.667 -4.16699 -23.167 -12.5 -31.5s-18.166 -12.5 -29.499 -12.5z" />
    <glyph glyph-name="Idotaccent" unicode="&#x130;" horiz-adv-x="227" 
d="M170 659h43l-131 -659h-43zM200 723c-9.33301 0 -17.335 3.00098 -24.002 9.00098s-10 14 -10 24c0 13.333 4.33301 24.166 13 32.499s18.334 12.5 29.001 12.5c9.33301 0 17.333 -3.16699 24 -9.5s10 -14.833 10 -25.5c0 -12.667 -4.16699 -23 -12.5 -31
s-18.166 -12 -29.499 -12z" />
    <glyph glyph-name="dotlessi" unicode="&#x131;" horiz-adv-x="220" 
d="M137 480h41l-96 -480h-42z" />
    <glyph glyph-name="Jcircumflex" unicode="&#x134;" horiz-adv-x="436" 
d="M334 172c-10 -56 -30.666 -100.667 -61.999 -134s-72 -50 -122 -50c-40 0 -72 9.5 -96 28.5s-41.667 43.5 -53 73.5l33 20c18 -56.667 57 -85 117 -85c38 0 68.667 13.833 92 41.5s39.666 64.5 48.999 110.5l96 482h43l-97 -487v0zM413.001 813h38l71 -104h-35l-56 74h-4
l-86 -74h-40z" />
    <glyph glyph-name="jcircumflex" unicode="&#x135;" horiz-adv-x="220" 
d="M64 -88c-9.33301 -44 -23.499 -78.5 -42.499 -103.5s-45.167 -37.5 -78.5 -37.5c-14.667 0 -26.667 1.5 -36 4.5s-18.333 6.83301 -27 11.5l16 33c6 -4 12.333 -7.16699 19 -9.5s16 -3.5 28 -3.5c20 0 36.167 9 48.5 27s22.166 42.333 29.499 73l116 573h41zM184.001 706
h29l67 -136h-32l-53 98h-4l-93 -98h-36z" />
    <glyph glyph-name="uni0136" unicode="&#x136;" horiz-adv-x="532" 
d="M170 659h43l-71 -358h2l378 358h51l-250 -243l151 -416h-45l-139 388l-160 -150l-48 -238h-43zM237 -49c17.333 -5.33301 31.833 -12.3301 43.5 -20.9971s17.5 -21 17.5 -37c0 -14.667 -3.66699 -27.5 -11 -38.5s-17.166 -20.333 -29.499 -28
s-26.333 -13.834 -42 -18.501s-31.834 -8 -48.501 -10l-4 24c28 5.33301 51.667 13.166 71 23.499s29 24.166 29 41.499c0 12.667 -4.33301 21.5 -13 26.5s-18 9.16699 -28 12.5z" />
    <glyph glyph-name="uni0137" unicode="&#x137;" horiz-adv-x="447" 
d="M184 719h41l-105 -529h3l284 290h50l-188 -195l116 -285h-43l-104 258l-131 -133l-25 -125h-42zM179 -49c17.333 -5.33301 31.833 -12.3301 43.5 -20.9971s17.5 -21 17.5 -37c0 -14.667 -3.66699 -27.5 -11 -38.5s-17.166 -20.333 -29.499 -28
s-26.333 -13.834 -42 -18.501s-31.834 -8 -48.501 -10l-4 24c28 5.33301 51.667 13.166 71 23.499s29 24.166 29 41.499c0 12.667 -4.33301 21.5 -13 26.5s-18 9.16699 -28 12.5z" />
    <glyph glyph-name="kgreenlandic" unicode="&#x138;" horiz-adv-x="447" 
d="M137 480h41l-58 -290h3l284 290h50l-188 -195l116 -285h-43l-104 258l-131 -133l-25 -125h-42z" />
    <glyph glyph-name="Lacute" unicode="&#x139;" horiz-adv-x="440" 
d="M170 659h43l-123 -622h293l-8 -37h-336zM269 813h52l-122 -104h-39z" />
    <glyph glyph-name="lacute" unicode="&#x13a;" horiz-adv-x="232" 
d="M184 719l40.999 0.000976562l-131 -660c-1.33301 -5.33301 -2 -9.5 -2 -12.5v-7.5c0 -10 4.66699 -15 14 -15c2.66699 0 4.83398 0.166992 6.50098 0.5s5.16699 1.5 10.5 3.5l3 -33c-5.33301 -2.66699 -10.5 -4.5 -15.5 -5.5s-11.167 -1.5 -18.5 -1.5
c-13.333 0 -24 3.66699 -32 11s-12 18 -12 32c0 7.33301 1.66699 17.666 5 30.999zM281.999 864.001h52l-122 -104h-39z" />
    <glyph glyph-name="uni013B" unicode="&#x13b;" horiz-adv-x="440" 
d="M170 659h43l-123 -622h293l-8 -37h-336zM191 -49c17.333 -5.33301 31.833 -12.3301 43.5 -20.9971s17.5 -21 17.5 -37c0 -14.667 -3.66699 -27.5 -11 -38.5s-17.166 -20.333 -29.499 -28s-26.333 -13.834 -42 -18.501s-31.834 -8 -48.501 -10l-4 24
c28 5.33301 51.667 13.166 71 23.499s29 24.166 29 41.499c0 12.667 -4.33301 21.5 -13 26.5s-18 9.16699 -28 12.5z" />
    <glyph glyph-name="uni013C" unicode="&#x13c;" horiz-adv-x="232" 
d="M184 719l40.999 0.000976562l-131 -660c-1.33301 -5.33301 -2 -9.5 -2 -12.5v-7.5c0 -10 4.66699 -15 14 -15c2.66699 0 4.83398 0.166992 6.50098 0.5s5.16699 1.5 10.5 3.5l3 -33c-5.33301 -2.66699 -10.5 -4.5 -15.5 -5.5s-11.167 -1.5 -18.5 -1.5
c-13.333 0 -24 3.66699 -32 11s-12 18 -12 32c0 7.33301 1.66699 17.666 5 30.999zM33.999 -48.999c17.333 -5.33301 31.833 -12.3301 43.5 -20.9971s17.5 -21 17.5 -37c0 -14.667 -3.66699 -27.5 -11 -38.5s-17.166 -20.333 -29.499 -28s-26.333 -13.834 -42 -18.501
s-31.834 -8 -48.501 -10l-4 24c28 5.33301 51.667 13.166 71 23.499s29 24.166 29 41.499c0 12.667 -4.33301 21.5 -13 26.5s-18 9.16699 -28 12.5z" />
    <glyph glyph-name="Lcaron" unicode="&#x13d;" horiz-adv-x="440" 
d="M170 659h43l-123 -622h293l-8 -37h-336zM358 516l40 206h35l-9 -50l-40 -156h-26z" />
    <glyph glyph-name="lcaron" unicode="&#x13e;" horiz-adv-x="219" 
d="M184 719l40.999 0.000976562l-131 -660c-1.33301 -5.33301 -2 -9.5 -2 -12.5v-7.5c0 -10 4.66699 -15 14 -15c2.66699 0 4.83398 0.166992 6.50098 0.5s5.16699 1.5 10.5 3.5l3 -33c-5.33301 -2.66699 -10.5 -4.5 -15.5 -5.5s-11.167 -1.5 -18.5 -1.5
c-13.333 0 -24 3.66699 -32 11s-12 18 -12 32c0 7.33301 1.66699 17.666 5 30.999zM245.999 548.001l40 206h35l-9 -50l-40 -156h-26z" />
    <glyph glyph-name="Ldot" unicode="&#x13f;" horiz-adv-x="440" 
d="M170 659h43l-123 -622h293l-8 -37h-336zM345 286c-10.667 0 -18.833 3.49902 -24.5 10.499s-8.5 15.167 -8.5 24.5c0 13.333 4.83301 25.5 14.5 36.5s21.167 16.5 34.5 16.5c10.667 0 18.5 -3.5 23.5 -10.5s7.5 -15.833 7.5 -26.5c0 -13.333 -4.5 -25.166 -13.5 -35.499
s-20.167 -15.5 -33.5 -15.5z" />
    <glyph glyph-name="ldot" unicode="&#x140;" horiz-adv-x="278" 
d="M184 719l40.999 0.000976562l-131 -660c-1.33301 -5.33301 -2 -9.5 -2 -12.5v-7.5c0 -10 4.66699 -15 14 -15c2.66699 0 4.83398 0.166992 6.50098 0.5s5.16699 1.5 10.5 3.5l3 -33c-5.33301 -2.66699 -10.5 -4.5 -15.5 -5.5s-11.167 -1.5 -18.5 -1.5
c-13.333 0 -24 3.66699 -32 11s-12 18 -12 32c0 7.33301 1.66699 17.666 5 30.999zM256.999 285.001c-10.667 0 -18.833 3.49902 -24.5 10.499s-8.5 15.167 -8.5 24.5c0 13.333 4.83301 25.5 14.5 36.5s21.167 16.5 34.5 16.5c10.667 0 18.5 -3.5 23.5 -10.5
s7.5 -15.833 7.5 -26.5c0 -13.333 -4.5 -25.166 -13.5 -35.499s-20.167 -15.5 -33.5 -15.5z" />
    <glyph glyph-name="Lslash" unicode="&#x141;" horiz-adv-x="440" 
d="M383 37l-8 -37h-336l50 253l-92 -43l8 42l93 44l72 363h43l-68 -341l208 99l-8 -42l-208 -100l-47 -238h293z" />
    <glyph glyph-name="lslash" unicode="&#x142;" horiz-adv-x="233" 
d="M95 59c-1.33301 -5.33301 -2 -9.5 -2 -12.5v-7.5c0 -10 5 -15 15 -15c2 0 3.83301 0.166992 5.5 0.5s5.16699 1.5 10.5 3.5l3 -33c-5.33301 -2.66699 -10.5 -4.5 -15.5 -5.5s-11.167 -1.5 -18.5 -1.5c-13.333 0 -23.833 3.66699 -31.5 11s-11.5 18 -11.5 32
c0 4 0.333008 8.66699 1 14s1.66699 11 3 17l60 300l-72 -42l8 44l72 41l63 314h41l-57 -287l81 49l-7 -44l-83 -49z" />
    <glyph glyph-name="Nacute" unicode="&#x143;" horiz-adv-x="605" 
d="M170 659h45.999l175 -468l46 -134h4c5.33301 32 10.333 64.333 15 97s10.334 65 17.001 97l81 408h43l-132 -659h-44l-173 466l-48 139h-4l-16 -97c-5.33301 -32 -11.333 -63.667 -18 -95l-81 -413h-42zM459.999 813h52l-122 -104h-39z" />
    <glyph glyph-name="nacute" unicode="&#x144;" horiz-adv-x="510" 
d="M137 480l34.001 -0.00195312l-11 -76h4c30 25.333 58.667 46.333 86 63s56 25 86 25c41.333 0 70.666 -10.667 87.999 -32s26 -49.666 26 -84.999c0 -12 -0.5 -22.333 -1.5 -31s-3.16699 -20 -6.5 -34l-62 -310h-41l62 304c2.66699 14.667 4.66699 26.334 6 35.001
s2 17.667 2 27c0 30 -6.66699 52.333 -20 67s-35.333 22 -66 22c-21.333 0 -46 -7.83301 -74 -23.5s-60 -41.5 -96 -77.5l-71 -354h-42zM392.001 705.998h50l-128 -136h-38z" />
    <glyph glyph-name="uni0145" unicode="&#x145;" horiz-adv-x="605" 
d="M170 659h45.999l175 -468l46 -134h4c5.33301 32 10.333 64.333 15 97s10.334 65 17.001 97l81 408h43l-132 -659h-44l-173 466l-48 139h-4l-16 -97c-5.33301 -32 -11.333 -63.667 -18 -95l-81 -413h-42zM231.999 -57c17.333 -5.33301 31.833 -12.3301 43.5 -20.9971
s17.5 -21 17.5 -37c0 -14.667 -3.66699 -27.5 -11 -38.5s-17.166 -20.333 -29.499 -28s-26.333 -13.834 -42 -18.501s-31.834 -8 -48.501 -10l-4 24c28 5.33301 51.667 13.166 71 23.499s29 24.166 29 41.499c0 12.667 -4.33301 21.5 -13 26.5s-18 9.16699 -28 12.5z" />
    <glyph glyph-name="uni0146" unicode="&#x146;" horiz-adv-x="510" 
d="M137 480l34.001 -0.00195312l-11 -76h4c30 25.333 58.667 46.333 86 63s56 25 86 25c41.333 0 70.666 -10.667 87.999 -32s26 -49.666 26 -84.999c0 -12 -0.5 -22.333 -1.5 -31s-3.16699 -20 -6.5 -34l-62 -310h-41l62 304c2.66699 14.667 4.66699 26.334 6 35.001
s2 17.667 2 27c0 30 -6.66699 52.333 -20 67s-35.333 22 -66 22c-21.333 0 -46 -7.83301 -74 -23.5s-60 -41.5 -96 -77.5l-71 -354h-42zM191.001 -49.002c17.333 -5.33301 31.833 -12.3301 43.5 -20.9971s17.5 -21 17.5 -37c0 -14.667 -3.66699 -27.5 -11 -38.5
s-17.166 -20.333 -29.499 -28s-26.333 -13.834 -42 -18.501s-31.834 -8 -48.501 -10l-4 24c28 5.33301 51.667 13.166 71 23.499s29 24.166 29 41.499c0 12.667 -4.33301 21.5 -13 26.5s-18 9.16699 -28 12.5z" />
    <glyph glyph-name="Ncaron" unicode="&#x147;" horiz-adv-x="605" 
d="M170 659h45.999l175 -468l46 -134h4c5.33301 32 10.333 64.333 15 97s10.334 65 17.001 97l81 408h43l-132 -659h-44l-173 466l-48 139h-4l-16 -97c-5.33301 -32 -11.333 -63.667 -18 -95l-81 -413h-42zM406.999 709h-37l-72 104h35l56 -74h4l87 74h39z" />
    <glyph glyph-name="ncaron" unicode="&#x148;" horiz-adv-x="510" 
d="M137 480l34.001 -0.00195312l-11 -76h4c30 25.333 58.667 46.333 86 63s56 25 86 25c41.333 0 70.666 -10.667 87.999 -32s26 -49.666 26 -84.999c0 -12 -0.5 -22.333 -1.5 -31s-3.16699 -20 -6.5 -34l-62 -310h-41l62 304c2.66699 14.667 4.66699 26.334 6 35.001
s2 17.667 2 27c0 30 -6.66699 52.333 -20 67s-35.333 22 -66 22c-21.333 0 -46 -7.83301 -74 -23.5s-60 -41.5 -96 -77.5l-71 -354h-42zM348.001 569.998h-29l-68 136h32l54 -97h4l92 97h37z" />
    <glyph glyph-name="napostrophe" unicode="&#x149;" horiz-adv-x="690" 
d="M113 508c27.333 15.333 48.001 33.501 62.001 54.501s21.333 42.167 22 63.5h-4c-10.667 0 -19.5 2.83301 -26.5 8.5s-10.5 14.167 -10.5 25.5s3.66699 21 11 29s16.666 12 27.999 12s20.833 -4.33301 28.5 -13s11.5 -21 11.5 -37c0 -38 -10.167 -71.333 -30.5 -100
s-46.5 -51.334 -78.5 -68.001zM320.001 480.001l34.001 -0.00195312l-11 -76h4c30 25.333 58.667 46.333 86 63s56 25 86 25c41.333 0 70.666 -10.667 87.999 -32s26 -49.666 26 -84.999c0 -12 -0.5 -22.333 -1.5 -31s-3.16699 -20 -6.5 -34l-62 -310h-41l62 304
c2.66699 14.667 4.66699 26.334 6 35.001s2 17.667 2 27c0 30 -6.66699 52.333 -20 67s-35.333 22 -66 22c-21.333 0 -46 -7.83301 -74 -23.5s-60 -41.5 -96 -77.5l-71 -354h-42z" />
    <glyph glyph-name="Omacron" unicode="&#x14c;" horiz-adv-x="618" 
d="M277 -12c-36 0 -67.5 6.66699 -94.5 20s-49.5 32.166 -67.5 56.499s-31.5 53.333 -40.5 87s-13.5 70.5 -13.5 110.5c0 30.667 3.16699 62 9.5 94s15.666 63.167 27.999 93.5s27.5 58.833 45.5 85.5s38.667 50.167 62 70.5s49 36.333 77 48s58.333 17.5 91 17.5
c36 0 67.5 -6.66699 94.5 -20s49.5 -32.166 67.5 -56.499s31.5 -53.333 40.5 -87s13.5 -70.5 13.5 -110.5c0 -30.667 -3.16699 -62 -9.5 -94s-15.666 -63.167 -27.999 -93.5s-27.5 -58.833 -45.5 -85.5s-38.667 -50.167 -62 -70.5s-49 -36.333 -77 -48
s-58.333 -17.5 -91 -17.5zM371 634c-42 0 -79.501 -11.833 -112.501 -35.5s-60.833 -53.667 -83.5 -90s-40 -76 -52 -119s-18 -83.833 -18 -122.5c0 -36 3.33301 -68.833 10 -98.5s17.167 -55.167 31.5 -76.5s32.5 -37.833 54.5 -49.5s48.333 -17.5 79 -17.5
c42 0 79.667 11.833 113 35.5s61.333 53.667 84 90s40 76 52 119s18 83.833 18 122.5c0 36 -3.33301 68.833 -10 98.5s-17.167 55.167 -31.5 76.5s-32.666 37.833 -54.999 49.5s-48.833 17.5 -79.5 17.5zM299.999 768h217l-7 -34h-217z" />
    <glyph glyph-name="omacron" unicode="&#x14d;" horiz-adv-x="504" 
d="M206 -12c-49.333 0 -88.667 16.5 -118 49.5s-44 79.833 -44 140.5c0 44.667 7 86.167 21 124.5s32.833 71.5 56.5 99.5s50.667 50 81 66s61.833 24 94.5 24c50 0 89.667 -16.5 119 -49.5s44 -79.833 44 -140.5c0 -44.667 -7.16699 -86.167 -21.5 -124.5
s-33.166 -71.5 -56.499 -99.5s-50.333 -50 -81 -66s-62.334 -24 -95.001 -24zM293.999 456c-26 0 -51.501 -7.33301 -76.501 -22s-47.333 -34.334 -67 -59.001s-35.5 -53.5 -47.5 -86.5s-18 -67.833 -18 -104.5c0 -52 10.833 -91.667 32.5 -119s52.5 -41 92.5 -41
c26 0 51.333 7.33301 76 22s46.834 34.334 66.501 59.001s35.5 53.5 47.5 86.5s18 68.167 18 105.5c0 52 -10.667 91.5 -32 118.5s-52 40.5 -92 40.5zM230.998 640h218l-5 -34h-219z" />
    <glyph glyph-name="uni014E" unicode="&#x14e;" horiz-adv-x="618" 
d="M277 -12c-36 0 -67.5 6.66699 -94.5 20s-49.5 32.166 -67.5 56.499s-31.5 53.333 -40.5 87s-13.5 70.5 -13.5 110.5c0 30.667 3.16699 62 9.5 94s15.666 63.167 27.999 93.5s27.5 58.833 45.5 85.5s38.667 50.167 62 70.5s49 36.333 77 48s58.333 17.5 91 17.5
c36 0 67.5 -6.66699 94.5 -20s49.5 -32.166 67.5 -56.499s31.5 -53.333 40.5 -87s13.5 -70.5 13.5 -110.5c0 -30.667 -3.16699 -62 -9.5 -94s-15.666 -63.167 -27.999 -93.5s-27.5 -58.833 -45.5 -85.5s-38.667 -50.167 -62 -70.5s-49 -36.333 -77 -48
s-58.333 -17.5 -91 -17.5zM371 634c-42 0 -79.501 -11.833 -112.501 -35.5s-60.833 -53.667 -83.5 -90s-40 -76 -52 -119s-18 -83.833 -18 -122.5c0 -36 3.33301 -68.833 10 -98.5s17.167 -55.167 31.5 -76.5s32.5 -37.833 54.5 -49.5s48.333 -17.5 79 -17.5
c42 0 79.667 11.833 113 35.5s61.333 53.667 84 90s40 76 52 119s18 83.833 18 122.5c0 36 -3.33301 68.833 -10 98.5s-17.167 55.167 -31.5 76.5s-32.666 37.833 -54.999 49.5s-48.833 17.5 -79.5 17.5zM396.999 709c-18 0 -32.835 3.33301 -44.502 10s-21 15 -28 25
s-11.667 21.167 -14 33.5s-3.16602 24.166 -2.49902 35.499h28c-0.666992 -9.33301 0.166016 -18.333 2.49902 -27s6 -16.5 11 -23.5s11.833 -12.5 20.5 -16.5s19.334 -6 32.001 -6c12 0 22.833 2.16699 32.5 6.5s18.334 10 26.001 17s14.334 14.833 20.001 23.5
s10.167 17.334 13.5 26.001h30c-4 -12 -9.33301 -24.167 -16 -36.5s-15.334 -23.5 -26.001 -33.5s-23 -18.167 -37 -24.5s-30 -9.5 -48 -9.5z" />
    <glyph glyph-name="uni014F" unicode="&#x14f;" horiz-adv-x="504" 
d="M206 -12c-49.333 0 -88.667 16.5 -118 49.5s-44 79.833 -44 140.5c0 44.667 7 86.167 21 124.5s32.833 71.5 56.5 99.5s50.667 50 81 66s61.833 24 94.5 24c50 0 89.667 -16.5 119 -49.5s44 -79.833 44 -140.5c0 -44.667 -7.16699 -86.167 -21.5 -124.5
s-33.166 -71.5 -56.499 -99.5s-50.333 -50 -81 -66s-62.334 -24 -95.001 -24zM293.999 456c-26 0 -51.501 -7.33301 -76.501 -22s-47.333 -34.334 -67 -59.001s-35.5 -53.5 -47.5 -86.5s-18 -67.833 -18 -104.5c0 -52 10.833 -91.667 32.5 -119s52.5 -41 92.5 -41
c26 0 51.333 7.33301 76 22s46.834 34.334 66.501 59.001s35.5 53.5 47.5 86.5s18 68.167 18 105.5c0 52 -10.667 91.5 -32 118.5s-52 40.5 -92 40.5zM328.998 576c-19.333 0 -34.998 3.49902 -46.998 10.499s-21.333 16.167 -28 27.5s-10.834 23.833 -12.501 37.5
s-1.83398 27.5 -0.500977 41.5h28c-2 -26 2 -47 12 -63s27 -24 51 -24c24.667 0 45.667 8.33301 63 25s30.333 37.334 39 62.001h30c-4.66699 -14 -10.667 -27.833 -18 -41.5s-16.5 -26.167 -27.5 -37.5s-23.833 -20.5 -38.5 -27.5s-31.667 -10.5 -51 -10.5z" />
    <glyph glyph-name="Ohungarumlaut" unicode="&#x150;" horiz-adv-x="618" 
d="M277 -12c-36 0 -67.5 6.66699 -94.5 20s-49.5 32.166 -67.5 56.499s-31.5 53.333 -40.5 87s-13.5 70.5 -13.5 110.5c0 30.667 3.16699 62 9.5 94s15.666 63.167 27.999 93.5s27.5 58.833 45.5 85.5s38.667 50.167 62 70.5s49 36.333 77 48s58.333 17.5 91 17.5
c36 0 67.5 -6.66699 94.5 -20s49.5 -32.166 67.5 -56.499s31.5 -53.333 40.5 -87s13.5 -70.5 13.5 -110.5c0 -30.667 -3.16699 -62 -9.5 -94s-15.666 -63.167 -27.999 -93.5s-27.5 -58.833 -45.5 -85.5s-38.667 -50.167 -62 -70.5s-49 -36.333 -77 -48
s-58.333 -17.5 -91 -17.5zM371 634c-42 0 -79.501 -11.833 -112.501 -35.5s-60.833 -53.667 -83.5 -90s-40 -76 -52 -119s-18 -83.833 -18 -122.5c0 -36 3.33301 -68.833 10 -98.5s17.167 -55.167 31.5 -76.5s32.5 -37.833 54.5 -49.5s48.333 -17.5 79 -17.5
c42 0 79.667 11.833 113 35.5s61.333 53.667 84 90s40 76 52 119s18 83.833 18 122.5c0 36 -3.33301 68.833 -10 98.5s-17.167 55.167 -31.5 76.5s-32.666 37.833 -54.999 49.5s-48.833 17.5 -79.5 17.5zM396.999 815h44l-100 -106h-34zM532.999 815h44l-99 -106h-34z" />
    <glyph glyph-name="ohungarumlaut" unicode="&#x151;" horiz-adv-x="504" 
d="M206 -12c-49.333 0 -88.667 16.5 -118 49.5s-44 79.833 -44 140.5c0 44.667 7 86.167 21 124.5s32.833 71.5 56.5 99.5s50.667 50 81 66s61.833 24 94.5 24c50 0 89.667 -16.5 119 -49.5s44 -79.833 44 -140.5c0 -44.667 -7.16699 -86.167 -21.5 -124.5
s-33.166 -71.5 -56.499 -99.5s-50.333 -50 -81 -66s-62.334 -24 -95.001 -24zM293.999 456c-26 0 -51.501 -7.33301 -76.501 -22s-47.333 -34.334 -67 -59.001s-35.5 -53.5 -47.5 -86.5s-18 -67.833 -18 -104.5c0 -52 10.833 -91.667 32.5 -119s52.5 -41 92.5 -41
c26 0 51.333 7.33301 76 22s46.834 34.334 66.501 59.001s35.5 53.5 47.5 86.5s18 68.167 18 105.5c0 52 -10.667 91.5 -32 118.5s-52 40.5 -92 40.5zM344.998 708h47l-117 -138h-33zM473.998 708h47l-117 -138h-33z" />
    <glyph glyph-name="OE" unicode="&#x152;" horiz-adv-x="806" 
d="M61 256c0 56.667 7.66602 109.669 22.999 159.002s37.833 92 67.5 128s66.5 64.333 110.5 85s94.667 31 152 31h420l-8 -37h-282l-50 -254h235l-8 -37h-234l-60 -294h292l-8 -37h-377c-45.333 0 -85.166 6.16699 -119.499 18.5s-62.833 29.666 -85.5 51.999
s-39.667 49.166 -51 80.499s-17 66.333 -17 105zM412.999 623.002c-49.333 0 -93 -9.66699 -131 -29s-70.167 -45.5 -96.5 -78.5s-46.333 -71.5 -60 -115.5s-20.5 -91 -20.5 -141c0 -33.333 4.83301 -63.666 14.5 -90.999s24 -50.833 43 -70.5s43 -34.834 72 -45.501
s62.833 -16 101.5 -16h50l117 587h-90z" />
    <glyph glyph-name="oe" unicode="&#x153;" horiz-adv-x="821" 
d="M205 -12c-49.333 0 -88.499 16.498 -117.499 49.498s-43.5 79.833 -43.5 140.5c0 44.667 7 86.167 21 124.5s32.667 71.5 56 99.5s50.166 50 80.499 66s61.833 24 94.5 24c42.667 0 77.334 -12.333 104.001 -37s43.667 -60 51 -106
c10.667 22.667 23.167 42.834 37.5 60.501s29.833 32.667 46.5 45s34 21.666 52 27.999s36 9.5 54 9.5c26 0 48.167 -4.16699 66.5 -12.5s33.333 -20 45 -35s20.167 -33 25.5 -54s8 -43.833 8 -68.5c0 -17.333 -1.5 -33.333 -4.5 -48s-6.16699 -26.667 -9.5 -36h-318
c-5.33301 -38 -5.66602 -70.5 -0.999023 -97.5s13 -49.167 25 -66.5s27 -30.166 45 -38.499s37.333 -12.5 58 -12.5c21.333 0 42.333 4.66699 63 14s39.667 20.333 57 33l18 -30c-19.333 -14 -41.333 -26.167 -66 -36.5s-51 -15.5 -79 -15.5
c-42.667 0 -77.834 13 -105.501 39s-44.834 64 -51.501 114c-22.667 -47.333 -53 -84.666 -91 -111.999s-78.333 -41 -121 -41zM293.001 455.998c-25.333 0 -50.501 -7.33301 -75.501 -22s-47.333 -34.334 -67 -59.001s-35.5 -53.5 -47.5 -86.5s-18 -67.833 -18 -104.5
c0 -52 10.833 -91.667 32.5 -119s52.5 -41 92.5 -41c25.333 0 50.333 7.33301 75 22s46.834 34.334 66.501 59.001s35.5 53.5 47.5 86.5s18 68.167 18 105.5c0 52 -10.667 91.5 -32 118.5s-52 40.5 -92 40.5zM742 270.998c1.33301 9.33301 2.5 18.501 3.5 27.501
s1.5 18.833 1.5 29.5c0 16 -1.83301 31.833 -5.5 47.5s-9.83398 29.5 -18.501 41.5s-20 21.667 -34 29s-31.333 11 -52 11c-19.333 0 -38.166 -4.5 -56.499 -13.5s-35.333 -21.833 -51 -38.5s-29.5 -36.334 -41.5 -59.001s-21 -47.667 -27 -75h281z" />
    <glyph glyph-name="Racute" unicode="&#x154;" horiz-adv-x="531" 
d="M265 337c71.333 0 126.167 15.333 164.5 46s57.5 73 57.5 127c0 41.333 -14.167 70.5 -42.5 87.5s-70.833 25.5 -127.5 25.5h-112l-55 -286h115zM336.001 659c59.333 0 106.502 -11.334 141.502 -34.001s52.5 -59.667 52.5 -111c0 -30 -5.16699 -57 -15.5 -81
s-24.833 -45 -43.5 -63s-40.834 -32.667 -66.501 -44s-53.834 -18.666 -84.501 -21.999l125 -304h-48l-122 301h-133l-60 -301h-43l131 659h166zM426.003 812.999h52l-122 -104h-39z" />
    <glyph glyph-name="racute" unicode="&#x155;" horiz-adv-x="317" 
d="M137 480l33.999 -0.000976562l-15 -91h4c20 28.667 42.333 53 67 73s52.667 30 84 30c6.66699 0 13.5 -0.5 20.5 -1.5s14.5 -3.16699 22.5 -6.5l-16 -39c-4.66699 2 -9.83398 3.83301 -15.501 5.5s-13.167 2.5 -22.5 2.5c-25.333 0 -52.166 -11.667 -80.499 -35
s-53.166 -56.666 -74.499 -99.999l-63 -318h-42zM307.999 705.999h50l-128 -136h-38z" />
    <glyph glyph-name="uni0156" unicode="&#x156;" horiz-adv-x="531" 
d="M265 337c71.333 0 126.167 15.333 164.5 46s57.5 73 57.5 127c0 41.333 -14.167 70.5 -42.5 87.5s-70.833 25.5 -127.5 25.5h-112l-55 -286h115zM336.001 659c59.333 0 106.502 -11.334 141.502 -34.001s52.5 -59.667 52.5 -111c0 -30 -5.16699 -57 -15.5 -81
s-24.833 -45 -43.5 -63s-40.834 -32.667 -66.501 -44s-53.834 -18.666 -84.501 -21.999l125 -304h-48l-122 301h-133l-60 -301h-43l131 659h166zM216.003 -57.001c17.333 -5.33301 31.833 -12.3301 43.5 -20.9971s17.5 -21 17.5 -37c0 -14.667 -3.66699 -27.5 -11 -38.5
s-17.166 -20.333 -29.499 -28s-26.333 -13.834 -42 -18.501s-31.834 -8 -48.501 -10l-4 24c28 5.33301 51.667 13.166 71 23.499s29 24.166 29 41.499c0 12.667 -4.33301 21.5 -13 26.5s-18 9.16699 -28 12.5z" />
    <glyph glyph-name="uni0157" unicode="&#x157;" horiz-adv-x="317" 
d="M137 480l33.999 -0.000976562l-15 -91h4c20 28.667 42.333 53 67 73s52.667 30 84 30c6.66699 0 13.5 -0.5 20.5 -1.5s14.5 -3.16699 22.5 -6.5l-16 -39c-4.66699 2 -9.83398 3.83301 -15.501 5.5s-13.167 2.5 -22.5 2.5c-25.333 0 -52.166 -11.667 -80.499 -35
s-53.166 -56.666 -74.499 -99.999l-63 -318h-42zM36.999 -49.001c17.333 -5.33301 31.833 -12.3301 43.5 -20.9971s17.5 -21 17.5 -37c0 -14.667 -3.66699 -27.5 -11 -38.5s-17.166 -20.333 -29.499 -28s-26.333 -13.834 -42 -18.501s-31.834 -8 -48.501 -10l-4 24
c28 5.33301 51.667 13.166 71 23.499s29 24.166 29 41.499c0 12.667 -4.33301 21.5 -13 26.5s-18 9.16699 -28 12.5z" />
    <glyph glyph-name="Rcaron" unicode="&#x158;" horiz-adv-x="531" 
d="M265 337c71.333 0 126.167 15.333 164.5 46s57.5 73 57.5 127c0 41.333 -14.167 70.5 -42.5 87.5s-70.833 25.5 -127.5 25.5h-112l-55 -286h115zM336.001 659c59.333 0 106.502 -11.334 141.502 -34.001s52.5 -59.667 52.5 -111c0 -30 -5.16699 -57 -15.5 -81
s-24.833 -45 -43.5 -63s-40.834 -32.667 -66.501 -44s-53.834 -18.666 -84.501 -21.999l125 -304h-48l-122 301h-133l-60 -301h-43l131 659h166zM373.003 708.999h-37l-72 104h35l56 -74h4l87 74h39z" />
    <glyph glyph-name="rcaron" unicode="&#x159;" horiz-adv-x="317" 
d="M137 480l33.999 -0.000976562l-15 -91h4c20 28.667 42.333 53 67 73s52.667 30 84 30c6.66699 0 13.5 -0.5 20.5 -1.5s14.5 -3.16699 22.5 -6.5l-16 -39c-4.66699 2 -9.83398 3.83301 -15.501 5.5s-13.167 2.5 -22.5 2.5c-25.333 0 -52.166 -11.667 -80.499 -35
s-53.166 -56.666 -74.499 -99.999l-63 -318h-42zM263.999 569.999h-29l-68 136h32l54 -97h4l92 97h37z" />
    <glyph glyph-name="Sacute" unicode="&#x15a;" horiz-adv-x="493" 
d="M49 123c21.333 -31.333 46.8359 -55.502 76.5029 -72.502s65.167 -25.5 106.5 -25.5c24 0 46.167 3.66699 66.5 11s38 17.5 53 30.5s26.833 28.833 35.5 47.5s13 39.667 13 63c0 28 -7.83301 51.833 -23.5 71.5s-36.167 36.834 -61.5 51.501l-85 51
c-13.333 8 -26.333 17 -39 27s-23.667 21 -33 33s-16.833 25.5 -22.5 40.5s-8.5 31.5 -8.5 49.5c0 22.667 4.66699 44.167 14 64.5s22.333 38.333 39 54s36.667 28.167 60 37.5s49 14 77 14c40 0 75.167 -8.66699 105.5 -26s54.5 -38.333 72.5 -63l-30 -26
c-16.667 21.333 -37.834 39.666 -63.501 54.999s-55.834 23 -90.501 23c-21.333 0 -40.666 -3.83301 -57.999 -11.5s-32 -17.5 -44 -29.5s-21.333 -25.667 -28 -41s-10 -30.666 -10 -45.999c0 -30.667 8.66699 -55.167 26 -73.5s37.666 -34.166 60.999 -47.499l83 -48
c31.333 -18.667 56.333 -40 75 -64s28 -54.333 28 -91c0 -29.333 -5.5 -55.833 -16.5 -79.5s-26.167 -44 -45.5 -61s-42.333 -30.167 -69 -39.5s-55.334 -14 -86.001 -14c-46 0 -86.833 9.5 -122.5 28.5s-65.167 46.833 -88.5 83.5zM413.003 812.998h52l-122 -104h-39z" />
    <glyph glyph-name="sacute" unicode="&#x15b;" horiz-adv-x="389" 
d="M28 99c13.333 -21.333 31.665 -39.3291 54.998 -53.9961s50.333 -22 81 -22c16.667 0 32.334 2.66699 47.001 8s27.667 12.666 39 21.999s20.333 20 27 32s10 25 10 39c0 9.33301 -1.33301 18.166 -4 26.499s-7.33398 16.5 -14.001 24.5s-16 16.167 -28 24.5
s-27.333 17.5 -46 27.5c-21.333 11.333 -39.5 22.166 -54.5 32.499s-27.167 20.666 -36.5 30.999s-16 20.833 -20 31.5s-6 22.334 -6 35.001c0 20 4 38.333 12 55s19 31 33 43s30.167 21.167 48.5 27.5s37.5 9.5 57.5 9.5c27.333 0 52.166 -5.33301 74.499 -16
s41.833 -24.667 58.5 -42l-27 -26c-13.333 13.333 -28.5 24.833 -45.5 34.5s-37.5 14.5 -61.5 14.5c-15.333 0 -29.666 -2.5 -42.999 -7.5s-25 -11.833 -35 -20.5s-17.833 -18.667 -23.5 -30s-8.5 -23.333 -8.5 -36c0 -11.333 2.5 -21.5 7.5 -30.5s11.5 -17.333 19.5 -25
s17.333 -14.667 28 -21l34 -19.5c26 -14 46.833 -27 62.5 -39s27.834 -23.333 36.501 -34s14.334 -21.167 17.001 -31.5s4 -20.833 4 -31.5c0 -22 -4.33301 -41.833 -13 -59.5s-20.5 -32.667 -35.5 -45s-32.667 -21.833 -53 -28.5s-42.5 -10 -66.5 -10
c-17.333 0 -34 2.5 -50 7.5s-31 11.833 -45 20.5s-26.667 18.167 -38 28.5s-20.333 21.166 -27 32.499zM317.999 706.004h50l-128 -136h-38z" />
    <glyph glyph-name="Scircumflex" unicode="&#x15c;" horiz-adv-x="493" 
d="M49 123c21.333 -31.333 46.8359 -55.502 76.5029 -72.502s65.167 -25.5 106.5 -25.5c24 0 46.167 3.66699 66.5 11s38 17.5 53 30.5s26.833 28.833 35.5 47.5s13 39.667 13 63c0 28 -7.83301 51.833 -23.5 71.5s-36.167 36.834 -61.5 51.501l-85 51
c-13.333 8 -26.333 17 -39 27s-23.667 21 -33 33s-16.833 25.5 -22.5 40.5s-8.5 31.5 -8.5 49.5c0 22.667 4.66699 44.167 14 64.5s22.333 38.333 39 54s36.667 28.167 60 37.5s49 14 77 14c40 0 75.167 -8.66699 105.5 -26s54.5 -38.333 72.5 -63l-30 -26
c-16.667 21.333 -37.834 39.666 -63.501 54.999s-55.834 23 -90.501 23c-21.333 0 -40.666 -3.83301 -57.999 -11.5s-32 -17.5 -44 -29.5s-21.333 -25.667 -28 -41s-10 -30.666 -10 -45.999c0 -30.667 8.66699 -55.167 26 -73.5s37.666 -34.166 60.999 -47.499l83 -48
c31.333 -18.667 56.333 -40 75 -64s28 -54.333 28 -91c0 -29.333 -5.5 -55.833 -16.5 -79.5s-26.167 -44 -45.5 -61s-42.333 -30.167 -69 -39.5s-55.334 -14 -86.001 -14c-46 0 -86.833 9.5 -122.5 28.5s-65.167 46.833 -88.5 83.5zM341.003 812.998h38l71 -104h-35l-56 74
h-4l-86 -74h-40z" />
    <glyph glyph-name="scircumflex" unicode="&#x15d;" horiz-adv-x="389" 
d="M28 99c13.333 -21.333 31.665 -39.3291 54.998 -53.9961s50.333 -22 81 -22c16.667 0 32.334 2.66699 47.001 8s27.667 12.666 39 21.999s20.333 20 27 32s10 25 10 39c0 9.33301 -1.33301 18.166 -4 26.499s-7.33398 16.5 -14.001 24.5s-16 16.167 -28 24.5
s-27.333 17.5 -46 27.5c-21.333 11.333 -39.5 22.166 -54.5 32.499s-27.167 20.666 -36.5 30.999s-16 20.833 -20 31.5s-6 22.334 -6 35.001c0 20 4 38.333 12 55s19 31 33 43s30.167 21.167 48.5 27.5s37.5 9.5 57.5 9.5c27.333 0 52.166 -5.33301 74.499 -16
s41.833 -24.667 58.5 -42l-27 -26c-13.333 13.333 -28.5 24.833 -45.5 34.5s-37.5 14.5 -61.5 14.5c-15.333 0 -29.666 -2.5 -42.999 -7.5s-25 -11.833 -35 -20.5s-17.833 -18.667 -23.5 -30s-8.5 -23.333 -8.5 -36c0 -11.333 2.5 -21.5 7.5 -30.5s11.5 -17.333 19.5 -25
s17.333 -14.667 28 -21l34 -19.5c26 -14 46.833 -27 62.5 -39s27.834 -23.333 36.501 -34s14.334 -21.167 17.001 -31.5s4 -20.833 4 -31.5c0 -22 -4.33301 -41.833 -13 -59.5s-20.5 -32.667 -35.5 -45s-32.667 -21.833 -53 -28.5s-42.5 -10 -66.5 -10
c-17.333 0 -34 2.5 -50 7.5s-31 11.833 -45 20.5s-26.667 18.167 -38 28.5s-20.333 21.166 -27 32.499zM270.999 706.004h29l67 -136h-32l-53 98h-4l-93 -98h-36z" />
    <glyph glyph-name="uni015E" unicode="&#x15e;" horiz-adv-x="493" 
d="M49 123c21.333 -31.333 46.8359 -55.502 76.5029 -72.502s65.167 -25.5 106.5 -25.5c24 0 46.167 3.66699 66.5 11s38 17.5 53 30.5s26.833 28.833 35.5 47.5s13 39.667 13 63c0 28 -7.83301 51.833 -23.5 71.5s-36.167 36.834 -61.5 51.501l-85 51
c-13.333 8 -26.333 17 -39 27s-23.667 21 -33 33s-16.833 25.5 -22.5 40.5s-8.5 31.5 -8.5 49.5c0 22.667 4.66699 44.167 14 64.5s22.333 38.333 39 54s36.667 28.167 60 37.5s49 14 77 14c40 0 75.167 -8.66699 105.5 -26s54.5 -38.333 72.5 -63l-30 -26
c-16.667 21.333 -37.834 39.666 -63.501 54.999s-55.834 23 -90.501 23c-21.333 0 -40.666 -3.83301 -57.999 -11.5s-32 -17.5 -44 -29.5s-21.333 -25.667 -28 -41s-10 -30.666 -10 -45.999c0 -30.667 8.66699 -55.167 26 -73.5s37.666 -34.166 60.999 -47.499l83 -48
c31.333 -18.667 56.333 -40 75 -64s28 -54.333 28 -91c0 -29.333 -5.5 -55.833 -16.5 -79.5s-26.167 -44 -45.5 -61s-42.333 -30.167 -69 -39.5s-55.334 -14 -86.001 -14c-46 0 -86.833 9.5 -122.5 28.5s-65.167 46.833 -88.5 83.5zM204.003 1.99805l34.001 0.00195312
l-42 -60c12 -4 22.667 -10.333 32 -19s14 -20.667 14 -36c0 -14.667 -3.5 -27.5 -10.5 -38.5s-16.5 -20.333 -28.5 -28s-25.833 -14 -41.5 -19s-31.834 -8.5 -48.501 -10.5l-4 24c28 5.33301 51.167 13.166 69.5 23.499s27.5 24.5 27.5 42.5c0 12 -4.5 21.167 -13.5 27.5
s-23.167 12.166 -42.5 17.499z" />
    <glyph glyph-name="uni015F" unicode="&#x15f;" horiz-adv-x="389" 
d="M28 99c13.333 -21.333 31.665 -39.3291 54.998 -53.9961s50.333 -22 81 -22c16.667 0 32.334 2.66699 47.001 8s27.667 12.666 39 21.999s20.333 20 27 32s10 25 10 39c0 9.33301 -1.33301 18.166 -4 26.499s-7.33398 16.5 -14.001 24.5s-16 16.167 -28 24.5
s-27.333 17.5 -46 27.5c-21.333 11.333 -39.5 22.166 -54.5 32.499s-27.167 20.666 -36.5 30.999s-16 20.833 -20 31.5s-6 22.334 -6 35.001c0 20 4 38.333 12 55s19 31 33 43s30.167 21.167 48.5 27.5s37.5 9.5 57.5 9.5c27.333 0 52.166 -5.33301 74.499 -16
s41.833 -24.667 58.5 -42l-27 -26c-13.333 13.333 -28.5 24.833 -45.5 34.5s-37.5 14.5 -61.5 14.5c-15.333 0 -29.666 -2.5 -42.999 -7.5s-25 -11.833 -35 -20.5s-17.833 -18.667 -23.5 -30s-8.5 -23.333 -8.5 -36c0 -11.333 2.5 -21.5 7.5 -30.5s11.5 -17.333 19.5 -25
s17.333 -14.667 28 -21l34 -19.5c26 -14 46.833 -27 62.5 -39s27.834 -23.333 36.501 -34s14.334 -21.167 17.001 -31.5s4 -20.833 4 -31.5c0 -22 -4.33301 -41.833 -13 -59.5s-20.5 -32.667 -35.5 -45s-32.667 -21.833 -53 -28.5s-42.5 -10 -66.5 -10
c-17.333 0 -34 2.5 -50 7.5s-31 11.833 -45 20.5s-26.667 18.167 -38 28.5s-20.333 21.166 -27 32.499zM157.999 2.00391l34.001 0.00195312l-42 -60c12 -4 22.667 -10.333 32 -19s14 -20.667 14 -36c0 -14.667 -3.5 -27.5 -10.5 -38.5s-16.5 -20.333 -28.5 -28
s-25.833 -14 -41.5 -19s-31.834 -8.5 -48.501 -10.5l-4 24c28 5.33301 51.167 13.166 69.5 23.499s27.5 24.5 27.5 42.5c0 12 -4.5 21.167 -13.5 27.5s-23.167 12.166 -42.5 17.499z" />
    <glyph glyph-name="Scaron" unicode="&#x160;" horiz-adv-x="493" 
d="M49 123c21.333 -31.333 46.8359 -55.502 76.5029 -72.502s65.167 -25.5 106.5 -25.5c24 0 46.167 3.66699 66.5 11s38 17.5 53 30.5s26.833 28.833 35.5 47.5s13 39.667 13 63c0 28 -7.83301 51.833 -23.5 71.5s-36.167 36.834 -61.5 51.501l-85 51
c-13.333 8 -26.333 17 -39 27s-23.667 21 -33 33s-16.833 25.5 -22.5 40.5s-8.5 31.5 -8.5 49.5c0 22.667 4.66699 44.167 14 64.5s22.333 38.333 39 54s36.667 28.167 60 37.5s49 14 77 14c40 0 75.167 -8.66699 105.5 -26s54.5 -38.333 72.5 -63l-30 -26
c-16.667 21.333 -37.834 39.666 -63.501 54.999s-55.834 23 -90.501 23c-21.333 0 -40.666 -3.83301 -57.999 -11.5s-32 -17.5 -44 -29.5s-21.333 -25.667 -28 -41s-10 -30.666 -10 -45.999c0 -30.667 8.66699 -55.167 26 -73.5s37.666 -34.166 60.999 -47.499l83 -48
c31.333 -18.667 56.333 -40 75 -64s28 -54.333 28 -91c0 -29.333 -5.5 -55.833 -16.5 -79.5s-26.167 -44 -45.5 -61s-42.333 -30.167 -69 -39.5s-55.334 -14 -86.001 -14c-46 0 -86.833 9.5 -122.5 28.5s-65.167 46.833 -88.5 83.5zM360.003 708.998h-37l-72 104h35l56 -74
h4l87 74h39z" />
    <glyph glyph-name="scaron" unicode="&#x161;" horiz-adv-x="389" 
d="M28 99c13.333 -21.333 31.665 -39.3291 54.998 -53.9961s50.333 -22 81 -22c16.667 0 32.334 2.66699 47.001 8s27.667 12.666 39 21.999s20.333 20 27 32s10 25 10 39c0 9.33301 -1.33301 18.166 -4 26.499s-7.33398 16.5 -14.001 24.5s-16 16.167 -28 24.5
s-27.333 17.5 -46 27.5c-21.333 11.333 -39.5 22.166 -54.5 32.499s-27.167 20.666 -36.5 30.999s-16 20.833 -20 31.5s-6 22.334 -6 35.001c0 20 4 38.333 12 55s19 31 33 43s30.167 21.167 48.5 27.5s37.5 9.5 57.5 9.5c27.333 0 52.166 -5.33301 74.499 -16
s41.833 -24.667 58.5 -42l-27 -26c-13.333 13.333 -28.5 24.833 -45.5 34.5s-37.5 14.5 -61.5 14.5c-15.333 0 -29.666 -2.5 -42.999 -7.5s-25 -11.833 -35 -20.5s-17.833 -18.667 -23.5 -30s-8.5 -23.333 -8.5 -36c0 -11.333 2.5 -21.5 7.5 -30.5s11.5 -17.333 19.5 -25
s17.333 -14.667 28 -21l34 -19.5c26 -14 46.833 -27 62.5 -39s27.834 -23.333 36.501 -34s14.334 -21.167 17.001 -31.5s4 -20.833 4 -31.5c0 -22 -4.33301 -41.833 -13 -59.5s-20.5 -32.667 -35.5 -45s-32.667 -21.833 -53 -28.5s-42.5 -10 -66.5 -10
c-17.333 0 -34 2.5 -50 7.5s-31 11.833 -45 20.5s-26.667 18.167 -38 28.5s-20.333 21.166 -27 32.499zM273.999 570.004h-29l-68 136h32l54 -97h4l92 97h37z" />
    <glyph glyph-name="uni0162" unicode="&#x162;" horiz-adv-x="497" 
d="M300 620h-202l8 39h447l-8 -39h-202l-124 -620h-43zM173 2l34.001 0.00195312l-42 -60c12 -4 22.667 -10.333 32 -19s14 -20.667 14 -36c0 -14.667 -3.5 -27.5 -10.5 -38.5s-16.5 -20.333 -28.5 -28s-25.833 -14 -41.5 -19s-31.834 -8.5 -48.501 -10.5l-4 24
c28 5.33301 51.167 13.166 69.5 23.499s27.5 24.5 27.5 42.5c0 12 -4.5 21.167 -13.5 27.5s-23.167 12.166 -42.5 17.499z" />
    <glyph glyph-name="uni0163" unicode="&#x163;" horiz-adv-x="299" 
d="M142 444l-75.002 -0.00195312l6 32l78 4l33 137h35l-28 -137h130l-8 -36h-130l-65 -315c-1.33301 -6 -2.33301 -12 -3 -18s-1 -12.667 -1 -20c0 -22 4.83301 -38.667 14.5 -50s27.5 -17 53.5 -17c11.333 0 21.833 1.83301 31.5 5.5s18.5 7.5 26.5 11.5l11 -31
c-9.33301 -5.33301 -20.666 -10.333 -33.999 -15s-27.666 -7 -42.999 -7c-18.667 0 -34.5 2.5 -47.5 7.5s-23.5 11.833 -31.5 20.5s-13.667 18.834 -17 30.501s-5 23.834 -5 36.501c0 9.33301 0.333008 17.5 1 24.5s1.66699 14.833 3 23.5zM152.998 1.99805
l34.001 0.00195312l-42 -60c12 -4 22.667 -10.333 32 -19s14 -20.667 14 -36c0 -14.667 -3.5 -27.5 -10.5 -38.5s-16.5 -20.333 -28.5 -28s-25.833 -14 -41.5 -19s-31.834 -8.5 -48.501 -10.5l-4 24c28 5.33301 51.167 13.166 69.5 23.499s27.5 24.5 27.5 42.5
c0 12 -4.5 21.167 -13.5 27.5s-23.167 12.166 -42.5 17.499z" />
    <glyph glyph-name="Tcaron" unicode="&#x164;" horiz-adv-x="497" 
d="M300 620h-202l8 39h447l-8 -39h-202l-124 -620h-43zM347 709h-37l-72 104h35l56 -74h4l87 74h39z" />
    <glyph glyph-name="tcaron" unicode="&#x165;" horiz-adv-x="299" 
d="M142 444l-75.002 -0.00195312l6 32l78 4l33 137h35l-28 -137h130l-8 -36h-130l-65 -315c-1.33301 -6 -2.33301 -12 -3 -18s-1 -12.667 -1 -20c0 -22 4.83301 -38.667 14.5 -50s27.5 -17 53.5 -17c11.333 0 21.833 1.83301 31.5 5.5s18.5 7.5 26.5 11.5l11 -31
c-9.33301 -5.33301 -20.666 -10.333 -33.999 -15s-27.666 -7 -42.999 -7c-18.667 0 -34.5 2.5 -47.5 7.5s-23.5 11.833 -31.5 20.5s-13.667 18.834 -17 30.501s-5 23.834 -5 36.501c0 9.33301 0.333008 17.5 1 24.5s1.66699 14.833 3 23.5zM302.998 547.998l40 206h35
l-9 -50l-40 -156h-26z" />
    <glyph glyph-name="Utilde" unicode="&#x168;" horiz-adv-x="600" 
d="M168 659l43.001 0.00195312l-77 -386c-4 -15.333 -6.66699 -29.666 -8 -42.999s-2 -26 -2 -38c0 -53.333 12.667 -94.5 38 -123.5s63.666 -43.5 114.999 -43.5c20.667 0 40.834 4 60.501 12s37.834 20.667 54.501 38s31.5 39.666 44.5 66.999s23.5 60.666 31.5 99.999
l83 417h43l-85 -423c-9.33301 -46 -22 -84.667 -38 -116s-34.167 -56.833 -54.5 -76.5s-42.833 -33.834 -67.5 -42.501s-50 -13 -76 -13c-60.667 0 -107.834 16.833 -141.501 50.5s-50.5 82.167 -50.5 145.5c0 13.333 0.666992 26.833 2 40.5s3.66602 28.5 6.99902 44.5z
M260.001 716.002c2 10.667 5.66699 21.5 11 32.5s11.833 20.667 19.5 29s16.167 15.166 25.5 20.499s19.333 8 30 8c11.333 0 21.166 -3.16699 29.499 -9.5s16 -13.166 23 -20.499s14 -14.166 21 -20.499s15.5 -9.5 25.5 -9.5c12 0 22.5 5.33301 31.5 16
s16.167 24.667 21.5 42h28c-2 -11.333 -5.66699 -22.333 -11 -33s-11.833 -20.167 -19.5 -28.5s-16.167 -15.166 -25.5 -20.499s-19.333 -8 -30 -8c-11.333 0 -21.166 3.16699 -29.499 9.5s-16 13.166 -23 20.499s-14 14.166 -21 20.499s-15.5 9.5 -25.5 9.5
c-12 0 -22.333 -5.33301 -31 -16s-15.667 -24.667 -21 -42h-29z" />
    <glyph glyph-name="utilde" unicode="&#x169;" horiz-adv-x="518" 
d="M379 0l-34.002 -0.000976562l10 78h-4c-29.333 -25.333 -57.666 -46.666 -84.999 -63.999s-55.666 -26 -84.999 -26c-41.333 0 -70.833 10.833 -88.5 32.5s-26.5 49.834 -26.5 84.501c0 12 0.5 22.5 1.5 31.5s3.16699 20.167 6.5 33.5l62 310h41l-61 -304
c-3.33301 -14.667 -5.5 -26.334 -6.5 -35.001s-1.5 -17.667 -1.5 -27c0 -30 6.66699 -52.333 20 -67s35 -22 65 -22c21.333 0 46 8 74 24s60 41.667 96 77l71 354h41zM197.998 580.999c7.33301 23.333 17.666 43.833 30.999 61.5s29.666 26.5 48.999 26.5
c14 0 25.333 -3 34 -9s16.334 -12.667 23.001 -20s13.5 -14 20.5 -20s16.167 -9 27.5 -9c9.33301 0 18 5.33301 26 16s15 24 21 40h28c-6.66699 -22.667 -16.667 -43 -30 -61s-29.666 -27 -48.999 -27c-14 0 -25.333 3 -34 9s-16.5 12.833 -23.5 20.5
s-14.167 14.5 -21.5 20.5s-16.333 9 -27 9c-8.66699 0 -17 -5.5 -25 -16.5s-15.333 -24.5 -22 -40.5h-28z" />
    <glyph glyph-name="Umacron" unicode="&#x16a;" horiz-adv-x="600" 
d="M168 659l43.001 0.00195312l-77 -386c-4 -15.333 -6.66699 -29.666 -8 -42.999s-2 -26 -2 -38c0 -53.333 12.667 -94.5 38 -123.5s63.666 -43.5 114.999 -43.5c20.667 0 40.834 4 60.501 12s37.834 20.667 54.501 38s31.5 39.666 44.5 66.999s23.5 60.666 31.5 99.999
l83 417h43l-85 -423c-9.33301 -46 -22 -84.667 -38 -116s-34.167 -56.833 -54.5 -76.5s-42.833 -33.834 -67.5 -42.501s-50 -13 -76 -13c-60.667 0 -107.834 16.833 -141.501 50.5s-50.5 82.167 -50.5 145.5c0 13.333 0.666992 26.833 2 40.5s3.66602 28.5 6.99902 44.5z
M288.001 768.002h217l-7 -34h-217z" />
    <glyph glyph-name="umacron" unicode="&#x16b;" horiz-adv-x="518" 
d="M379 0l-34.002 -0.000976562l10 78h-4c-29.333 -25.333 -57.666 -46.666 -84.999 -63.999s-55.666 -26 -84.999 -26c-41.333 0 -70.833 10.833 -88.5 32.5s-26.5 49.834 -26.5 84.501c0 12 0.5 22.5 1.5 31.5s3.16699 20.167 6.5 33.5l62 310h41l-61 -304
c-3.33301 -14.667 -5.5 -26.334 -6.5 -35.001s-1.5 -17.667 -1.5 -27c0 -30 6.66699 -52.333 20 -67s35 -22 65 -22c21.333 0 46 8 74 24s60 41.667 96 77l71 354h41zM220.998 639.999h218l-5 -34h-219z" />
    <glyph glyph-name="Ubreve" unicode="&#x16c;" horiz-adv-x="600" 
d="M168 659l43.001 0.00195312l-77 -386c-4 -15.333 -6.66699 -29.666 -8 -42.999s-2 -26 -2 -38c0 -53.333 12.667 -94.5 38 -123.5s63.666 -43.5 114.999 -43.5c20.667 0 40.834 4 60.501 12s37.834 20.667 54.501 38s31.5 39.666 44.5 66.999s23.5 60.666 31.5 99.999
l83 417h43l-85 -423c-9.33301 -46 -22 -84.667 -38 -116s-34.167 -56.833 -54.5 -76.5s-42.833 -33.834 -67.5 -42.501s-50 -13 -76 -13c-60.667 0 -107.834 16.833 -141.501 50.5s-50.5 82.167 -50.5 145.5c0 13.333 0.666992 26.833 2 40.5s3.66602 28.5 6.99902 44.5z
M385.001 709.002c-18 0 -32.835 3.33301 -44.502 10s-21 15 -28 25s-11.667 21.167 -14 33.5s-3.16602 24.166 -2.49902 35.499h28c-0.666992 -9.33301 0.166016 -18.333 2.49902 -27s6 -16.5 11 -23.5s11.833 -12.5 20.5 -16.5s19.334 -6 32.001 -6
c12 0 22.833 2.16699 32.5 6.5s18.334 10 26.001 17s14.334 14.833 20.001 23.5s10.167 17.334 13.5 26.001h30c-4 -12 -9.33301 -24.167 -16 -36.5s-15.334 -23.5 -26.001 -33.5s-23 -18.167 -37 -24.5s-30 -9.5 -48 -9.5z" />
    <glyph glyph-name="ubreve" unicode="&#x16d;" horiz-adv-x="518" 
d="M379 0l-34.002 -0.000976562l10 78h-4c-29.333 -25.333 -57.666 -46.666 -84.999 -63.999s-55.666 -26 -84.999 -26c-41.333 0 -70.833 10.833 -88.5 32.5s-26.5 49.834 -26.5 84.501c0 12 0.5 22.5 1.5 31.5s3.16699 20.167 6.5 33.5l62 310h41l-61 -304
c-3.33301 -14.667 -5.5 -26.334 -6.5 -35.001s-1.5 -17.667 -1.5 -27c0 -30 6.66699 -52.333 20 -67s35 -22 65 -22c21.333 0 46 8 74 24s60 41.667 96 77l71 354h41zM318.998 575.999c-19.333 0 -34.998 3.49902 -46.998 10.499s-21.333 16.167 -28 27.5
s-10.834 23.833 -12.501 37.5s-1.83398 27.5 -0.500977 41.5h28c-2 -26 2 -47 12 -63s27 -24 51 -24c24.667 0 45.667 8.33301 63 25s30.333 37.334 39 62.001h30c-4.66699 -14 -10.667 -27.833 -18 -41.5s-16.5 -26.167 -27.5 -37.5s-23.833 -20.5 -38.5 -27.5
s-31.667 -10.5 -51 -10.5z" />
    <glyph glyph-name="Uring" unicode="&#x16e;" horiz-adv-x="600" 
d="M168 659l43.001 0.00195312l-77 -386c-4 -15.333 -6.66699 -29.666 -8 -42.999s-2 -26 -2 -38c0 -53.333 12.667 -94.5 38 -123.5s63.666 -43.5 114.999 -43.5c20.667 0 40.834 4 60.501 12s37.834 20.667 54.501 38s31.5 39.666 44.5 66.999s23.5 60.666 31.5 99.999
l83 417h43l-85 -423c-9.33301 -46 -22 -84.667 -38 -116s-34.167 -56.833 -54.5 -76.5s-42.833 -33.834 -67.5 -42.501s-50 -13 -76 -13c-60.667 0 -107.834 16.833 -141.501 50.5s-50.5 82.167 -50.5 145.5c0 13.333 0.666992 26.833 2 40.5s3.66602 28.5 6.99902 44.5z
M390.001 698.002c-21.333 0 -39 6.16797 -53 18.501s-21 31.166 -21 56.499c0 12.667 2.33301 24.667 7 36s11.167 21.166 19.5 29.499s17.833 15 28.5 20s22 7.5 34 7.5c21.333 0 39 -6.33301 53 -19s21 -31.667 21 -57c0 -12.667 -2.33301 -24.667 -7 -36
s-11.167 -21.166 -19.5 -29.499s-17.833 -14.833 -28.5 -19.5s-22 -7 -34 -7zM403.001 840.003c-15.333 0 -28.833 -6.16699 -40.5 -18.5s-17.5 -27.5 -17.5 -45.5c0 -34.667 15.667 -52 47 -52c15.333 0 28.833 6 40.5 18s17.5 27.333 17.5 46
c0 16 -4.16699 28.667 -12.5 38s-19.833 14 -34.5 14z" />
    <glyph glyph-name="uring" unicode="&#x16f;" horiz-adv-x="518" 
d="M379 0l-34.002 -0.000976562l10 78h-4c-29.333 -25.333 -57.666 -46.666 -84.999 -63.999s-55.666 -26 -84.999 -26c-41.333 0 -70.833 10.833 -88.5 32.5s-26.5 49.834 -26.5 84.501c0 12 0.5 22.5 1.5 31.5s3.16699 20.167 6.5 33.5l62 310h41l-61 -304
c-3.33301 -14.667 -5.5 -26.334 -6.5 -35.001s-1.5 -17.667 -1.5 -27c0 -30 6.66699 -52.333 20 -67s35 -22 65 -22c21.333 0 46 8 74 24s60 41.667 96 77l71 354h41zM319.998 534.999c-21.333 0 -39 6.66797 -53 20.001s-21 32.666 -21 57.999
c0 12.667 2.33301 24.834 7 36.501s11.167 22 19.5 31s18 16 29 21s22.5 7.5 34.5 7.5c21.333 0 38.833 -6.5 52.5 -19.5s20.5 -32.167 20.5 -57.5c0 -13.333 -2.33301 -25.833 -7 -37.5s-11.167 -21.834 -19.5 -30.501s-17.833 -15.667 -28.5 -21s-22 -8 -34 -8z
M333.998 683c-15.333 0 -28.833 -6.66797 -40.5 -20.001s-17.5 -29.333 -17.5 -48c0 -16 4 -29 12 -39s19.333 -15 34 -15c15.333 0 28.833 6.66699 40.5 20s17.5 29.333 17.5 48c0 16.667 -4 29.834 -12 39.501s-19.333 14.5 -34 14.5z" />
    <glyph glyph-name="Uhungarumlaut" unicode="&#x170;" horiz-adv-x="600" 
d="M168 659l43.001 0.00195312l-77 -386c-4 -15.333 -6.66699 -29.666 -8 -42.999s-2 -26 -2 -38c0 -53.333 12.667 -94.5 38 -123.5s63.666 -43.5 114.999 -43.5c20.667 0 40.834 4 60.501 12s37.834 20.667 54.501 38s31.5 39.666 44.5 66.999s23.5 60.666 31.5 99.999
l83 417h43l-85 -423c-9.33301 -46 -22 -84.667 -38 -116s-34.167 -56.833 -54.5 -76.5s-42.833 -33.834 -67.5 -42.501s-50 -13 -76 -13c-60.667 0 -107.834 16.833 -141.501 50.5s-50.5 82.167 -50.5 145.5c0 13.333 0.666992 26.833 2 40.5s3.66602 28.5 6.99902 44.5z
M385.001 815.002h44l-100 -106h-34zM521.001 815.002h44l-99 -106h-34z" />
    <glyph glyph-name="uhungarumlaut" unicode="&#x171;" horiz-adv-x="518" 
d="M379 0l-34.002 -0.000976562l10 78h-4c-29.333 -25.333 -57.666 -46.666 -84.999 -63.999s-55.666 -26 -84.999 -26c-41.333 0 -70.833 10.833 -88.5 32.5s-26.5 49.834 -26.5 84.501c0 12 0.5 22.5 1.5 31.5s3.16699 20.167 6.5 33.5l62 310h41l-61 -304
c-3.33301 -14.667 -5.5 -26.334 -6.5 -35.001s-1.5 -17.667 -1.5 -27c0 -30 6.66699 -52.333 20 -67s35 -22 65 -22c21.333 0 46 8 74 24s60 41.667 96 77l71 354h41zM334.998 707.999h47l-117 -138h-33zM463.998 707.999h47l-117 -138h-33z" />
    <glyph glyph-name="Uogonek" unicode="&#x172;" horiz-adv-x="600" 
d="M509 236c-7.33301 -38 -16.832 -70.498 -28.499 -97.498s-25.167 -50 -40.5 -69s-32.833 -34.667 -52.5 -47s-41.5 -22.5 -65.5 -30.5c-20 -6.66699 -37.167 -14.834 -51.5 -24.501s-26.333 -20.167 -36 -31.5s-16.667 -22.666 -21 -33.999s-6.5 -22 -6.5 -32
c0 -12.667 3.5 -22.667 10.5 -30s15.833 -11 26.5 -11c13.333 0 26.666 4 39.999 12l12 -28c-9.33301 -5.33301 -19.333 -9.5 -30 -12.5s-20.667 -4.5 -30 -4.5c-20 0 -36.5 5.16699 -49.5 15.5s-19.5 26.166 -19.5 47.499c0 10.667 2.16699 22 6.5 34s10.333 23.667 18 35
s16.5 22.333 26.5 33s20.667 20 32 28c-54.667 5.33301 -96.5 24.5 -125.5 57.5s-43.5 78.833 -43.5 137.5c0 13.333 0.666992 26.833 2 40.5s3.66602 28.5 6.99902 44.5l78 390h43l-77 -386c-4 -15.333 -6.66699 -29.666 -8 -42.999s-2 -26 -2 -38
c0 -53.333 12.667 -94.5 38 -123.5s63.666 -43.5 114.999 -43.5c20.667 0 40.834 4 60.501 12s37.834 20.667 54.501 38s31.5 39.666 44.5 66.999s23.5 60.666 31.5 99.999l83 417h43z" />
    <glyph glyph-name="uogonek" unicode="&#x173;" horiz-adv-x="518" 
d="M379 0c-34.667 -19.333 -62.168 -40.001 -82.501 -62.001s-30.5 -44.667 -30.5 -68c0 -12.667 3.5 -22.5 10.5 -29.5s16.167 -10.5 27.5 -10.5c13.333 0 27 4 41 12l11 -27c-9.33301 -5.33301 -19.333 -9.66602 -30 -12.999s-20.667 -5 -30 -5
c-19.333 0 -35.5 5.16699 -48.5 15.5s-19.5 26.166 -19.5 47.499c0 14 3.16699 28.167 9.5 42.5s15 28 26 41s23.667 25.167 38 36.5s29.166 21 44.499 29l9 69h-4c-29.333 -25.333 -57.666 -46.666 -84.999 -63.999s-55.666 -26 -84.999 -26
c-41.333 0 -70.833 10.833 -88.5 32.5s-26.5 49.834 -26.5 84.501c0 12 0.5 22.5 1.5 31.5s3.16699 20.167 6.5 33.5l62 310h41l-61 -304c-3.33301 -14.667 -5.5 -26.334 -6.5 -35.001s-1.5 -17.667 -1.5 -27c0 -30 6.66699 -52.333 20 -67s35 -22 65 -22
c21.333 0 46 8 74 24s60 41.667 96 77l71 354h41z" />
    <glyph glyph-name="Wcircumflex" unicode="&#x174;" horiz-adv-x="734" 
d="M107 659h42.999l-2 -389c-1.33301 -36 -2 -72 -2 -108s-0.666992 -72 -2 -108h4l50 108l48 108l181 389h44l13 -389c2.66699 -72 4.66699 -144 6 -216h4l90 216l161 389h44l-281 -659h-54l-14 453c0 26 -0.166992 51.667 -0.5 77s-0.166016 51.333 0.500977 78h-4
c-10 -26.667 -20.833 -52.5 -32.5 -77.5l-34.5 -77.5l-209 -453h-54zM448.999 813h38l71 -104h-35l-56 74h-4l-86 -74h-40z" />
    <glyph glyph-name="wcircumflex" unicode="&#x175;" horiz-adv-x="683" 
d="M69 480l41.001 -0.000976562l24 -314c2 -22 3.83301 -43.833 5.5 -65.5s3.16699 -43.167 4.5 -64.5h4l29 64.5l29 65.5l144 314h50l22 -314c1.33301 -22 2.5 -43.833 3.5 -65.5s2.16699 -43.167 3.5 -64.5h4l28 64.5c9.33301 21.667 19.666 43.5 30.999 65.5l146 314h40
l-226 -480h-56l-20 299c-1.33301 23.333 -2.33301 47.333 -3 72s-2 48.334 -4 71.001h-4l-30.5 -71l-31.5 -72l-137 -299h-56zM416.001 705.999h29l67 -136h-32l-53 98h-4l-93 -98h-36z" />
    <glyph glyph-name="Ycircumflex" unicode="&#x176;" horiz-adv-x="433" 
d="M194 268l-109.002 391h44l55 -208c6.66699 -24 12.834 -47.5 18.501 -70.5s11.834 -46.833 18.501 -71.5h4l47.5 71l47.5 71l144 208h46l-273 -391l-54 -268h-43zM293.998 813h38l71 -104h-35l-56 74h-4l-86 -74h-40z" />
    <glyph glyph-name="ycircumflex" unicode="&#x177;" horiz-adv-x="419" 
d="M-62 -174c10.667 -6 21.9961 -9.00098 33.9961 -9.00098c28.667 0 55.334 12.167 80.001 36.5s47 56.833 67 97.5l21 42l-81 487h41l47 -301l10.5 -72.5c3.66699 -25 6.83398 -48.5 9.50098 -70.5h4l36.5 71l38.5 72l162 301h42l-296 -539
c-10.667 -20 -22.167 -39.667 -34.5 -59s-26 -36.5 -41 -51.5s-31.5 -27 -49.5 -36s-38 -13.5 -60 -13.5c-5.33301 0 -12.166 0.833008 -20.499 2.5s-17.166 4.83398 -26.499 9.50098l16 33v0zM272.996 705.999h29l67 -136h-32l-53 98h-4l-93 -98h-36z" />
    <glyph glyph-name="Ydieresis" unicode="&#x178;" horiz-adv-x="433" 
d="M194 268l-109.002 391h44l55 -208c6.66699 -24 12.834 -47.5 18.501 -70.5s11.834 -46.833 18.501 -71.5h4l47.5 71l47.5 71l144 208h46l-273 -391l-54 -268h-43zM223.998 723c-9.33301 0 -16.666 2.66797 -21.999 8.00098s-8 12.666 -8 21.999c0 12 3.83301 22 11.5 30
s16.167 12 25.5 12s16.666 -2.66699 21.999 -8s8 -13 8 -23c0 -11.333 -3.83301 -21 -11.5 -29s-16.167 -12 -25.5 -12zM374.998 723.001c-9.33301 0 -16.666 2.66797 -21.999 8.00098s-8 12.666 -8 21.999c0 12 3.83301 22 11.5 30s16.167 12 25.5 12
s16.666 -2.66699 21.999 -8s8 -13 8 -23c0 -11.333 -3.83301 -21 -11.5 -29s-16.167 -12 -25.5 -12z" />
    <glyph glyph-name="Zacute" unicode="&#x179;" horiz-adv-x="505" 
d="M7 26l465 596h-325l8 37h376l-5 -26l-463 -596h359l-8 -37h-413zM414 813h52l-122 -104h-39z" />
    <glyph glyph-name="zacute" unicode="&#x17a;" horiz-adv-x="391" 
d="M-6 25l358 419h-245l8 36h298l-4 -25l-359 -419h282l-8 -36h-334zM332 706h50l-128 -136h-38z" />
    <glyph glyph-name="Zdotaccent" unicode="&#x17b;" horiz-adv-x="505" 
d="M7 26l465 596h-325l8 37h376l-5 -26l-463 -596h359l-8 -37h-413zM347 723c-9.33301 0 -17.335 3.00098 -24.002 9.00098s-10 14 -10 24c0 13.333 4.33301 24.166 13 32.499s18.334 12.5 29.001 12.5c9.33301 0 17.333 -3.16699 24 -9.5s10 -14.833 10 -25.5
c0 -12.667 -4.16699 -23 -12.5 -31s-18.166 -12 -29.499 -12z" />
    <glyph glyph-name="zdotaccent" unicode="&#x17c;" horiz-adv-x="391" 
d="M-6 25l358 419h-245l8 36h298l-4 -25l-359 -419h282l-8 -36h-334zM280 596c-9.33301 0 -17.335 3.16895 -24.002 9.50195s-10 14.166 -10 23.499c0 13.333 4.33301 24.166 13 32.499s18.334 12.5 29.001 12.5c9.33301 0 17.333 -3 24 -9s10 -14.333 10 -25
c0 -12.667 -4.16699 -23.167 -12.5 -31.5s-18.166 -12.5 -29.499 -12.5z" />
    <glyph glyph-name="Zcaron" unicode="&#x17d;" horiz-adv-x="505" 
d="M7 26l465 596h-325l8 37h376l-5 -26l-463 -596h359l-8 -37h-413zM361 709h-37l-72 104h35l56 -74h4l87 74h39z" />
    <glyph glyph-name="zcaron" unicode="&#x17e;" horiz-adv-x="391" 
d="M-6 25l358 419h-245l8 36h298l-4 -25l-359 -419h282l-8 -36h-334zM288 570h-29l-68 136h32l54 -97h4l92 97h37z" />
    <glyph glyph-name="uni0180" unicode="&#x180;" horiz-adv-x="504" 
d="M103 111c17.333 -31.333 35.665 -53.666 54.998 -66.999s40.333 -20 63 -20c28.667 0 56 7.83301 82 23.5s48.833 36.5 68.5 62.5s35.334 55.667 47.001 89s17.5 67.666 17.5 102.999c0 44.667 -9.66699 78.167 -29 100.5s-45.666 33.5 -78.999 33.5
c-26.667 0 -56 -8.33301 -88 -25s-61.667 -38 -89 -64zM159.999 393c25.333 20.667 52.999 39.001 82.999 55.001s61.333 24 94 24c42.667 0 76.667 -13.833 102 -41.5s38 -68.167 38 -121.5c0 -44.667 -7.16699 -86.5 -21.5 -125.5s-33.333 -73 -57 -102
s-51 -51.833 -82 -68.5s-62.833 -25 -95.5 -25c-28.667 0 -53.167 7.16699 -73.5 21.5s-37.166 33.166 -50.499 56.499h-3l-19 -66h-35l116 581h-72l5 27l74 4l21 107h41l-21 -107h183l-7 -31h-183l-18 -91l-21 -97h2z" />
    <glyph glyph-name="uni018F" unicode="&#x18f;" horiz-adv-x="617" 
d="M106 293c-6 -42 -6.33203 -79.5 -0.999023 -112.5s15.166 -61 29.499 -84s32.833 -40.667 55.5 -53s48.667 -18.5 78 -18.5c32.667 0 63.5 6.5 92.5 19.5s55.333 31.333 79 55s44 52 61 85s29.5 69.167 37.5 108.5h-432zM193.001 594
c23.333 22 51.666 40.5029 84.999 55.5029s68.333 22.5 105 22.5c36 0 67 -6.66699 93 -20s47.5 -32 64.5 -56s29.667 -52.833 38 -86.5s12.5 -70.834 12.5 -111.501c0 -59.333 -8.66699 -114 -26 -164s-40.666 -93.333 -69.999 -130s-63.833 -65.167 -103.5 -85.5
s-81.834 -30.5 -126.501 -30.5c-32.667 0 -61.5 6 -86.5 18s-46.167 28.667 -63.5 50s-30.5 46.666 -39.5 75.999s-13.5 61.333 -13.5 96c0 20 1.16699 37.333 3.5 52s5.16602 30.667 8.49902 48h470c1.33301 10 2.33301 20.167 3 30.5s1 21.166 1 32.499
c0 36.667 -3 70 -9 100s-15.667 55.667 -29 77s-30.666 37.833 -51.999 49.5s-47.666 17.5 -78.999 17.5s-61 -6.66699 -89 -20s-52.667 -30 -74 -50z" />
    <glyph glyph-name="uni0192" unicode="&#x192;" 
d="M263 483c8 26.667 17.501 51.499 28.501 74.499s23.333 43 37 60s29 30.333 46 40s35.5 14.5 55.5 14.5c14 0 27.5 -2.16699 40.5 -6.5s24.833 -9.5 35.5 -15.5l-16 -33c-9.33301 5.33301 -19 9.83301 -29 13.5s-21 5.5 -33 5.5c-14.667 0 -28.167 -4.5 -40.5 -13.5
s-23.666 -21 -33.999 -36s-19.5 -31.833 -27.5 -50.5s-15 -37.667 -21 -57l-23 -76h130l-8 -35h-133l-87 -282c-8.66699 -27.333 -18.334 -52.166 -29.001 -74.499s-22.834 -41.666 -36.501 -57.999s-29 -29 -46 -38s-35.833 -13.5 -56.5 -13.5
c-26.667 0 -50.334 7 -71.001 21l17 33c16.667 -12 34.667 -18 54 -18c14.667 0 28.5 4 41.5 12s24.667 19.167 35 33.5s19.833 31.166 28.5 50.499s16.334 40 23.001 62l84 272h-92l8 33l65 2h29z" />
    <glyph glyph-name="Ohorn" unicode="&#x1a0;" horiz-adv-x="618" 
d="M280 25c42 0 79.666 11.833 112.999 35.5s61.333 53.667 84 90s40 76 52 119s18 83.833 18 122.5c0 36 -3.33301 68.833 -10 98.5s-17.167 55.167 -31.5 76.5s-32.666 37.833 -54.999 49.5s-48.833 17.5 -79.5 17.5c-42 0 -79.5 -11.833 -112.5 -35.5
s-60.833 -53.667 -83.5 -90s-40 -76 -52 -119s-18 -83.833 -18 -122.5c0 -36 3.33301 -68.833 10 -98.5s17.167 -55.167 31.5 -76.5s32.5 -37.833 54.5 -49.5s48.333 -17.5 79 -17.5zM627.999 760c3.33301 -7.33301 5.66602 -13.999 6.99902 -19.999s2 -12.333 2 -19
c0 -27.333 -10.5 -50.833 -31.5 -70.5s-48.833 -32.5 -83.5 -38.5c22.667 -24.667 39.667 -55.167 51 -91.5s17 -77.5 17 -123.5c0 -30.667 -3.16699 -62 -9.5 -94s-15.666 -63.167 -27.999 -93.5s-27.5 -58.833 -45.5 -85.5s-38.667 -50.167 -62 -70.5s-49 -36.333 -77 -48
s-58.333 -17.5 -91 -17.5c-36 0 -67.5 6.66699 -94.5 20s-49.5 32.166 -67.5 56.499s-31.5 53.333 -40.5 87s-13.5 70.5 -13.5 110.5c0 30.667 3.16699 62 9.5 94s15.666 63.167 27.999 93.5s27.5 58.833 45.5 85.5s38.667 50.167 62 70.5s49 36.333 77 48
s58.333 17.5 91 17.5c44.667 0 83.334 -10.667 116.001 -32c30 1.33301 55.333 8.5 76 21.5s31 31.167 31 54.5c0 5.33301 -0.166992 10 -0.5 14s-1.5 9.66699 -3.5 17z" />
    <glyph glyph-name="ohorn" unicode="&#x1a1;" horiz-adv-x="505" 
d="M210 24c26 0 51.332 7.33301 75.999 22s46.834 34.334 66.501 59.001s35.5 53.5 47.5 86.5s18 68.167 18 105.5c0 52 -10.667 91.5 -32 118.5s-52 40.5 -92 40.5c-26 0 -51.5 -7.33301 -76.5 -22s-47.333 -34.334 -67 -59.001s-35.5 -53.5 -47.5 -86.5
s-18 -67.833 -18 -104.5c0 -52 10.833 -91.667 32.5 -119s52.5 -41 92.5 -41zM516.999 591c3.33301 -7.33301 5.66602 -13.999 6.99902 -19.999s2 -12.333 2 -19c0 -26 -9.33301 -49 -28 -69s-47 -32.667 -85 -38c15.333 -16.667 27 -36.834 35 -60.501s12 -51.167 12 -82.5
c0 -44.667 -7.16699 -86.167 -21.5 -124.5s-33.166 -71.5 -56.499 -99.5s-50.333 -50 -81 -66s-62.334 -24 -95.001 -24c-49.333 0 -88.666 16.5 -117.999 49.5s-44 79.833 -44 140.5c0 44.667 7 86.167 21 124.5s32.833 71.5 56.5 99.5s50.667 50 81 66s61.833 24 94.5 24
c32 0 60.667 -7.33301 86 -22c28.667 1.33301 53.167 8.5 73.5 21.5s30.5 31.167 30.5 54.5c0 5.33301 -0.333008 10 -1 14s-2 9.33301 -4 16z" />
    <glyph glyph-name="Uhorn" unicode="&#x1af;" horiz-adv-x="608" 
d="M699 780c3.33301 -7.33301 5.66797 -13.998 7.00098 -19.998s2 -12.333 2 -19c0 -25.333 -10 -48.5 -30 -69.5s-49.667 -34.167 -89 -39.5l-80 -396c-9.33301 -46 -22 -84.667 -38 -116s-34.167 -56.833 -54.5 -76.5s-42.833 -33.834 -67.5 -42.501s-50 -13 -76 -13
c-60.667 0 -107.834 16.833 -141.501 50.5s-50.5 82.167 -50.5 145.5c0 13.333 0.666992 26.833 2 40.5s3.66602 28.5 6.99902 44.5l78 390h43l-77 -386c-4 -15.333 -6.66699 -29.666 -8 -42.999s-2 -26 -2 -38c0 -53.333 12.667 -94.5 38 -123.5
s63.666 -43.5 114.999 -43.5c20.667 0 40.834 4 60.501 12s37.834 20.667 54.501 38s31.5 39.666 44.5 66.999s23.5 60.666 31.5 99.999l83 417h11c14 0 27.5 2 40.5 6s24.5 9.16699 34.5 15.5s17.833 14 23.5 23s8.5 19.167 8.5 30.5c0 5.33301 -0.333008 10 -1 14
s-2 9.66699 -4 17z" />
    <glyph glyph-name="uhorn" unicode="&#x1b0;" horiz-adv-x="529" 
d="M568 601c5.33301 -13.333 7.99902 -26.334 7.99902 -39.001c0 -26 -10.167 -49 -30.5 -69s-45.5 -32.667 -75.5 -38l-91 -455h-34l10 78h-4c-29.333 -25.333 -57.666 -46.666 -84.999 -63.999s-55.666 -26 -84.999 -26c-41.333 0 -70.833 10.833 -88.5 32.5
s-26.5 49.834 -26.5 84.501c0 12 0.5 22.5 1.5 31.5s3.16699 20.167 6.5 33.5l62 310h41l-61 -304c-3.33301 -14.667 -5.5 -26.334 -6.5 -35.001s-1.5 -17.667 -1.5 -27c0 -30 6.66699 -52.333 20 -67s35 -22 65 -22c21.333 0 46 8 74 24s60 41.667 96 77l71 354h9
c11.333 1.33301 22.666 4 33.999 8s21.5 9.16699 30.5 15.5s16.167 13.833 21.5 22.5s8 18.667 8 30c0 5.33301 -0.166992 10 -0.5 14s-1.5 9.33301 -3.5 16z" />
    <glyph glyph-name="uni01CD" unicode="&#x1cd;" horiz-adv-x="488" 
d="M370 264l-15.0029 127c-3.33301 36.667 -7.16602 73.5 -11.499 110.5s-8.16602 75.167 -11.499 114.5h-4c-19.333 -40 -38.666 -78 -57.999 -114l-60 -111l-68 -127h228zM373.997 229h-251l-123 -229h-48l363 659h47l81 -659h-43zM354.997 709h-37l-72 104h35l56 -74h4
l87 74h39z" />
    <glyph glyph-name="uni01CE" unicode="&#x1ce;" horiz-adv-x="527" 
d="M44 161c0 46 7.33496 89.166 22.002 129.499s34.167 75.5 58.5 105.5s52.166 53.5 83.499 70.5s63.666 25.5 96.999 25.5c28 0 52.333 -7.16699 73 -21.5s37.667 -33.166 51 -56.499h3l19 66h34l-96 -480h-35l11 76h-4c-24.667 -25.333 -52 -46.333 -82 -63
s-61.667 -25 -95 -25c-42 0 -75.833 14.667 -101.5 44s-38.5 72.333 -38.5 129zM193.002 23.999c31.333 0 62.001 9.00098 92.001 27.001s59.333 43.667 88 77l50 241c-17.333 31.333 -35.833 53.666 -55.5 66.999s-40.834 20 -63.501 20
c-28.667 0 -56.167 -8.16699 -82.5 -24.5s-49.5 -38 -69.5 -65s-36 -57.667 -48 -92s-18 -69.5 -18 -105.5c0 -48.667 9.5 -85 28.5 -109s45.167 -36 78.5 -36zM338.003 570h-29l-68 136h32l54 -97h4l92 97h37z" />
    </font>
</defs>
</svg>
